M48
;Layer_Color=9474304
;FILE_FORMAT=2:4
INCH
;TYPE=PLATED
T1F00S00C0.0118
T2F00S00C0.0197
T3F00S00C0.0236
T4F00S00C0.0354
T5F00S00C0.0374
T6F00S00C0.0394
T7F00S00C0.0402
T9F00S00C0.0512
T10F00S00C0.0906
T11F00S00C0.0945
T12F00S00C0.1260
T13F00S00C0.1398
%
T01
X018799Y015551
X028194Y015193
X030079Y015561
X030433
X030787
X030422Y014480
X049124Y023494
X049547Y023927
X049803Y025000
X050537Y025198
X051929Y026890
X052266Y027413
X053045Y027329
Y026892
X053482
Y026455
X048042Y026289
X047362Y027598
X047825Y029055
X048189Y029124
X049646Y029567
X050111Y029726
X050467Y029882
X045947Y030907
X046152Y024390
X045347Y024331
X044980
X044530Y025395
X044205Y025577
X044529Y019724
X044237Y019404
X044042Y019209
X043847Y019014
X043652Y018819
X043457Y018624
X043708Y018374
X043903Y018568
X044098Y018763
X044292Y018958
X044487Y019153
X044636Y018495
X044784Y018642
X043276Y018193
X043141Y019995
X043512Y020035
X041388Y017431
X041378Y017215
X040817Y017303
X040817Y017028
X040817Y016752
X040817Y016476
X040463
Y016752
Y017028
Y017303
Y017579
X040817
X040443Y018012
X039449Y017520
Y017126
X040640Y016043
X036388Y020443
X035059Y021594
X034272
X032894
X031516
X032008Y022234
X032037Y023604
X032077Y024386
X032178Y024748
X032362Y025354
X033063Y024872
X033372Y024563
X033990
X034299Y024872
X033681
X034227Y025907
Y026399
X031882Y026776
X032165Y027362
X032697Y027726
X032667Y028435
X033081Y028799
X032628Y029213
X032244Y029646
X033724Y030725
X034119Y030710
X035433Y030433
X035848Y030425
X036152Y030423
Y030837
X035848Y030838
X035622Y028958
X035354Y028425
X037333Y028760
X037648Y027343
X038348Y027314
X037992Y026378
X037205Y026762
X036634Y026909
X036703Y025738
X037266Y025109
X037561Y023751
X035354Y024252
X035640Y022845
X034332Y023348
X032461Y017795
X031395Y016998
X031395Y016775
X031416Y016017
X031409Y015787
X038494Y029813
X037965Y030362
X031220Y026732
X030748Y026811
X030335Y026526
X029862Y026260
X029606Y026850
X029134Y026457
X029173Y026097
X028194Y025838
X026644Y026900
X026270Y026673
X025699Y027982
X025315Y027776
X025310Y028397
X024906Y028308
X025388Y029903
X025945Y029961
X026339Y030512
X026614Y030236
X026250Y031132
X025630Y030748
X024640Y031183
X022275Y029506
X020923Y029508
X019291Y029134
X019762Y027876
X020039Y027598
X021585Y027579
X022313Y027185
X022244Y028150
X022244Y025881
X021585Y025020
Y023642
X020905Y024016
X021069Y021974
X021506
X021069Y021537
X023642Y021594
X024232
X024803Y022244
X025610Y021594
X026201
X025886Y020374
X025197Y020079
X025098Y020669
X023661Y020512
X023159Y020502
X024114Y019783
X022559Y019331
X020374Y019193
Y018543
X018110Y019488
X017323Y017972
X019390Y016142
X028205Y015882
X029437Y015804
X030079Y015837
Y016112
Y016388
Y016663
Y016939
Y017215
X030433
Y016939
Y016663
Y016388
Y016112
Y015837
X030787Y015837
X030787Y016112
X030787Y016388
X030787Y016663
X030787Y016939
X030787Y017215
X030423Y018327
X029685Y019803
X027677
X028543Y021614
X028711Y022224
X027186Y022206
X026811Y023622
X026398Y023278
X025807Y023278
X025335Y024390
X024528Y023661
X024055
X023839Y023366
X023366Y023839
X023366Y024587
X023563Y026201
X026890Y024449
X030512Y023583
X030728Y022317
X029437Y016985
X020039Y031220
X017717Y030748
X015768Y028691
X015787Y032323
X018386Y031969
X019803Y031811
X021585Y031713
X022205Y031417
X022148Y032165
X022175Y033199
X022175Y033878
X021585Y033484
Y034665
X020912Y034954
X022234Y035157
X022569Y035541
X022421Y036220
X023896Y036646
X024683
X025020Y037313
X024232
X026004
X025719Y036703
X026301Y036646
X027295Y036665
X027579Y037313
X028638Y036705
X030026Y036711
X030661Y037315
X030778Y035551
X030332Y035309
X029591Y034332
X028465Y034380
X027638Y034350
X026939Y034370
X027185Y034065
X026102Y033957
X026201Y032982
X025738Y033091
X023622Y033110
X023467Y033953
X023642Y034547
X023829Y034360
X023465Y034744
X019291Y034646
X019882Y033661
X017667Y038112
X017984Y038629
X016211Y038179
X021270Y041362
X024724Y041063
X025502Y041978
X025394Y043307
X027953Y042795
X026791Y039419
X024016Y039488
X025004Y031576
X026841Y031486
X027717Y032677
X028110Y033031
X028465Y032884
X028327Y033406
X029217Y032639
X030512Y033740
X030989Y033850
X031211Y033553
X032101Y033378
X032018Y032943
X033400Y032625
X034409Y033189
X035197Y032756
X035610Y032293
X035620Y034272
X037224Y034183
X037333Y035266
X037874Y035276
X038184Y036979
Y037533
Y038087
Y038642
X037854Y038366
Y037825
Y037283
X036575Y036102
X033376Y035571
X033150Y035039
X033597Y034224
X032894Y036594
X033484Y037313
X031909
X031713Y035624
X031329Y039370
X032244Y039252
X032717
X039242Y039528
X039961Y039272
X046133Y039015
X046753Y039084
X046143Y038297
Y037568
X046123Y036968
X046143Y036151
Y035550
X046185Y035139
X045712Y033563
X044813Y033819
X044461Y033496
X044401Y032885
X044134Y033150
X044178Y032559
X044418Y032292
X044173Y032026
X044124Y033858
X044213Y034291
Y034724
X046476Y033051
X037333Y032697
Y031909
X032731Y031478
X045079Y043898
X047343
X049656Y043937
X049679Y042126
X049678Y041606
X049412Y041341
X049419Y040809
X049727Y041075
X049382Y041862
X047992Y040906
X048077Y040547
X047244Y041191
X047737Y039074
X048338
X049234Y039074
X049834Y039074
X050652Y039094
X051293Y039510
X050781Y038132
X050759Y037568
X050789Y036781
Y036180
X050779Y035797
X050789Y035235
X050808Y034576
X050287Y034428
X049706
X049156Y034430
X048426Y034418
X047659Y034428
X047169Y034431
X047815Y032717
X049272Y032726
X051225Y033820
X052067Y035226
X052119Y035681
Y036055
Y036427
Y036990
X052047Y032185
X051734Y031951
T02
X043760Y025305
T03
X017912Y011016
X018814
X019716
X020617
X021519
X021969Y011795
X021068
X020166
X019265
X018363
X017912Y012575
X018814
X019716
X020617
X021519
X033169Y014195
X033661
X034154
X034646
X035138
X037530Y014213
X037992
X038484
X041417
X041824
X042231
X042638
X047008Y017913
X054384Y018070
Y018971
Y019873
Y020775
Y021676
X055163Y022127
Y021225
Y020324
Y019422
Y018521
X055943Y018070
Y018971
Y019873
Y020775
Y021676
X046575Y017913
X046181
X045787
X043220Y022739
X042872Y023087
X042524Y023435
X042176Y023783
X041828Y024131
X037372Y018209
X036388
X035404
X026721Y017615
X026307Y017615
X025894
X025481
X025067
X024654
X024240
X035236Y035276
T04
X030433Y030148
Y031457
X048429Y036340
Y037226
T05
X014173Y016535
X014961
Y017520
X014173
T06
X028276Y011323
Y012323
X029276
X030276
Y011323
X029276
X026929Y043307
Y044291
X026102
X025079
X024252
Y043307
X031453Y043980
X032453
X033453
X034453
X035453
X036453
X037453
X038453
X039453
X040453
Y044980
X039453
X038453
X037453
X036453
X035453
X034453
X033453
X032453
X031453
X055079Y042866
Y041866
Y040866
T07
X012787Y038906
Y039906
Y040906
Y041906
Y042906
X013787
Y041906
Y040906
Y039906
Y038906
T09
X012913Y023266
X014882
Y028187
X014882Y029880
X012913
X012913Y028187
X012913Y034802
X014882
T10
X049616Y010728
X028248Y045472
X025591Y045768
X022933Y045472
T11
X013268Y014657
Y019398
T12
X015022Y011795
X024860
X055163Y015179
Y025018
T13
X011811Y011811
X055118
X019291Y045276
X055118
M30
