%FSAX24Y24*%
%MOIN*%
G70*
G01*
G75*
%ADD10C,0.0080*%
%ADD11C,0.0079*%
%ADD12R,0.0591X0.0551*%
%ADD13R,0.0551X0.0591*%
%ADD14O,0.0236X0.0866*%
%ADD15R,0.0394X0.1575*%
%ADD16R,0.1575X0.0394*%
%ADD17R,0.1299X0.0984*%
G04:AMPARAMS|DCode=18|XSize=8.7mil|YSize=74.8mil|CornerRadius=2.2mil|HoleSize=0mil|Usage=FLASHONLY|Rotation=90.000|XOffset=0mil|YOffset=0mil|HoleType=Round|Shape=RoundedRectangle|*
%AMROUNDEDRECTD18*
21,1,0.0087,0.0705,0,0,90.0*
21,1,0.0043,0.0748,0,0,90.0*
1,1,0.0043,0.0352,0.0022*
1,1,0.0043,0.0352,-0.0022*
1,1,0.0043,-0.0352,-0.0022*
1,1,0.0043,-0.0352,0.0022*
%
%ADD18ROUNDEDRECTD18*%
G04:AMPARAMS|DCode=19|XSize=8.7mil|YSize=74.8mil|CornerRadius=2.2mil|HoleSize=0mil|Usage=FLASHONLY|Rotation=180.000|XOffset=0mil|YOffset=0mil|HoleType=Round|Shape=RoundedRectangle|*
%AMROUNDEDRECTD19*
21,1,0.0087,0.0705,0,0,180.0*
21,1,0.0043,0.0748,0,0,180.0*
1,1,0.0043,-0.0022,0.0352*
1,1,0.0043,0.0022,0.0352*
1,1,0.0043,0.0022,-0.0352*
1,1,0.0043,-0.0022,-0.0352*
%
%ADD19ROUNDEDRECTD19*%
G04:AMPARAMS|DCode=20|XSize=133.9mil|YSize=135.8mil|CornerRadius=0mil|HoleSize=0mil|Usage=FLASHONLY|Rotation=135.000|XOffset=0mil|YOffset=0mil|HoleType=Round|Shape=Rectangle|*
%AMROTATEDRECTD20*
4,1,4,0.0953,0.0007,-0.0007,-0.0953,-0.0953,-0.0007,0.0007,0.0953,0.0953,0.0007,0.0*
%
%ADD20ROTATEDRECTD20*%

%ADD21R,0.1339X0.1358*%
%ADD22R,0.2047X0.0827*%
%ADD23R,0.2047X0.1969*%
G04:AMPARAMS|DCode=24|XSize=11.8mil|YSize=65mil|CornerRadius=3mil|HoleSize=0mil|Usage=FLASHONLY|Rotation=90.000|XOffset=0mil|YOffset=0mil|HoleType=Round|Shape=RoundedRectangle|*
%AMROUNDEDRECTD24*
21,1,0.0118,0.0591,0,0,90.0*
21,1,0.0059,0.0650,0,0,90.0*
1,1,0.0059,0.0295,0.0030*
1,1,0.0059,0.0295,-0.0030*
1,1,0.0059,-0.0295,-0.0030*
1,1,0.0059,-0.0295,0.0030*
%
%ADD24ROUNDEDRECTD24*%
G04:AMPARAMS|DCode=25|XSize=11.8mil|YSize=65mil|CornerRadius=3mil|HoleSize=0mil|Usage=FLASHONLY|Rotation=0.000|XOffset=0mil|YOffset=0mil|HoleType=Round|Shape=RoundedRectangle|*
%AMROUNDEDRECTD25*
21,1,0.0118,0.0591,0,0,0.0*
21,1,0.0059,0.0650,0,0,0.0*
1,1,0.0059,0.0030,-0.0295*
1,1,0.0059,-0.0030,-0.0295*
1,1,0.0059,-0.0030,0.0295*
1,1,0.0059,0.0030,0.0295*
%
%ADD25ROUNDEDRECTD25*%
%ADD26O,0.0827X0.0177*%
%ADD27R,0.1240X0.2028*%
%ADD28O,0.0118X0.0551*%
%ADD29O,0.0551X0.0118*%
G04:AMPARAMS|DCode=30|XSize=65mil|YSize=143.7mil|CornerRadius=0mil|HoleSize=0mil|Usage=FLASHONLY|Rotation=315.000|XOffset=0mil|YOffset=0mil|HoleType=Round|Shape=Rectangle|*
%AMROTATEDRECTD30*
4,1,4,-0.0738,-0.0278,0.0278,0.0738,0.0738,0.0278,-0.0278,-0.0738,-0.0738,-0.0278,0.0*
%
%ADD30ROTATEDRECTD30*%

G04:AMPARAMS|DCode=31|XSize=11.8mil|YSize=55.1mil|CornerRadius=0mil|HoleSize=0mil|Usage=FLASHONLY|Rotation=315.000|XOffset=0mil|YOffset=0mil|HoleType=Round|Shape=Round|*
%AMOVALD31*
21,1,0.0433,0.0118,0.0000,0.0000,45.0*
1,1,0.0118,-0.0153,-0.0153*
1,1,0.0118,0.0153,0.0153*
%
%ADD31OVALD31*%

G04:AMPARAMS|DCode=32|XSize=11.8mil|YSize=55.1mil|CornerRadius=0mil|HoleSize=0mil|Usage=FLASHONLY|Rotation=45.000|XOffset=0mil|YOffset=0mil|HoleType=Round|Shape=Round|*
%AMOVALD32*
21,1,0.0433,0.0118,0.0000,0.0000,135.0*
1,1,0.0118,0.0153,-0.0153*
1,1,0.0118,-0.0153,0.0153*
%
%ADD32OVALD32*%

%ADD33R,0.0650X0.1437*%
%ADD34R,0.0197X0.0236*%
%ADD35R,0.0236X0.0197*%
%ADD36R,0.0354X0.0276*%
%ADD37R,0.0276X0.0354*%
%ADD38R,0.0354X0.0315*%
%ADD39R,0.0315X0.0354*%
G04:AMPARAMS|DCode=40|XSize=35.4mil|YSize=31.5mil|CornerRadius=0mil|HoleSize=0mil|Usage=FLASHONLY|Rotation=225.000|XOffset=0mil|YOffset=0mil|HoleType=Round|Shape=Rectangle|*
%AMROTATEDRECTD40*
4,1,4,0.0014,0.0237,0.0237,0.0014,-0.0014,-0.0237,-0.0237,-0.0014,0.0014,0.0237,0.0*
%
%ADD40ROTATEDRECTD40*%

%ADD41R,0.0551X0.0472*%
G04:AMPARAMS|DCode=42|XSize=35.4mil|YSize=27.6mil|CornerRadius=0mil|HoleSize=0mil|Usage=FLASHONLY|Rotation=45.000|XOffset=0mil|YOffset=0mil|HoleType=Round|Shape=Rectangle|*
%AMROTATEDRECTD42*
4,1,4,-0.0028,-0.0223,-0.0223,-0.0028,0.0028,0.0223,0.0223,0.0028,-0.0028,-0.0223,0.0*
%
%ADD42ROTATEDRECTD42*%

%ADD43P,0.2840X4X270.0*%
G04:AMPARAMS|DCode=44|XSize=11.8mil|YSize=39.4mil|CornerRadius=0mil|HoleSize=0mil|Usage=FLASHONLY|Rotation=225.000|XOffset=0mil|YOffset=0mil|HoleType=Round|Shape=Rectangle|*
%AMROTATEDRECTD44*
4,1,4,-0.0097,0.0181,0.0181,-0.0097,0.0097,-0.0181,-0.0181,0.0097,-0.0097,0.0181,0.0*
%
%ADD44ROTATEDRECTD44*%

G04:AMPARAMS|DCode=45|XSize=11.8mil|YSize=39.4mil|CornerRadius=0mil|HoleSize=0mil|Usage=FLASHONLY|Rotation=315.000|XOffset=0mil|YOffset=0mil|HoleType=Round|Shape=Rectangle|*
%AMROTATEDRECTD45*
4,1,4,-0.0181,-0.0097,0.0097,0.0181,0.0181,0.0097,-0.0097,-0.0181,-0.0181,-0.0097,0.0*
%
%ADD45ROTATEDRECTD45*%

%ADD46R,0.0236X0.0453*%
%ADD47C,0.0118*%
%ADD48C,0.0197*%
%ADD49C,0.0110*%
%ADD50C,0.0315*%
%ADD51C,0.0236*%
%ADD52C,0.0551*%
%ADD53C,0.0157*%
%ADD54C,0.0276*%
%ADD55C,0.0100*%
%ADD56C,0.0709*%
%ADD57C,0.0787*%
%ADD58C,0.0472*%
%ADD59C,0.0512*%
%ADD60C,0.0827*%
%ADD61C,0.0120*%
%ADD62R,0.3858X0.3858*%
%ADD63O,0.2362X0.2756*%
%ADD64C,0.0551*%
%ADD65O,0.2756X0.2362*%
%ADD66O,0.1181X0.1024*%
%ADD67R,0.0827X0.0827*%
%ADD68C,0.0827*%
%ADD69C,0.0709*%
%ADD70C,0.1575*%
%ADD71C,0.1181*%
%ADD72O,0.2362X0.1969*%
%ADD73O,0.2362X0.1575*%
%ADD74O,0.1181X0.2362*%
%ADD75C,0.0748*%
%ADD76R,0.0748X0.0748*%
%ADD77R,0.0748X0.0748*%
%ADD78R,0.0787X0.0787*%
%ADD79C,0.0787*%
%ADD80C,0.2362*%
%ADD81C,0.1654*%
%ADD82C,0.0630*%
%ADD83R,0.0630X0.0630*%
%ADD84C,0.0280*%
%ADD85C,0.0472*%
%ADD86C,0.0079*%
G04:AMPARAMS|DCode=87|XSize=16.5mil|YSize=65mil|CornerRadius=4.1mil|HoleSize=0mil|Usage=FLASHONLY|Rotation=45.000|XOffset=0mil|YOffset=0mil|HoleType=Round|Shape=RoundedRectangle|*
%AMROUNDEDRECTD87*
21,1,0.0165,0.0567,0,0,45.0*
21,1,0.0083,0.0650,0,0,45.0*
1,1,0.0083,0.0230,-0.0171*
1,1,0.0083,0.0171,-0.0230*
1,1,0.0083,-0.0230,0.0171*
1,1,0.0083,-0.0171,0.0230*
%
%ADD87ROUNDEDRECTD87*%
G04:AMPARAMS|DCode=88|XSize=16.5mil|YSize=65mil|CornerRadius=4.1mil|HoleSize=0mil|Usage=FLASHONLY|Rotation=315.000|XOffset=0mil|YOffset=0mil|HoleType=Round|Shape=RoundedRectangle|*
%AMROUNDEDRECTD88*
21,1,0.0165,0.0567,0,0,315.0*
21,1,0.0083,0.0650,0,0,315.0*
1,1,0.0083,-0.0171,-0.0230*
1,1,0.0083,-0.0230,-0.0171*
1,1,0.0083,0.0171,0.0230*
1,1,0.0083,0.0230,0.0171*
%
%ADD88ROUNDEDRECTD88*%
G04:AMPARAMS|DCode=89|XSize=19.7mil|YSize=23.6mil|CornerRadius=0mil|HoleSize=0mil|Usage=FLASHONLY|Rotation=315.000|XOffset=0mil|YOffset=0mil|HoleType=Round|Shape=Rectangle|*
%AMROTATEDRECTD89*
4,1,4,-0.0153,-0.0014,0.0014,0.0153,0.0153,0.0014,-0.0014,-0.0153,-0.0153,-0.0014,0.0*
%
%ADD89ROTATEDRECTD89*%

%ADD90R,0.0433X0.0669*%
G04:AMPARAMS|DCode=91|XSize=66.9mil|YSize=43.3mil|CornerRadius=0mil|HoleSize=0mil|Usage=FLASHONLY|Rotation=225.000|XOffset=0mil|YOffset=0mil|HoleType=Round|Shape=Rectangle|*
%AMROTATEDRECTD91*
4,1,4,0.0084,0.0390,0.0390,0.0084,-0.0084,-0.0390,-0.0390,-0.0084,0.0084,0.0390,0.0*
%
%ADD91ROTATEDRECTD91*%

%ADD92R,0.0669X0.0433*%
G04:AMPARAMS|DCode=93|XSize=66.9mil|YSize=43.3mil|CornerRadius=0mil|HoleSize=0mil|Usage=FLASHONLY|Rotation=135.000|XOffset=0mil|YOffset=0mil|HoleType=Round|Shape=Rectangle|*
%AMROTATEDRECTD93*
4,1,4,0.0390,-0.0084,0.0084,-0.0390,-0.0390,0.0084,-0.0084,0.0390,0.0390,-0.0084,0.0*
%
%ADD93ROTATEDRECTD93*%

%ADD94O,0.0984X0.0295*%
%ADD95R,0.0630X0.0512*%
G04:AMPARAMS|DCode=96|XSize=49.2mil|YSize=33.5mil|CornerRadius=0mil|HoleSize=0mil|Usage=FLASHONLY|Rotation=135.000|XOffset=0mil|YOffset=0mil|HoleType=Round|Shape=Rectangle|*
%AMROTATEDRECTD96*
4,1,4,0.0292,-0.0056,0.0056,-0.0292,-0.0292,0.0056,-0.0056,0.0292,0.0292,-0.0056,0.0*
%
%ADD96ROTATEDRECTD96*%

G04:AMPARAMS|DCode=97|XSize=19.7mil|YSize=23.6mil|CornerRadius=0mil|HoleSize=0mil|Usage=FLASHONLY|Rotation=225.000|XOffset=0mil|YOffset=0mil|HoleType=Round|Shape=Rectangle|*
%AMROTATEDRECTD97*
4,1,4,-0.0014,0.0153,0.0153,-0.0014,0.0014,-0.0153,-0.0153,0.0014,-0.0014,0.0153,0.0*
%
%ADD97ROTATEDRECTD97*%

%ADD98R,0.0433X0.0551*%
%ADD99R,0.0551X0.0433*%
%ADD100R,0.0453X0.0236*%
%ADD101C,0.0394*%
%ADD102C,0.0433*%
%ADD103C,0.0630*%
%ADD104C,0.0984*%
%ADD105C,0.1575*%
%ADD106C,0.1181*%
%ADD107C,0.0098*%
%ADD108C,0.0010*%
D10*
X038976Y027093D02*
Y027487D01*
X039173D01*
X039239Y027421D01*
Y027290D01*
X039173Y027224D01*
X038976D01*
X039370Y027487D02*
Y027224D01*
Y027356D01*
X039436Y027421D01*
X039501Y027487D01*
X039567D01*
X039829Y027224D02*
X039960D01*
X040026Y027290D01*
Y027421D01*
X039960Y027487D01*
X039829D01*
X039764Y027421D01*
Y027290D01*
X039829Y027224D01*
X040419Y027487D02*
X040223D01*
X040157Y027421D01*
Y027290D01*
X040223Y027224D01*
X040419D01*
X040747D02*
X040616D01*
X040551Y027290D01*
Y027421D01*
X040616Y027487D01*
X040747D01*
X040813Y027421D01*
Y027356D01*
X040551D01*
X040944Y027224D02*
X041141D01*
X041207Y027290D01*
X041141Y027356D01*
X041010D01*
X040944Y027421D01*
X041010Y027487D01*
X041207D01*
X041338Y027224D02*
X041535D01*
X041600Y027290D01*
X041535Y027356D01*
X041403D01*
X041338Y027421D01*
X041403Y027487D01*
X041600D01*
X041731Y027224D02*
X041863D01*
X041797D01*
Y027487D01*
X041731D01*
X042059Y027224D02*
Y027487D01*
X042256D01*
X042322Y027421D01*
Y027224D01*
X042584Y027093D02*
X042650D01*
X042715Y027159D01*
Y027487D01*
X042519D01*
X042453Y027421D01*
Y027290D01*
X042519Y027224D01*
X042715D01*
X043240Y027618D02*
Y027224D01*
X043437D01*
X043502Y027290D01*
Y027356D01*
Y027421D01*
X043437Y027487D01*
X043240D01*
X043699Y027224D02*
X043830D01*
X043896Y027290D01*
Y027421D01*
X043830Y027487D01*
X043699D01*
X043634Y027421D01*
Y027290D01*
X043699Y027224D01*
X044093Y027487D02*
X044224D01*
X044290Y027421D01*
Y027224D01*
X044093D01*
X044027Y027290D01*
X044093Y027356D01*
X044290D01*
X044421Y027487D02*
Y027224D01*
Y027356D01*
X044486Y027421D01*
X044552Y027487D01*
X044618D01*
X045077Y027618D02*
Y027224D01*
X044880D01*
X044814Y027290D01*
Y027421D01*
X044880Y027487D01*
X045077D01*
X039518Y028484D02*
Y028091D01*
Y028287D01*
X039583Y028353D01*
X039715D01*
X039780Y028287D01*
Y028091D01*
X039977Y028353D02*
X040108D01*
X040174Y028287D01*
Y028091D01*
X039977D01*
X039911Y028156D01*
X039977Y028222D01*
X040174D01*
X040305Y028353D02*
Y028091D01*
Y028222D01*
X040370Y028287D01*
X040436Y028353D01*
X040502D01*
X040961Y028484D02*
Y028091D01*
X040764D01*
X040698Y028156D01*
Y028287D01*
X040764Y028353D01*
X040961D01*
X041092D02*
Y028156D01*
X041158Y028091D01*
X041223Y028156D01*
X041289Y028091D01*
X041354Y028156D01*
Y028353D01*
X041551D02*
X041682D01*
X041748Y028287D01*
Y028091D01*
X041551D01*
X041486Y028156D01*
X041551Y028222D01*
X041748D01*
X041879Y028353D02*
Y028091D01*
Y028222D01*
X041945Y028287D01*
X042010Y028353D01*
X042076D01*
X042470Y028091D02*
X042338D01*
X042273Y028156D01*
Y028287D01*
X042338Y028353D01*
X042470D01*
X042535Y028287D01*
Y028222D01*
X042273D01*
X043322Y028484D02*
Y028091D01*
X043125D01*
X043060Y028156D01*
Y028287D01*
X043125Y028353D01*
X043322D01*
X043519D02*
X043650D01*
X043716Y028287D01*
Y028091D01*
X043519D01*
X043453Y028156D01*
X043519Y028222D01*
X043716D01*
X043913Y028419D02*
Y028353D01*
X043847D01*
X043978D01*
X043913D01*
Y028156D01*
X043978Y028091D01*
X044241Y028353D02*
X044372D01*
X044437Y028287D01*
Y028091D01*
X044241D01*
X044175Y028156D01*
X044241Y028222D01*
X044437D01*
X038386Y029340D02*
Y029078D01*
X038517Y028947D01*
X038648Y029078D01*
Y029340D01*
X038976Y028947D02*
X038845D01*
X038779Y029012D01*
Y029144D01*
X038845Y029209D01*
X038976D01*
X039042Y029144D01*
Y029078D01*
X038779D01*
X039173Y029209D02*
Y028947D01*
Y029078D01*
X039239Y029144D01*
X039304Y029209D01*
X039370D01*
X039567Y028947D02*
X039763D01*
X039829Y029012D01*
X039763Y029078D01*
X039632D01*
X039567Y029144D01*
X039632Y029209D01*
X039829D01*
X040026D02*
X040157D01*
X040223Y029144D01*
Y028947D01*
X040026D01*
X039960Y029012D01*
X040026Y029078D01*
X040223D01*
X040419Y029275D02*
Y029209D01*
X040354D01*
X040485D01*
X040419D01*
Y029012D01*
X040485Y028947D01*
X040682D02*
X040813D01*
X040747D01*
Y029209D01*
X040682D01*
X041010Y028947D02*
X041141D01*
X041075D01*
Y029340D01*
X041010D01*
X041534Y028947D02*
X041403D01*
X041338Y029012D01*
Y029144D01*
X041403Y029209D01*
X041534D01*
X041600Y029144D01*
Y029078D01*
X041338D01*
X042387Y029340D02*
X042125D01*
Y029144D01*
X042256D01*
X042125D01*
Y028947D01*
X042518D02*
Y029340D01*
X042715D01*
X042781Y029275D01*
Y029144D01*
X042715Y029078D01*
X042518D01*
X043174Y029275D02*
X043109Y029340D01*
X042978D01*
X042912Y029275D01*
Y029012D01*
X042978Y028947D01*
X043109D01*
X043174Y029012D01*
Y029144D01*
X043043D01*
X043306Y028947D02*
Y029209D01*
X043437Y029340D01*
X043568Y029209D01*
Y028947D01*
Y029144D01*
X043306D01*
X043699D02*
X043961D01*
X044093Y029340D02*
Y028947D01*
X044289D01*
X044355Y029012D01*
Y029078D01*
Y029144D01*
X044289Y029209D01*
X044093D01*
X044552D02*
X044683D01*
X044749Y029144D01*
Y028947D01*
X044552D01*
X044486Y029012D01*
X044552Y029078D01*
X044749D01*
X044880Y028947D02*
X045077D01*
X045142Y029012D01*
X045077Y029078D01*
X044945D01*
X044880Y029144D01*
X044945Y029209D01*
X045142D01*
X045470Y028947D02*
X045339D01*
X045273Y029012D01*
Y029144D01*
X045339Y029209D01*
X045470D01*
X045536Y029144D01*
Y029078D01*
X045273D01*
X045929Y029340D02*
Y028947D01*
X045733D01*
X045667Y029012D01*
Y029144D01*
X045733Y029209D01*
X045929D01*
D11*
X052264Y010945D02*
X052776D01*
X021417Y014902D02*
Y015413D01*
X018760Y014902D02*
Y015413D01*
X018445Y024961D02*
X018957D01*
X018445Y028307D02*
X018957D01*
X018445Y031850D02*
X018957D01*
X052333Y023238D02*
Y023947D01*
X050364Y023238D02*
Y023947D01*
X052333D01*
X050364Y023238D02*
X052333D01*
X024250Y015036D02*
Y017910D01*
X026888Y015036D02*
Y017910D01*
X024250Y015036D02*
X024762D01*
X024250Y017910D02*
X024762D01*
X026376Y015036D02*
X026888D01*
X026376Y017910D02*
X026888D01*
X050870Y034352D02*
Y039155D01*
X046067Y034352D02*
Y039155D01*
X050870D01*
X046067Y034352D02*
X050870D01*
X043422Y023122D02*
X043783Y022760D01*
X041389Y021090D02*
X041751Y020728D01*
X041890Y024653D02*
X042252Y024291D01*
X039858Y022621D02*
X040220Y022259D01*
X041751Y020728D02*
X043783Y022760D01*
X039858Y022621D02*
X041890Y024653D01*
X037215Y018661D02*
X037726D01*
X037215Y015787D02*
X037726D01*
X035049Y018661D02*
X035561D01*
X035049Y015787D02*
X035561D01*
X037726D02*
Y018661D01*
X035049Y015787D02*
Y018661D01*
X028346Y042520D02*
Y047638D01*
X022835Y042520D02*
X028346D01*
X022835D02*
Y047638D01*
X028346D01*
X023278Y023278D02*
Y035620D01*
X035620Y023278D02*
Y035620D01*
X023278D02*
X035620D01*
X023278Y023278D02*
X035620D01*
X019587Y020758D02*
X021161D01*
X019587Y016624D02*
X021161D01*
X019587D02*
Y020758D01*
X021161Y016624D02*
Y020758D01*
X029359Y014937D02*
X029614D01*
X029359D02*
Y015095D01*
X031229Y014937D02*
X031484D01*
Y015095D01*
Y017693D02*
Y017851D01*
X031229D02*
X031484D01*
X029359D02*
X029614D01*
X029359Y017693D02*
Y017851D01*
X042747Y018610D02*
X042859Y018499D01*
X042747Y018610D02*
X042859Y018722D01*
X043583Y017775D02*
X043694Y017664D01*
X043805Y017775D01*
X045086Y019056D02*
X045197Y019167D01*
X045086Y019278D02*
X045197Y019167D01*
X044251Y020113D02*
X044362Y020002D01*
X044139D02*
X044251Y020113D01*
X039970Y015965D02*
X040128D01*
X039970D02*
Y016122D01*
X041152Y015965D02*
X041309D01*
Y016122D01*
Y017933D02*
Y018091D01*
X041152D02*
X041309D01*
X039970D02*
X040128D01*
X039970Y017933D02*
Y018091D01*
X030953Y043480D02*
X040953D01*
Y045480D01*
X030953D02*
X040953D01*
X030953Y043480D02*
Y045480D01*
X054579Y040366D02*
X055579D01*
X054579D02*
X054579Y043366D01*
X055579D01*
X055579Y040366D01*
X024646Y020492D02*
Y020650D01*
X024370Y020492D02*
Y020650D01*
X033307Y037579D02*
X033465D01*
X033307Y037854D02*
X033465D01*
X028484Y020472D02*
Y020630D01*
X028209Y020472D02*
Y020630D01*
X027539Y020472D02*
Y020630D01*
X027815Y020472D02*
Y020630D01*
X033366Y021299D02*
Y021457D01*
X033642Y021299D02*
Y021457D01*
X049114Y024144D02*
X049114Y024301D01*
X049390Y024144D02*
Y024301D01*
X017480Y031102D02*
X017953Y031102D01*
X017480Y027559D02*
X017953Y027559D01*
X017480Y024213D02*
X017953D01*
X016594Y017618D02*
X017067D01*
X017579Y017618D02*
X018051D01*
X033189Y018150D02*
X033189Y017992D01*
X032913Y018150D02*
X032913Y017992D01*
X052283Y013583D02*
X052756D01*
X033504Y018150D02*
X033504Y017992D01*
X033780Y017992D02*
Y018150D01*
X032649Y019019D02*
X032807D01*
X032649Y019295D02*
X032807Y019295D01*
X039370Y019715D02*
X039528D01*
X039370Y019990D02*
X039528D01*
X039370Y020748D02*
X039528D01*
X039370Y020472D02*
X039528Y020472D01*
X045483Y020754D02*
X045595Y020643D01*
X045678Y020949D02*
X045790Y020837D01*
X046813Y022082D02*
X046925Y021971D01*
X046619Y021887D02*
X046730Y021776D01*
X021250Y032037D02*
X021407D01*
X021250Y032313D02*
X021407D01*
X037234Y030295D02*
X037392D01*
X037234Y030571D02*
X037392D01*
X020886Y030571D02*
X021043D01*
X020886Y030846D02*
X021043D01*
X027776Y010823D02*
Y012823D01*
Y010823D02*
X030776D01*
Y012823D01*
X027776D02*
X030776D01*
X049420Y029405D02*
X049518Y029503D01*
X049615Y029405D01*
X047485Y027470D02*
X047583Y027568D01*
X047485Y027470D02*
X047583Y027373D01*
X049420Y025536D02*
X049518Y025438D01*
X049615Y025536D01*
X051453Y027373D02*
X051550Y027470D01*
X051453Y027568D02*
X051550Y027470D01*
X043543Y045118D02*
X043858D01*
Y044764D02*
Y045118D01*
X042677D02*
X042992D01*
X042677Y044764D02*
Y045118D01*
X024016Y040197D02*
X024331D01*
X024016D02*
Y040551D01*
X024882Y040197D02*
X025197D01*
Y040551D01*
X026772Y040197D02*
Y040551D01*
X026457Y040197D02*
X026772D01*
X025591D02*
Y040551D01*
Y040197D02*
X025906D01*
X045000Y045118D02*
X045315D01*
Y044764D02*
Y045118D01*
X044134D02*
X044449D01*
X044134Y044764D02*
Y045118D01*
X046457Y045118D02*
X046772D01*
Y044764D02*
Y045118D01*
X045591D02*
X045906D01*
X045591Y044764D02*
Y045118D01*
X047913D02*
X048228D01*
Y044764D02*
Y045118D01*
X047047D02*
X047362D01*
X047047Y044764D02*
Y045118D01*
X049370Y045118D02*
X049685D01*
Y044764D02*
Y045118D01*
X048504D02*
X048819D01*
X048504Y044764D02*
Y045118D01*
X050827Y045118D02*
X051142D01*
Y044764D02*
Y045118D01*
X049961D02*
X050276D01*
X049961Y044764D02*
Y045118D01*
D47*
X041411Y025955D02*
X041083D01*
X041411Y026283D01*
Y026365D01*
X041329Y026447D01*
X041165D01*
X041083Y026365D01*
X041575D02*
X041657Y026447D01*
X041821D01*
X041903Y026365D01*
Y026037D01*
X041821Y025955D01*
X041657D01*
X041575Y026037D01*
Y026365D01*
X042067Y025955D02*
X042231D01*
X042149D01*
Y026447D01*
X042067Y026365D01*
X042805Y026447D02*
X042641Y026365D01*
X042477Y026201D01*
Y026037D01*
X042559Y025955D01*
X042723D01*
X042805Y026037D01*
Y026119D01*
X042723Y026201D01*
X042477D01*
D50*
X045887Y010807D02*
G03*
X045889Y010796I-000024J-000010D01*
G01*
D51*
X046579Y034745D02*
G03*
X046579Y034745I-000118J000000D01*
G01*
X023789Y035226D02*
G03*
X023789Y035226I-000118J000000D01*
G01*
X020886Y017018D02*
G03*
X020886Y017018I-000118J000000D01*
G01*
D53*
X053750Y027441D02*
Y027047D01*
X053947Y026850D01*
X054144Y027047D01*
Y027441D01*
X054734Y027342D02*
X054636Y027441D01*
X054439D01*
X054340Y027342D01*
Y026949D01*
X054439Y026850D01*
X054636D01*
X054734Y026949D01*
Y027146D01*
X054537D01*
X054931Y026850D02*
Y027244D01*
X055128Y027441D01*
X055324Y027244D01*
Y026850D01*
Y027146D01*
X054931D01*
X055521Y026850D02*
X055718D01*
X055619D01*
Y027441D01*
X055521Y027342D01*
X023720Y014370D02*
Y013976D01*
X023917Y013780D01*
X024114Y013976D01*
Y014370D01*
X024704Y014271D02*
X024606Y014370D01*
X024409D01*
X024311Y014271D01*
Y013878D01*
X024409Y013780D01*
X024606D01*
X024704Y013878D01*
Y014075D01*
X024508D01*
X024901Y013780D02*
Y014173D01*
X025098Y014370D01*
X025295Y014173D01*
Y013780D01*
Y014075D01*
X024901D01*
X025885Y013780D02*
X025492D01*
X025885Y014173D01*
Y014271D01*
X025787Y014370D01*
X025590D01*
X025492Y014271D01*
X017421Y030019D02*
Y029429D01*
X017815D01*
X018405Y030019D02*
X018012D01*
Y029429D01*
X018405D01*
X018012Y029724D02*
X018208D01*
X018602Y030019D02*
Y029429D01*
X018897D01*
X018996Y029528D01*
Y029921D01*
X018897Y030019D01*
X018602D01*
X019192Y029429D02*
X019389D01*
X019291D01*
Y030019D01*
X019192Y029921D01*
X017224Y026476D02*
Y025886D01*
X017618D01*
X018208Y026476D02*
X017815D01*
Y025886D01*
X018208D01*
X017815Y026181D02*
X018012D01*
X018405Y026476D02*
Y025886D01*
X018700D01*
X018799Y025984D01*
Y026378D01*
X018700Y026476D01*
X018405D01*
X019389Y025886D02*
X018995D01*
X019389Y026279D01*
Y026378D01*
X019291Y026476D01*
X019094D01*
X018995Y026378D01*
X017126Y023130D02*
Y022539D01*
X017520D01*
X018110Y023130D02*
X017716D01*
Y022539D01*
X018110D01*
X017716Y022835D02*
X017913D01*
X018307Y023130D02*
Y022539D01*
X018602D01*
X018700Y022638D01*
Y023031D01*
X018602Y023130D01*
X018307D01*
X018897Y023031D02*
X018995Y023130D01*
X019192D01*
X019291Y023031D01*
Y022933D01*
X019192Y022835D01*
X019094D01*
X019192D01*
X019291Y022736D01*
Y022638D01*
X019192Y022539D01*
X018995D01*
X018897Y022638D01*
X027648Y041339D02*
Y041929D01*
X027943D01*
X028041Y041831D01*
Y041634D01*
X027943Y041535D01*
X027648D01*
X028632Y041831D02*
X028533Y041929D01*
X028336D01*
X028238Y041831D01*
Y041732D01*
X028336Y041634D01*
X028533D01*
X028632Y041535D01*
Y041437D01*
X028533Y041339D01*
X028336D01*
X028238Y041437D01*
X029222Y041339D02*
X028828D01*
X029222Y041732D01*
Y041831D01*
X029124Y041929D01*
X028927D01*
X028828Y041831D01*
X010335Y020866D02*
Y020374D01*
X010433Y020276D01*
X010630D01*
X010728Y020374D01*
Y020866D01*
X010925Y020276D02*
Y020669D01*
X011122Y020866D01*
X011319Y020669D01*
Y020276D01*
Y020571D01*
X010925D01*
X011515Y020276D02*
Y020866D01*
X011811D01*
X011909Y020768D01*
Y020571D01*
X011811Y020472D01*
X011515D01*
X011712D02*
X011909Y020276D01*
X012106Y020866D02*
X012499D01*
X012303D01*
Y020276D01*
X010335Y029331D02*
Y028740D01*
X010630D01*
X010728Y028839D01*
Y028937D01*
X010630Y029035D01*
X010335D01*
X010630D01*
X010728Y029134D01*
Y029232D01*
X010630Y029331D01*
X010335D01*
X010925D02*
X011319D01*
X011122D01*
Y028740D01*
X011515D02*
Y029331D01*
X011909Y028740D01*
Y029331D01*
X012106Y028740D02*
X012303D01*
X012204D01*
Y029331D01*
X012106Y029232D01*
X010335Y022638D02*
Y022047D01*
X010630D01*
X010728Y022146D01*
Y022244D01*
X010630Y022342D01*
X010335D01*
X010630D01*
X010728Y022441D01*
Y022539D01*
X010630Y022638D01*
X010335D01*
X010925D02*
X011319D01*
X011122D01*
Y022047D01*
X011515D02*
Y022638D01*
X011909Y022047D01*
Y022638D01*
X012499Y022047D02*
X012106D01*
X012499Y022441D01*
Y022539D01*
X012401Y022638D01*
X012204D01*
X012106Y022539D01*
X012067Y036565D02*
X011870D01*
X011968D01*
Y036073D01*
X011870Y035974D01*
X011772D01*
X011673Y036073D01*
X012264Y036565D02*
X012657D01*
X012460D01*
Y035974D01*
X012854D02*
Y036368D01*
X013051Y036565D01*
X013248Y036368D01*
Y035974D01*
Y036270D01*
X012854D01*
X013838Y036466D02*
X013739Y036565D01*
X013543D01*
X013444Y036466D01*
Y036073D01*
X013543Y035974D01*
X013739D01*
X013838Y036073D01*
Y036270D01*
X013641D01*
D55*
X016063Y027695D02*
G03*
X016063Y027695I-000197J000000D01*
G01*
Y023758D02*
G03*
X016063Y023758I-000197J000000D01*
G01*
X012126D02*
G03*
X012126Y023758I-000197J000000D01*
G01*
Y027695D02*
G03*
X012126Y027695I-000197J000000D01*
G01*
X015143Y025727D02*
G03*
X015143Y025727I-001245J000000D01*
G01*
X016063Y034309D02*
G03*
X016063Y034309I-000197J000000D01*
G01*
Y030372D02*
G03*
X016063Y030372I-000197J000000D01*
G01*
X012126D02*
G03*
X012126Y030372I-000197J000000D01*
G01*
Y034309D02*
G03*
X012126Y034309I-000197J000000D01*
G01*
X015143Y032341D02*
G03*
X015143Y032341I-001245J000000D01*
G01*
X046163Y011122D02*
G03*
X046174Y010440I-000301J-000346D01*
G01*
X036518Y011754D02*
X037441D01*
X034803D02*
X035726D01*
X034803D02*
Y013865D01*
X035331Y014392D01*
X037441Y011754D02*
Y013865D01*
X036913Y014392D02*
X037441Y013865D01*
X035331Y014392D02*
X035726D01*
X036518D02*
X036913D01*
X042522Y011673D02*
X043445D01*
X040807D02*
X041730D01*
X040807D02*
Y013783D01*
X041335Y014311D01*
X043445Y011673D02*
Y013783D01*
X042917Y014311D02*
X043445Y013783D01*
X041335Y014311D02*
X041730D01*
X042522D02*
X042917D01*
X039470Y011673D02*
X040394D01*
X037756D02*
X038679D01*
X037756D02*
Y013783D01*
X038283Y014311D01*
X040394Y011673D02*
Y013783D01*
X039866Y014311D02*
X040394Y013783D01*
X038283Y014311D02*
X038679D01*
X039470D02*
X039866D01*
X033565Y011754D02*
X034488D01*
X031850D02*
X032774D01*
X031850D02*
Y013865D01*
X032378Y014392D01*
X034488Y011754D02*
Y013865D01*
X033961Y014392D02*
X034488Y013865D01*
X032378Y014392D02*
X032774D01*
X033565D02*
X033961D01*
X046122Y016594D02*
Y017518D01*
Y018309D02*
Y019232D01*
X048232D01*
X048760Y018705D01*
X046122Y016594D02*
X048232D01*
X048760Y017122D01*
Y018309D02*
Y018705D01*
Y017122D02*
Y017518D01*
X045573Y011673D02*
X046496D01*
X043858D02*
X044781D01*
X043858D02*
Y013783D01*
X044386Y014311D01*
X046496Y011673D02*
Y013783D01*
X045968Y014311D02*
X046496Y013783D01*
X044386Y014311D02*
X044781D01*
X045573D02*
X045968D01*
X026014Y012687D02*
Y013287D01*
X026004Y009843D02*
Y010935D01*
X013848Y009813D02*
Y010906D01*
Y012657D02*
Y013287D01*
X013878Y009803D02*
X026004D01*
X013878Y013287D02*
X026014D01*
X023150Y007461D02*
Y009803D01*
X016732Y007461D02*
X023150D01*
X016732D02*
Y009803D01*
X053671Y026171D02*
X054272D01*
X056024Y026161D02*
X057116D01*
X056053Y014006D02*
X057146D01*
X053671D02*
X054301D01*
X057156Y014035D02*
Y026161D01*
X053671Y014035D02*
Y026171D01*
X057156Y023307D02*
X059498D01*
Y016890D02*
Y023307D01*
X057156Y016890D02*
X059498D01*
X011535Y028089D02*
X016260D01*
X011535Y023365D02*
Y028089D01*
Y023365D02*
X016260D01*
Y028089D01*
X012323Y027302D02*
X015472D01*
X012323Y024152D02*
Y027302D01*
Y024152D02*
X015472D01*
Y027302D01*
X011535Y034703D02*
X016260D01*
X011535Y029979D02*
Y034703D01*
Y029979D02*
X016260D01*
Y034703D01*
X012323Y033916D02*
X015472D01*
X012323Y030766D02*
Y033916D01*
Y030766D02*
X015472D01*
Y033916D01*
X011654Y036909D02*
Y044902D01*
X014921Y036909D02*
Y044902D01*
X014547Y037283D02*
Y044528D01*
X011654Y036909D02*
X014921D01*
X012028Y044528D02*
X014547D01*
X011654Y044902D02*
X014921D01*
X012028Y037283D02*
Y044528D01*
Y037283D02*
X014547D01*
Y040020D02*
X014921D01*
X014547Y041791D02*
X014921D01*
X022835Y047047D02*
X028346D01*
X050148Y016693D02*
Y016850D01*
X052018Y016693D02*
Y016850D01*
X051388Y009154D02*
Y012421D01*
Y014980D02*
Y015138D01*
X047844D02*
X048317D01*
X050915D02*
X051388D01*
X047844Y009154D02*
X051388D01*
X050325Y010532D02*
X051388D01*
X047844D02*
X048907D01*
X047844Y009154D02*
Y012382D01*
Y015138D01*
X033937Y042953D02*
X034724D01*
X031024D02*
X031811D01*
X030984Y045945D02*
X031772D01*
X044380Y010778D02*
X045413D01*
X045758D02*
X047136D01*
X027756Y010335D02*
X028346D01*
X030217D02*
X030807D01*
X008957Y014626D02*
X015453D01*
X012598Y015453D02*
X015453D01*
X012598D02*
Y018602D01*
X015453D01*
X009843Y014626D02*
Y019429D01*
X008957Y014626D02*
Y019429D01*
X015453Y014626D02*
Y019429D01*
X008957D02*
X015453D01*
X041562Y043898D02*
X041430D01*
X041496D01*
Y043570D01*
X041430Y043504D01*
X041365D01*
X041299Y043570D01*
X041955Y043898D02*
X041693D01*
Y043701D01*
X041824Y043766D01*
X041890D01*
X041955Y043701D01*
Y043570D01*
X041890Y043504D01*
X041758D01*
X041693Y043570D01*
X054987Y039960D02*
X054856D01*
X054921D01*
Y039633D01*
X054856Y039567D01*
X054790D01*
X054724Y039633D01*
X055380Y039567D02*
X055118D01*
X055380Y039829D01*
Y039895D01*
X055315Y039960D01*
X055184D01*
X055118Y039895D01*
X022461Y037205D02*
Y036877D01*
X022526Y036811D01*
X022657D01*
X022723Y036877D01*
Y037205D01*
X022854D02*
X023117D01*
Y037139D01*
X022854Y036877D01*
Y036811D01*
X024488Y019331D02*
Y019724D01*
X024685D01*
X024751Y019659D01*
Y019527D01*
X024685Y019462D01*
X024488D01*
X024619D02*
X024751Y019331D01*
X025079D02*
Y019724D01*
X024882Y019527D01*
X025144D01*
X025275Y019659D02*
X025341Y019724D01*
X025472D01*
X025538Y019659D01*
Y019593D01*
X025472Y019527D01*
X025538Y019462D01*
Y019396D01*
X025472Y019331D01*
X025341D01*
X025275Y019396D01*
Y019462D01*
X025341Y019527D01*
X025275Y019593D01*
Y019659D01*
X025341Y019527D02*
X025472D01*
X032943Y038179D02*
Y038573D01*
X033140D01*
X033205Y038507D01*
Y038376D01*
X033140Y038310D01*
X032943D01*
X033074D02*
X033205Y038179D01*
X033533D02*
Y038573D01*
X033336Y038376D01*
X033599D01*
X033730Y038573D02*
X033992D01*
Y038507D01*
X033730Y038245D01*
Y038179D01*
X028799Y020374D02*
Y020768D01*
X028996D01*
X029062Y020702D01*
Y020571D01*
X028996Y020505D01*
X028799D01*
X028930D02*
X029062Y020374D01*
X029390D02*
Y020768D01*
X029193Y020571D01*
X029455D01*
X029849Y020768D02*
X029718Y020702D01*
X029586Y020571D01*
Y020440D01*
X029652Y020374D01*
X029783D01*
X029849Y020440D01*
Y020505D01*
X029783Y020571D01*
X029586D01*
X026181Y020374D02*
Y020768D01*
X026378D01*
X026443Y020702D01*
Y020571D01*
X026378Y020505D01*
X026181D01*
X026312D02*
X026443Y020374D01*
X026771D02*
Y020768D01*
X026575Y020571D01*
X026837D01*
X027231Y020768D02*
X026968D01*
Y020571D01*
X027099Y020636D01*
X027165D01*
X027231Y020571D01*
Y020440D01*
X027165Y020374D01*
X027034D01*
X026968Y020440D01*
X033957Y020965D02*
Y021358D01*
X034153D01*
X034219Y021293D01*
Y021161D01*
X034153Y021096D01*
X033957D01*
X034088D02*
X034219Y020965D01*
X034547D02*
Y021358D01*
X034350Y021161D01*
X034613D01*
X034941Y020965D02*
Y021358D01*
X034744Y021161D01*
X035006D01*
X038156Y023891D02*
X038090Y023957D01*
X037959D01*
X037894Y023891D01*
Y023629D01*
X037959Y023563D01*
X038090D01*
X038156Y023629D01*
X038287Y023891D02*
X038353Y023957D01*
X038484D01*
X038550Y023891D01*
Y023825D01*
X038484Y023760D01*
X038550Y023694D01*
Y023629D01*
X038484Y023563D01*
X038353D01*
X038287Y023629D01*
Y023694D01*
X038353Y023760D01*
X038287Y023825D01*
Y023891D01*
X038353Y023760D02*
X038484D01*
X038681Y023957D02*
X038943D01*
Y023891D01*
X038681Y023629D01*
Y023563D01*
X020636Y028478D02*
X020571Y028543D01*
X020440D01*
X020374Y028478D01*
Y028215D01*
X020440Y028150D01*
X020571D01*
X020636Y028215D01*
X020768Y028150D02*
X020899D01*
X020833D01*
Y028543D01*
X020768Y028478D01*
X021358Y028150D02*
X021096D01*
X021358Y028412D01*
Y028478D01*
X021292Y028543D01*
X021161D01*
X021096Y028478D01*
X021489Y028215D02*
X021555Y028150D01*
X021686D01*
X021752Y028215D01*
Y028478D01*
X021686Y028543D01*
X021555D01*
X021489Y028478D01*
Y028412D01*
X021555Y028346D01*
X021752D01*
X026778Y038487D02*
X026713Y038553D01*
X026581D01*
X026516Y038487D01*
Y038225D01*
X026581Y038159D01*
X026713D01*
X026778Y038225D01*
X026909Y038159D02*
X027041D01*
X026975D01*
Y038553D01*
X026909Y038487D01*
X027237D02*
X027303Y038553D01*
X027434D01*
X027500Y038487D01*
Y038422D01*
X027434Y038356D01*
X027368D01*
X027434D01*
X027500Y038291D01*
Y038225D01*
X027434Y038159D01*
X027303D01*
X027237Y038225D01*
X027893Y038159D02*
X027631D01*
X027893Y038422D01*
Y038487D01*
X027828Y038553D01*
X027696D01*
X027631Y038487D01*
X052782Y026233D02*
X052716Y026299D01*
X052585D01*
X052520Y026233D01*
Y025971D01*
X052585Y025906D01*
X052716D01*
X052782Y025971D01*
X053110Y025906D02*
Y026299D01*
X052913Y026102D01*
X053176D01*
X048598Y032218D02*
X048533Y032283D01*
X048402D01*
X048336Y032218D01*
Y031955D01*
X048402Y031890D01*
X048533D01*
X048598Y031955D01*
X048730Y032283D02*
X048992D01*
Y032218D01*
X048730Y031955D01*
Y031890D01*
X052598Y023149D02*
Y022756D01*
X052795D01*
X052861Y022822D01*
Y023084D01*
X052795Y023149D01*
X052598D01*
X052992Y022756D02*
X053123D01*
X053058D01*
Y023149D01*
X052992Y023084D01*
X053973Y013622D02*
X053842D01*
X053907D01*
Y013294D01*
X053842Y013228D01*
X053776D01*
X053711Y013294D01*
X054104Y013228D02*
X054235D01*
X054170D01*
Y013622D01*
X054104Y013556D01*
X013058Y010630D02*
X012926D01*
X012992D01*
Y010302D01*
X012926Y010236D01*
X012861D01*
X012795Y010302D01*
X013189Y010564D02*
X013254Y010630D01*
X013386D01*
X013451Y010564D01*
Y010499D01*
X013386Y010433D01*
X013320D01*
X013386D01*
X013451Y010367D01*
Y010302D01*
X013386Y010236D01*
X013254D01*
X013189Y010302D01*
X048268Y024016D02*
Y024409D01*
X048464D01*
X048530Y024344D01*
Y024213D01*
X048464Y024147D01*
X048268D01*
X048399D02*
X048530Y024016D01*
X048661D02*
X048792D01*
X048727D01*
Y024409D01*
X048661Y024344D01*
X049213Y030275D02*
Y029947D01*
X049278Y029882D01*
X049409D01*
X049475Y029947D01*
Y030275D01*
X049606Y029882D02*
X049737D01*
X049672D01*
Y030275D01*
X049606Y030210D01*
X044882Y040059D02*
Y039731D01*
X044947Y039665D01*
X045079D01*
X045144Y039731D01*
Y040059D01*
X045538Y039665D02*
X045275D01*
X045538Y039928D01*
Y039993D01*
X045472Y040059D01*
X045341D01*
X045275Y039993D01*
X044947Y015682D02*
X044882Y015748D01*
X044751D01*
X044685Y015682D01*
Y015420D01*
X044751Y015354D01*
X044882D01*
X044947Y015420D01*
X045275Y015354D02*
Y015748D01*
X045079Y015551D01*
X045341D01*
X045472Y015682D02*
X045538Y015748D01*
X045669D01*
X045735Y015682D01*
Y015617D01*
X045669Y015551D01*
X045735Y015486D01*
Y015420D01*
X045669Y015354D01*
X045538D01*
X045472Y015420D01*
Y015486D01*
X045538Y015551D01*
X045472Y015617D01*
Y015682D01*
X045538Y015551D02*
X045669D01*
X046424Y019915D02*
X046358Y019980D01*
X046227D01*
X046161Y019915D01*
Y019652D01*
X046227Y019587D01*
X046358D01*
X046424Y019652D01*
X046752Y019587D02*
Y019980D01*
X046555Y019783D01*
X046817D01*
X046949Y019652D02*
X047014Y019587D01*
X047145D01*
X047211Y019652D01*
Y019915D01*
X047145Y019980D01*
X047014D01*
X046949Y019915D01*
Y019849D01*
X047014Y019783D01*
X047211D01*
X032251Y016503D02*
X032185Y016437D01*
Y016306D01*
X032251Y016240D01*
X032513D01*
X032579Y016306D01*
Y016437D01*
X032513Y016503D01*
X032185Y016896D02*
Y016634D01*
X032382D01*
X032316Y016765D01*
Y016831D01*
X032382Y016896D01*
X032513D01*
X032579Y016831D01*
Y016699D01*
X032513Y016634D01*
X032579Y017224D02*
X032185D01*
X032382Y017027D01*
Y017290D01*
X032940Y010761D02*
X032874Y010827D01*
X032743D01*
X032677Y010761D01*
Y010499D01*
X032743Y010433D01*
X032874D01*
X032940Y010499D01*
X033333Y010827D02*
X033071D01*
Y010630D01*
X033202Y010695D01*
X033268D01*
X033333Y010630D01*
Y010499D01*
X033268Y010433D01*
X033136D01*
X033071Y010499D01*
X033727Y010827D02*
X033464D01*
Y010630D01*
X033595Y010695D01*
X033661D01*
X033727Y010630D01*
Y010499D01*
X033661Y010433D01*
X033530D01*
X033464Y010499D01*
X038845Y010663D02*
X038779Y010728D01*
X038648D01*
X038583Y010663D01*
Y010400D01*
X038648Y010335D01*
X038779D01*
X038845Y010400D01*
X039239Y010728D02*
X038976D01*
Y010531D01*
X039107Y010597D01*
X039173D01*
X039239Y010531D01*
Y010400D01*
X039173Y010335D01*
X039042D01*
X038976Y010400D01*
X039632Y010728D02*
X039501Y010663D01*
X039370Y010531D01*
Y010400D01*
X039435Y010335D01*
X039567D01*
X039632Y010400D01*
Y010466D01*
X039567Y010531D01*
X039370D01*
X033727Y020013D02*
X033661Y020079D01*
X033530D01*
X033465Y020013D01*
Y019751D01*
X033530Y019685D01*
X033661D01*
X033727Y019751D01*
X034121Y020079D02*
X033858D01*
Y019882D01*
X033989Y019947D01*
X034055D01*
X034121Y019882D01*
Y019751D01*
X034055Y019685D01*
X033924D01*
X033858Y019751D01*
X034252Y020013D02*
X034317Y020079D01*
X034448D01*
X034514Y020013D01*
Y019947D01*
X034448Y019882D01*
X034514Y019816D01*
Y019751D01*
X034448Y019685D01*
X034317D01*
X034252Y019751D01*
Y019816D01*
X034317Y019882D01*
X034252Y019947D01*
Y020013D01*
X034317Y019882D02*
X034448D01*
X041896Y010663D02*
X041831Y010728D01*
X041699D01*
X041634Y010663D01*
Y010400D01*
X041699Y010335D01*
X041831D01*
X041896Y010400D01*
X042290Y010728D02*
X042027D01*
Y010531D01*
X042159Y010597D01*
X042224D01*
X042290Y010531D01*
Y010400D01*
X042224Y010335D01*
X042093D01*
X042027Y010400D01*
X042421D02*
X042487Y010335D01*
X042618D01*
X042683Y010400D01*
Y010663D01*
X042618Y010728D01*
X042487D01*
X042421Y010663D01*
Y010597D01*
X042487Y010531D01*
X042683D01*
X037861Y019265D02*
X037795Y019331D01*
X037664D01*
X037598Y019265D01*
Y019003D01*
X037664Y018937D01*
X037795D01*
X037861Y019003D01*
X038254Y019331D02*
X038123Y019265D01*
X037992Y019134D01*
Y019003D01*
X038058Y018937D01*
X038189D01*
X038254Y019003D01*
Y019068D01*
X038189Y019134D01*
X037992D01*
X038386Y019265D02*
X038451Y019331D01*
X038582D01*
X038648Y019265D01*
Y019199D01*
X038582Y019134D01*
X038517D01*
X038582D01*
X038648Y019068D01*
Y019003D01*
X038582Y018937D01*
X038451D01*
X038386Y019003D01*
X035892Y010761D02*
X035827Y010827D01*
X035696D01*
X035630Y010761D01*
Y010499D01*
X035696Y010433D01*
X035827D01*
X035892Y010499D01*
X036286Y010827D02*
X036155Y010761D01*
X036023Y010630D01*
Y010499D01*
X036089Y010433D01*
X036220D01*
X036286Y010499D01*
Y010564D01*
X036220Y010630D01*
X036023D01*
X036614Y010433D02*
Y010827D01*
X036417Y010630D01*
X036679D01*
X045221Y022645D02*
Y022738D01*
X045128Y022830D01*
X045035D01*
X044850Y022645D01*
Y022552D01*
X044942Y022459D01*
X045035D01*
X045545Y022413D02*
X045406Y022459D01*
X045221D01*
X045128Y022367D01*
Y022274D01*
X045221Y022181D01*
X045313D01*
X045360Y022227D01*
X045360Y022320D01*
X045221Y022459D01*
X045592Y022274D02*
X045684D01*
X045777Y022181D01*
X045777Y022088D01*
X045731Y022042D01*
X045638D01*
X045638Y021949D01*
X045592Y021903D01*
X045499Y021903D01*
X045406Y021995D01*
Y022088D01*
X045453Y022135D01*
X045545D01*
Y022227D01*
X045592Y022274D01*
X045545Y022135D02*
X045638Y022042D01*
X018533Y039051D02*
X018467Y039116D01*
X018336D01*
X018271Y039051D01*
Y038788D01*
X018336Y038723D01*
X018467D01*
X018533Y038788D01*
X018664Y039116D02*
X018927D01*
Y039051D01*
X018664Y038788D01*
Y038723D01*
X019058Y039051D02*
X019123Y039116D01*
X019254D01*
X019320Y039051D01*
Y038788D01*
X019254Y038723D01*
X019123D01*
X019058Y038788D01*
Y039051D01*
X021906Y040682D02*
X021840Y040748D01*
X021709D01*
X021644Y040682D01*
Y040420D01*
X021709Y040354D01*
X021840D01*
X021906Y040420D01*
X022037Y040748D02*
X022300D01*
Y040682D01*
X022037Y040420D01*
Y040354D01*
X022431D02*
X022562D01*
X022496D01*
Y040748D01*
X022431Y040682D01*
X020636Y023163D02*
X020571Y023228D01*
X020440D01*
X020374Y023163D01*
Y022900D01*
X020440Y022835D01*
X020571D01*
X020636Y022900D01*
X020768Y023163D02*
X020833Y023228D01*
X020964D01*
X021030Y023163D01*
Y023097D01*
X020964Y023031D01*
X021030Y022966D01*
Y022900D01*
X020964Y022835D01*
X020833D01*
X020768Y022900D01*
Y022966D01*
X020833Y023031D01*
X020768Y023097D01*
Y023163D01*
X020833Y023031D02*
X020964D01*
X021161Y022900D02*
X021227Y022835D01*
X021358D01*
X021424Y022900D01*
Y023163D01*
X021358Y023228D01*
X021227D01*
X021161Y023163D01*
Y023097D01*
X021227Y023031D01*
X021424D01*
X038156Y023172D02*
X038090Y023238D01*
X037959D01*
X037894Y023172D01*
Y022910D01*
X037959Y022844D01*
X038090D01*
X038156Y022910D01*
X038287D02*
X038353Y022844D01*
X038484D01*
X038550Y022910D01*
Y023172D01*
X038484Y023238D01*
X038353D01*
X038287Y023172D01*
Y023107D01*
X038353Y023041D01*
X038550D01*
X038943Y023238D02*
X038681D01*
Y023041D01*
X038812Y023107D01*
X038878D01*
X038943Y023041D01*
Y022910D01*
X038878Y022844D01*
X038746D01*
X038681Y022910D01*
X037615Y034974D02*
X037549Y035039D01*
X037418D01*
X037352Y034974D01*
Y034711D01*
X037418Y034646D01*
X037549D01*
X037615Y034711D01*
X037746D02*
X037812Y034646D01*
X037943D01*
X038008Y034711D01*
Y034974D01*
X037943Y035039D01*
X037812D01*
X037746Y034974D01*
Y034908D01*
X037812Y034842D01*
X038008D01*
X038140Y034711D02*
X038205Y034646D01*
X038336D01*
X038402Y034711D01*
Y034974D01*
X038336Y035039D01*
X038205D01*
X038140Y034974D01*
Y034908D01*
X038205Y034842D01*
X038402D01*
X020400Y035850D02*
X020335Y035915D01*
X020203D01*
X020138Y035850D01*
Y035587D01*
X020203Y035522D01*
X020335D01*
X020400Y035587D01*
X020531Y035522D02*
X020663D01*
X020597D01*
Y035915D01*
X020531Y035850D01*
X020859D02*
X020925Y035915D01*
X021056D01*
X021122Y035850D01*
Y035587D01*
X021056Y035522D01*
X020925D01*
X020859Y035587D01*
Y035850D01*
X021253D02*
X021319Y035915D01*
X021450D01*
X021515Y035850D01*
Y035784D01*
X021450Y035718D01*
X021384D01*
X021450D01*
X021515Y035653D01*
Y035587D01*
X021450Y035522D01*
X021319D01*
X021253Y035587D01*
X018504Y032775D02*
Y032382D01*
X018701D01*
X018766Y032447D01*
Y032710D01*
X018701Y032775D01*
X018504D01*
X019160Y032382D02*
X018898D01*
X019160Y032644D01*
Y032710D01*
X019094Y032775D01*
X018963D01*
X018898Y032710D01*
X018504Y028937D02*
Y028543D01*
X018701D01*
X018766Y028609D01*
Y028871D01*
X018701Y028937D01*
X018504D01*
X018898Y028871D02*
X018963Y028937D01*
X019094D01*
X019160Y028871D01*
Y028806D01*
X019094Y028740D01*
X019029D01*
X019094D01*
X019160Y028674D01*
Y028609D01*
X019094Y028543D01*
X018963D01*
X018898Y028609D01*
X018406Y025590D02*
Y025197D01*
X018602D01*
X018668Y025262D01*
Y025525D01*
X018602Y025590D01*
X018406D01*
X018996Y025197D02*
Y025590D01*
X018799Y025394D01*
X019061D01*
X026476Y041358D02*
Y041752D01*
X026280D01*
X026214Y041686D01*
Y041424D01*
X026280Y041358D01*
X026476D01*
X025820D02*
X026083D01*
Y041555D01*
X025952Y041490D01*
X025886D01*
X025820Y041555D01*
Y041686D01*
X025886Y041752D01*
X026017D01*
X026083Y041686D01*
X024902Y041358D02*
Y041752D01*
X024705D01*
X024639Y041686D01*
Y041424D01*
X024705Y041358D01*
X024902D01*
X024246D02*
X024377Y041424D01*
X024508Y041555D01*
Y041686D01*
X024442Y041752D01*
X024311D01*
X024246Y041686D01*
Y041621D01*
X024311Y041555D01*
X024508D01*
X043543Y045788D02*
Y046181D01*
X043347D01*
X043281Y046116D01*
Y045853D01*
X043347Y045788D01*
X043543D01*
X043150Y046116D02*
X043084Y046181D01*
X042953D01*
X042887Y046116D01*
Y045853D01*
X042953Y045788D01*
X043084D01*
X043150Y045853D01*
Y045919D01*
X043084Y045984D01*
X042887D01*
X017520Y014567D02*
Y014173D01*
X017716D01*
X017782Y014239D01*
Y014501D01*
X017716Y014567D01*
X017520D01*
X017913Y014173D02*
X018044D01*
X017979D01*
Y014567D01*
X017913Y014501D01*
X018241Y014567D02*
X018504D01*
Y014501D01*
X018241Y014239D01*
Y014173D01*
X020276Y014567D02*
Y014173D01*
X020472D01*
X020538Y014239D01*
Y014501D01*
X020472Y014567D01*
X020276D01*
X020669Y014173D02*
X020800D01*
X020735D01*
Y014567D01*
X020669Y014501D01*
X020997D02*
X021063Y014567D01*
X021194D01*
X021260Y014501D01*
Y014436D01*
X021194Y014370D01*
X021260Y014304D01*
Y014239D01*
X021194Y014173D01*
X021063D01*
X020997Y014239D01*
Y014304D01*
X021063Y014370D01*
X020997Y014436D01*
Y014501D01*
X021063Y014370D02*
X021194D01*
X050118Y019631D02*
Y019238D01*
X050314D01*
X050380Y019303D01*
Y019566D01*
X050314Y019631D01*
X050118D01*
X050774Y019238D02*
X050511D01*
X050774Y019500D01*
Y019566D01*
X050708Y019631D01*
X050577D01*
X050511Y019566D01*
X050905D02*
X050970Y019631D01*
X051102D01*
X051167Y019566D01*
Y019500D01*
X051102Y019435D01*
X051036D01*
X051102D01*
X051167Y019369D01*
Y019303D01*
X051102Y019238D01*
X050970D01*
X050905Y019303D01*
X052067Y010630D02*
Y010236D01*
X052264D01*
X052329Y010302D01*
Y010564D01*
X052264Y010630D01*
X052067D01*
X052723Y010236D02*
X052460D01*
X052723Y010499D01*
Y010564D01*
X052657Y010630D01*
X052526D01*
X052460Y010564D01*
X053051Y010236D02*
Y010630D01*
X052854Y010433D01*
X053116D01*
X021916Y046850D02*
X021785D01*
X021850D01*
Y046522D01*
X021785Y046457D01*
X021719D01*
X021654Y046522D01*
X022244Y046457D02*
Y046850D01*
X022047Y046653D01*
X022310D01*
X014928Y020177D02*
X014797D01*
X014862D01*
Y019849D01*
X014797Y019783D01*
X014731D01*
X014665Y019849D01*
X015321Y020177D02*
X015190Y020111D01*
X015059Y019980D01*
Y019849D01*
X015125Y019783D01*
X015256D01*
X015321Y019849D01*
Y019915D01*
X015256Y019980D01*
X015059D01*
X047989Y015964D02*
X047858D01*
X047923D01*
Y015636D01*
X047858Y015571D01*
X047792D01*
X047726Y015636D01*
X048120Y015964D02*
X048382D01*
Y015899D01*
X048120Y015636D01*
Y015571D01*
X024232Y018701D02*
Y018307D01*
X024495D01*
X024626D02*
X024757D01*
X024691D01*
Y018701D01*
X024626Y018635D01*
X038189Y016240D02*
Y015846D01*
X038451D01*
X038845D02*
X038583D01*
X038845Y016109D01*
Y016174D01*
X038779Y016240D01*
X038648D01*
X038583Y016174D01*
X039387Y023211D02*
X039665Y022933D01*
X039851Y023119D01*
X039712Y023443D02*
Y023536D01*
X039804Y023629D01*
X039897Y023629D01*
X039944Y023582D01*
Y023490D01*
X039897Y023443D01*
X039944Y023490D01*
X040036Y023490D01*
X040083Y023443D01*
Y023351D01*
X039990Y023258D01*
X039897D01*
X016975Y031988D02*
Y032382D01*
X017171D01*
X017237Y032316D01*
Y032185D01*
X017171Y032119D01*
X016975D01*
X017106D02*
X017237Y031988D01*
X017368D02*
X017499D01*
X017434D01*
Y032382D01*
X017368Y032316D01*
X017959Y032382D02*
X017827Y032316D01*
X017696Y032185D01*
Y032054D01*
X017762Y031988D01*
X017893D01*
X017959Y032054D01*
Y032119D01*
X017893Y032185D01*
X017696D01*
X016929Y028445D02*
Y028838D01*
X017126D01*
X017192Y028773D01*
Y028642D01*
X017126Y028576D01*
X016929D01*
X017060D02*
X017192Y028445D01*
X017323D02*
X017454D01*
X017388D01*
Y028838D01*
X017323Y028773D01*
X017651Y028510D02*
X017716Y028445D01*
X017847D01*
X017913Y028510D01*
Y028773D01*
X017847Y028838D01*
X017716D01*
X017651Y028773D01*
Y028707D01*
X017716Y028642D01*
X017913D01*
X016929Y025098D02*
Y025492D01*
X017126D01*
X017192Y025426D01*
Y025295D01*
X017126Y025230D01*
X016929D01*
X017060D02*
X017192Y025098D01*
X017585D02*
X017323D01*
X017585Y025361D01*
Y025426D01*
X017519Y025492D01*
X017388D01*
X017323Y025426D01*
X017979Y025098D02*
X017716D01*
X017979Y025361D01*
Y025426D01*
X017913Y025492D01*
X017782D01*
X017716Y025426D01*
X016339Y018504D02*
Y018898D01*
X016535D01*
X016601Y018832D01*
Y018701D01*
X016535Y018635D01*
X016339D01*
X016470D02*
X016601Y018504D01*
X016995D02*
X016732D01*
X016995Y018766D01*
Y018832D01*
X016929Y018898D01*
X016798D01*
X016732Y018832D01*
X017126Y018898D02*
X017388D01*
Y018832D01*
X017126Y018570D01*
Y018504D01*
X017323Y016339D02*
Y016732D01*
X017520D01*
X017585Y016667D01*
Y016535D01*
X017520Y016470D01*
X017323D01*
X017454D02*
X017585Y016339D01*
X017979D02*
X017716D01*
X017979Y016601D01*
Y016667D01*
X017913Y016732D01*
X017782D01*
X017716Y016667D01*
X018110D02*
X018176Y016732D01*
X018307D01*
X018372Y016667D01*
Y016601D01*
X018307Y016535D01*
X018372Y016470D01*
Y016404D01*
X018307Y016339D01*
X018176D01*
X018110Y016404D01*
Y016470D01*
X018176Y016535D01*
X018110Y016601D01*
Y016667D01*
X018176Y016535D02*
X018307D01*
X033268Y016240D02*
X032874D01*
Y016437D01*
X032940Y016503D01*
X033071D01*
X033137Y016437D01*
Y016240D01*
Y016371D02*
X033268Y016503D01*
Y016896D02*
Y016634D01*
X033005Y016896D01*
X032940D01*
X032874Y016831D01*
Y016699D01*
X032940Y016634D01*
X033202Y017027D02*
X033268Y017093D01*
Y017224D01*
X033202Y017290D01*
X032940D01*
X032874Y017224D01*
Y017093D01*
X032940Y017027D01*
X033005D01*
X033071Y017093D01*
Y017290D01*
X052067Y014567D02*
Y014961D01*
X052264D01*
X052329Y014895D01*
Y014764D01*
X052264Y014698D01*
X052067D01*
X052198D02*
X052329Y014567D01*
X052460Y014895D02*
X052526Y014961D01*
X052657D01*
X052723Y014895D01*
Y014829D01*
X052657Y014764D01*
X052592D01*
X052657D01*
X052723Y014698D01*
Y014633D01*
X052657Y014567D01*
X052526D01*
X052460Y014633D01*
X052854Y014895D02*
X052920Y014961D01*
X053051D01*
X053116Y014895D01*
Y014633D01*
X053051Y014567D01*
X052920D01*
X052854Y014633D01*
Y014895D01*
X033957Y016240D02*
X033563D01*
Y016437D01*
X033629Y016503D01*
X033760D01*
X033826Y016437D01*
Y016240D01*
Y016371D02*
X033957Y016503D01*
X033629Y016634D02*
X033563Y016699D01*
Y016831D01*
X033629Y016896D01*
X033694D01*
X033760Y016831D01*
Y016765D01*
Y016831D01*
X033826Y016896D01*
X033891D01*
X033957Y016831D01*
Y016699D01*
X033891Y016634D01*
X033957Y017027D02*
Y017158D01*
Y017093D01*
X033563D01*
X033629Y017027D01*
X033465Y018898D02*
Y019291D01*
X033661D01*
X033727Y019226D01*
Y019094D01*
X033661Y019029D01*
X033465D01*
X033596D02*
X033727Y018898D01*
X033858Y019226D02*
X033924Y019291D01*
X034055D01*
X034121Y019226D01*
Y019160D01*
X034055Y019094D01*
X033989D01*
X034055D01*
X034121Y019029D01*
Y018963D01*
X034055Y018898D01*
X033924D01*
X033858Y018963D01*
X034514Y018898D02*
X034252D01*
X034514Y019160D01*
Y019226D01*
X034448Y019291D01*
X034317D01*
X034252Y019226D01*
X037598Y019685D02*
Y020079D01*
X037795D01*
X037861Y020013D01*
Y019882D01*
X037795Y019816D01*
X037598D01*
X037730D02*
X037861Y019685D01*
X037992Y020013D02*
X038058Y020079D01*
X038189D01*
X038254Y020013D01*
Y019947D01*
X038189Y019882D01*
X038123D01*
X038189D01*
X038254Y019816D01*
Y019751D01*
X038189Y019685D01*
X038058D01*
X037992Y019751D01*
X038582Y019685D02*
Y020079D01*
X038386Y019882D01*
X038648D01*
X037638Y020433D02*
Y020827D01*
X037835D01*
X037900Y020761D01*
Y020630D01*
X037835Y020564D01*
X037638D01*
X037769D02*
X037900Y020433D01*
X038031Y020761D02*
X038097Y020827D01*
X038228D01*
X038294Y020761D01*
Y020695D01*
X038228Y020630D01*
X038163D01*
X038228D01*
X038294Y020564D01*
Y020499D01*
X038228Y020433D01*
X038097D01*
X038031Y020499D01*
X038687Y020827D02*
X038425D01*
Y020630D01*
X038556Y020695D01*
X038622D01*
X038687Y020630D01*
Y020499D01*
X038622Y020433D01*
X038491D01*
X038425Y020499D01*
X044213Y022008D02*
X044491Y022286D01*
X044630Y022147D01*
Y022054D01*
X044537Y021961D01*
X044445D01*
X044305Y022101D01*
X044398Y022008D02*
Y021822D01*
X044723Y021961D02*
X044816D01*
X044908Y021869D01*
X044908Y021776D01*
X044862Y021730D01*
X044769D01*
X044723Y021776D01*
X044769Y021730D01*
X044769Y021637D01*
X044723Y021590D01*
X044630D01*
X044537Y021683D01*
Y021776D01*
X045233Y021544D02*
X045094Y021590D01*
X044908D01*
X044816Y021498D01*
Y021405D01*
X044908Y021312D01*
X045001Y021312D01*
X045047Y021359D01*
X045047Y021451D01*
X044908Y021590D01*
X045394Y023150D02*
X045672Y023428D01*
X045811Y023289D01*
Y023196D01*
X045718Y023103D01*
X045626D01*
X045486Y023242D01*
X045579Y023150D02*
Y022964D01*
X045904Y023103D02*
X045997D01*
X046089Y023010D01*
X046089Y022918D01*
X046043Y022871D01*
X045950D01*
X045904Y022918D01*
X045950Y022871D01*
X045950Y022779D01*
X045904Y022732D01*
X045811D01*
X045718Y022825D01*
Y022918D01*
X046229Y022871D02*
X046414Y022686D01*
X046368Y022639D01*
X045997D01*
X045950Y022593D01*
X020866Y032579D02*
Y032972D01*
X021063D01*
X021129Y032907D01*
Y032776D01*
X021063Y032710D01*
X020866D01*
X020997D02*
X021129Y032579D01*
X021456D02*
Y032972D01*
X021260Y032776D01*
X021522D01*
X021653Y032579D02*
X021784D01*
X021719D01*
Y032972D01*
X021653Y032907D01*
X036890Y030935D02*
Y031329D01*
X037087D01*
X037152Y031263D01*
Y031132D01*
X037087Y031066D01*
X036890D01*
X037021D02*
X037152Y030935D01*
X037480D02*
Y031329D01*
X037283Y031132D01*
X037546D01*
X037939Y030935D02*
X037677D01*
X037939Y031197D01*
Y031263D01*
X037874Y031329D01*
X037743D01*
X037677Y031263D01*
X020472Y029941D02*
Y030335D01*
X020669D01*
X020735Y030269D01*
Y030138D01*
X020669Y030072D01*
X020472D01*
X020604D02*
X020735Y029941D01*
X021063D02*
Y030335D01*
X020866Y030138D01*
X021128D01*
X021260Y030269D02*
X021325Y030335D01*
X021456D01*
X021522Y030269D01*
Y030203D01*
X021456Y030138D01*
X021391D01*
X021456D01*
X021522Y030072D01*
Y030007D01*
X021456Y029941D01*
X021325D01*
X021260Y030007D01*
X016079Y035367D02*
X016014Y035433D01*
X015883D01*
X015817Y035367D01*
Y035302D01*
X015883Y035236D01*
X016014D01*
X016079Y035171D01*
Y035105D01*
X016014Y035039D01*
X015883D01*
X015817Y035105D01*
X016211Y035039D02*
X016342D01*
X016276D01*
Y035433D01*
X016211Y035367D01*
X015814Y022769D02*
X015748Y022835D01*
X015617D01*
X015551Y022769D01*
Y022703D01*
X015617Y022638D01*
X015748D01*
X015814Y022572D01*
Y022507D01*
X015748Y022441D01*
X015617D01*
X015551Y022507D01*
X016207Y022441D02*
X015945D01*
X016207Y022703D01*
Y022769D01*
X016142Y022835D01*
X016010D01*
X015945Y022769D01*
X019291Y021457D02*
Y021129D01*
X019357Y021063D01*
X019488D01*
X019554Y021129D01*
Y021457D01*
X019685Y021391D02*
X019751Y021457D01*
X019882D01*
X019947Y021391D01*
Y021325D01*
X019882Y021260D01*
X019816D01*
X019882D01*
X019947Y021194D01*
Y021129D01*
X019882Y021063D01*
X019751D01*
X019685Y021129D01*
X028858Y018543D02*
Y018215D01*
X028924Y018150D01*
X029055D01*
X029121Y018215D01*
Y018543D01*
X029449Y018150D02*
Y018543D01*
X029252Y018346D01*
X029514D01*
X041575Y015827D02*
Y015499D01*
X041640Y015433D01*
X041772D01*
X041837Y015499D01*
Y015827D01*
X042231D02*
X041968D01*
Y015630D01*
X042100Y015695D01*
X042165D01*
X042231Y015630D01*
Y015499D01*
X042165Y015433D01*
X042034D01*
X041968Y015499D01*
X043465Y017362D02*
Y017034D01*
X043530Y016968D01*
X043661D01*
X043727Y017034D01*
Y017362D01*
X044121D02*
X043989Y017296D01*
X043858Y017165D01*
Y017034D01*
X043924Y016968D01*
X044055D01*
X044121Y017034D01*
Y017100D01*
X044055Y017165D01*
X043858D01*
X014272Y045669D02*
Y045341D01*
X014337Y045276D01*
X014468D01*
X014534Y045341D01*
Y045669D01*
X014665Y045604D02*
X014731Y045669D01*
X014862D01*
X014928Y045604D01*
Y045538D01*
X014862Y045472D01*
X014928Y045407D01*
Y045341D01*
X014862Y045276D01*
X014731D01*
X014665Y045341D01*
Y045407D01*
X014731Y045472D01*
X014665Y045538D01*
Y045604D01*
X014731Y045472D02*
X014862D01*
X027034Y011220D02*
X026903D01*
X026968D01*
Y010892D01*
X026903Y010827D01*
X026837D01*
X026772Y010892D01*
X027165Y011155D02*
X027231Y011220D01*
X027362D01*
X027428Y011155D01*
Y011089D01*
X027362Y011024D01*
X027428Y010958D01*
Y010892D01*
X027362Y010827D01*
X027231D01*
X027165Y010892D01*
Y010958D01*
X027231Y011024D01*
X027165Y011089D01*
Y011155D01*
X027231Y011024D02*
X027362D01*
X045098Y045788D02*
Y046181D01*
X044902D01*
X044836Y046116D01*
Y045853D01*
X044902Y045788D01*
X045098D01*
X044705Y046181D02*
X044574D01*
X044639D01*
Y045788D01*
X044705Y045853D01*
X044114Y046181D02*
X044377D01*
X044114Y045919D01*
Y045853D01*
X044180Y045788D01*
X044311D01*
X044377Y045853D01*
X046654Y045788D02*
Y046181D01*
X046457D01*
X046391Y046116D01*
Y045853D01*
X046457Y045788D01*
X046654D01*
X046260Y046181D02*
X046129D01*
X046194D01*
Y045788D01*
X046260Y045853D01*
X045735Y046181D02*
Y045788D01*
X045932Y045984D01*
X045670D01*
X048110Y045788D02*
Y046181D01*
X047913D01*
X047848Y046116D01*
Y045853D01*
X047913Y045788D01*
X048110D01*
X047717Y046181D02*
X047585D01*
X047651D01*
Y045788D01*
X047717Y045853D01*
X047126Y045788D02*
X047257Y045853D01*
X047389Y045984D01*
Y046116D01*
X047323Y046181D01*
X047192D01*
X047126Y046116D01*
Y046050D01*
X047192Y045984D01*
X047389D01*
X049665Y045788D02*
Y046181D01*
X049469D01*
X049403Y046116D01*
Y045853D01*
X049469Y045788D01*
X049665D01*
X049009Y046181D02*
X049272D01*
X049009Y045919D01*
Y045853D01*
X049075Y045788D01*
X049206D01*
X049272Y045853D01*
X048878D02*
X048813Y045788D01*
X048681D01*
X048616Y045853D01*
Y046116D01*
X048681Y046181D01*
X048813D01*
X048878Y046116D01*
Y045853D01*
X051024Y045788D02*
Y046181D01*
X050827D01*
X050761Y046116D01*
Y045853D01*
X050827Y045788D01*
X051024D01*
X050368Y046181D02*
X050630D01*
X050368Y045919D01*
Y045853D01*
X050433Y045788D01*
X050564D01*
X050630Y045853D01*
X049974Y046181D02*
X050236D01*
X049974Y045919D01*
Y045853D01*
X050040Y045788D01*
X050171D01*
X050236Y045853D01*
X035276Y041850D02*
Y041982D01*
Y041916D01*
X035669D01*
Y041850D01*
Y041982D01*
X035276Y042375D02*
Y042244D01*
X035341Y042178D01*
X035604D01*
X035669Y042244D01*
Y042375D01*
X035604Y042441D01*
X035341D01*
X035276Y042375D01*
X035669Y042572D02*
Y042703D01*
Y042638D01*
X035276D01*
X035341Y042572D01*
X035669Y042900D02*
Y043031D01*
Y042966D01*
X035276D01*
X035341Y042900D01*
X036260Y041850D02*
Y041982D01*
Y041916D01*
X036654D01*
Y041850D01*
Y041982D01*
X036260Y042375D02*
Y042244D01*
X036326Y042178D01*
X036588D01*
X036654Y042244D01*
Y042375D01*
X036588Y042441D01*
X036326D01*
X036260Y042375D01*
X036654Y042572D02*
Y042703D01*
Y042638D01*
X036260D01*
X036326Y042572D01*
Y042900D02*
X036260Y042966D01*
Y043097D01*
X036326Y043162D01*
X036588D01*
X036654Y043097D01*
Y042966D01*
X036588Y042900D01*
X036326D01*
X037323Y041850D02*
Y041982D01*
Y041916D01*
X037717D01*
Y041850D01*
Y041982D01*
X037323Y042375D02*
Y042244D01*
X037389Y042178D01*
X037651D01*
X037717Y042244D01*
Y042375D01*
X037651Y042441D01*
X037389D01*
X037323Y042375D01*
X037651Y042572D02*
X037717Y042638D01*
Y042769D01*
X037651Y042834D01*
X037389D01*
X037323Y042769D01*
Y042638D01*
X037389Y042572D01*
X037454D01*
X037520Y042638D01*
Y042834D01*
X038307Y041850D02*
Y041982D01*
Y041916D01*
X038701D01*
Y041850D01*
Y041982D01*
X038307Y042375D02*
Y042244D01*
X038373Y042178D01*
X038635D01*
X038701Y042244D01*
Y042375D01*
X038635Y042441D01*
X038373D01*
X038307Y042375D01*
X038373Y042572D02*
X038307Y042638D01*
Y042769D01*
X038373Y042834D01*
X038438D01*
X038504Y042769D01*
X038570Y042834D01*
X038635D01*
X038701Y042769D01*
Y042638D01*
X038635Y042572D01*
X038570D01*
X038504Y042638D01*
X038438Y042572D01*
X038373D01*
X038504Y042638D02*
Y042769D01*
X039252Y041850D02*
Y041982D01*
Y041916D01*
X039646D01*
Y041850D01*
Y041982D01*
X039252Y042375D02*
Y042244D01*
X039318Y042178D01*
X039580D01*
X039646Y042244D01*
Y042375D01*
X039580Y042441D01*
X039318D01*
X039252Y042375D01*
Y042572D02*
Y042834D01*
X039318D01*
X039580Y042572D01*
X039646D01*
X040276Y041850D02*
Y041982D01*
Y041916D01*
X040669D01*
Y041850D01*
Y041982D01*
X040276Y042375D02*
Y042244D01*
X040341Y042178D01*
X040604D01*
X040669Y042244D01*
Y042375D01*
X040604Y042441D01*
X040341D01*
X040276Y042375D01*
Y042834D02*
X040341Y042703D01*
X040472Y042572D01*
X040604D01*
X040669Y042638D01*
Y042769D01*
X040604Y042834D01*
X040538D01*
X040472Y042769D01*
Y042572D01*
X032615Y043104D02*
X032549Y043169D01*
X032418D01*
X032352Y043104D01*
Y042841D01*
X032418Y042776D01*
X032549D01*
X032615Y042841D01*
Y042972D01*
X032484D01*
X032746Y042776D02*
Y043169D01*
X033008Y042776D01*
Y043169D01*
X033140D02*
Y042776D01*
X033336D01*
X033402Y042841D01*
Y043104D01*
X033336Y043169D01*
X033140D01*
X040238Y045789D02*
Y045920D01*
Y045855D01*
X040632D01*
Y045789D01*
Y045920D01*
X040238Y046314D02*
Y046183D01*
X040304Y046117D01*
X040566D01*
X040632Y046183D01*
Y046314D01*
X040566Y046380D01*
X040304D01*
X040238Y046314D01*
X040304Y046511D02*
X040238Y046576D01*
Y046708D01*
X040304Y046773D01*
X040566D01*
X040632Y046708D01*
Y046576D01*
X040566Y046511D01*
X040304D01*
X039252Y045787D02*
Y045919D01*
Y045853D01*
X039646D01*
Y045787D01*
Y045919D01*
X039252Y046312D02*
Y046181D01*
X039318Y046115D01*
X039580D01*
X039646Y046181D01*
Y046312D01*
X039580Y046378D01*
X039318D01*
X039252Y046312D01*
X039646Y046509D02*
Y046640D01*
Y046575D01*
X039252D01*
X039318Y046509D01*
X038268Y045787D02*
Y045919D01*
Y045853D01*
X038661D01*
Y045787D01*
Y045919D01*
X038268Y046312D02*
Y046181D01*
X038333Y046115D01*
X038596D01*
X038661Y046181D01*
Y046312D01*
X038596Y046378D01*
X038333D01*
X038268Y046312D01*
X038661Y046771D02*
Y046509D01*
X038399Y046771D01*
X038333D01*
X038268Y046706D01*
Y046575D01*
X038333Y046509D01*
X037284Y045787D02*
Y045919D01*
Y045853D01*
X037677D01*
Y045787D01*
Y045919D01*
X037284Y046312D02*
Y046181D01*
X037349Y046115D01*
X037612D01*
X037677Y046181D01*
Y046312D01*
X037612Y046378D01*
X037349D01*
X037284Y046312D01*
X037349Y046509D02*
X037284Y046575D01*
Y046706D01*
X037349Y046771D01*
X037415D01*
X037480Y046706D01*
Y046640D01*
Y046706D01*
X037546Y046771D01*
X037612D01*
X037677Y046706D01*
Y046575D01*
X037612Y046509D01*
X036221Y045787D02*
Y045919D01*
Y045853D01*
X036614D01*
Y045787D01*
Y045919D01*
X036221Y046312D02*
Y046181D01*
X036286Y046115D01*
X036549D01*
X036614Y046181D01*
Y046312D01*
X036549Y046378D01*
X036286D01*
X036221Y046312D01*
X036614Y046706D02*
X036221D01*
X036417Y046509D01*
Y046771D01*
X035236Y045787D02*
Y045919D01*
Y045853D01*
X035630D01*
Y045787D01*
Y045919D01*
X035236Y046312D02*
Y046181D01*
X035302Y046115D01*
X035564D01*
X035630Y046181D01*
Y046312D01*
X035564Y046378D01*
X035302D01*
X035236Y046312D01*
Y046771D02*
Y046509D01*
X035433D01*
X035368Y046640D01*
Y046706D01*
X035433Y046771D01*
X035564D01*
X035630Y046706D01*
Y046575D01*
X035564Y046509D01*
X032116Y046096D02*
X032182Y046161D01*
X032313D01*
X032379Y046096D01*
Y046030D01*
X032313Y045964D01*
X032247D01*
X032313D01*
X032379Y045899D01*
Y045833D01*
X032313Y045768D01*
X032182D01*
X032116Y045833D01*
X032510Y045768D02*
Y045833D01*
X032575D01*
Y045768D01*
X032510D01*
X032838Y046096D02*
X032903Y046161D01*
X033034D01*
X033100Y046096D01*
Y046030D01*
X033034Y045964D01*
X032969D01*
X033034D01*
X033100Y045899D01*
Y045833D01*
X033034Y045768D01*
X032903D01*
X032838Y045833D01*
X033231Y046161D02*
Y045899D01*
X033362Y045768D01*
X033494Y045899D01*
Y046161D01*
X046788Y010482D02*
X046526D01*
Y010285D01*
X046657Y010351D01*
X046722D01*
X046788Y010285D01*
Y010154D01*
X046722Y010089D01*
X046591D01*
X046526Y010154D01*
X046919Y010482D02*
Y010220D01*
X047050Y010089D01*
X047182Y010220D01*
Y010482D01*
X029036Y013353D02*
Y013091D01*
X029232D01*
X029167Y013222D01*
Y013287D01*
X029232Y013353D01*
X029364D01*
X029429Y013287D01*
Y013156D01*
X029364Y013091D01*
X029036Y013484D02*
X029298D01*
X029429Y013615D01*
X029298Y013747D01*
X029036D01*
X028346Y013353D02*
Y013091D01*
X028084Y013353D01*
X028018D01*
X027953Y013287D01*
Y013156D01*
X028018Y013091D01*
X028346Y013484D02*
X028281D01*
Y013550D01*
X028346D01*
Y013484D01*
X027953Y014074D02*
Y013812D01*
X028150D01*
X028084Y013943D01*
Y014009D01*
X028150Y014074D01*
X028281D01*
X028346Y014009D01*
Y013878D01*
X028281Y013812D01*
X027953Y014206D02*
X028215D01*
X028346Y014337D01*
X028215Y014468D01*
X027953D01*
X030020Y013353D02*
Y013091D01*
X030217D01*
X030151Y013222D01*
Y013287D01*
X030217Y013353D01*
X030348D01*
X030413Y013287D01*
Y013156D01*
X030348Y013091D01*
X030020Y013484D02*
X030282D01*
X030413Y013615D01*
X030282Y013747D01*
X030020D01*
X029003Y010466D02*
X028937Y010531D01*
X028806D01*
X028740Y010466D01*
Y010203D01*
X028806Y010138D01*
X028937D01*
X029003Y010203D01*
Y010335D01*
X028871D01*
X029134Y010138D02*
Y010531D01*
X029396Y010138D01*
Y010531D01*
X029527D02*
Y010138D01*
X029724D01*
X029790Y010203D01*
Y010466D01*
X029724Y010531D01*
X029527D01*
X053018Y041043D02*
X052887Y040978D01*
X052756Y040846D01*
Y040715D01*
X052821Y040650D01*
X052953D01*
X053018Y040715D01*
Y040781D01*
X052953Y040846D01*
X052756D01*
X053149Y040978D02*
X053215Y041043D01*
X053346D01*
X053412Y040978D01*
Y040912D01*
X053346Y040846D01*
X053412Y040781D01*
Y040715D01*
X053346Y040650D01*
X053215D01*
X053149Y040715D01*
Y040781D01*
X053215Y040846D01*
X053149Y040912D01*
Y040978D01*
X053215Y040846D02*
X053346D01*
X053543Y040978D02*
X053609Y041043D01*
X053740D01*
X053805Y040978D01*
Y040715D01*
X053740Y040650D01*
X053609D01*
X053543Y040715D01*
Y040978D01*
X053937D02*
X054002Y041043D01*
X054133D01*
X054199Y040978D01*
Y040715D01*
X054133Y040650D01*
X054002D01*
X053937Y040715D01*
Y040978D01*
X052756Y043045D02*
X052821Y043110D01*
X052953D01*
X053018Y043045D01*
Y042979D01*
X052953Y042913D01*
X053018Y042848D01*
Y042782D01*
X052953Y042717D01*
X052821D01*
X052756Y042782D01*
Y042848D01*
X052821Y042913D01*
X052756Y042979D01*
Y043045D01*
X052821Y042913D02*
X052953D01*
X053149Y043045D02*
X053215Y043110D01*
X053346D01*
X053412Y043045D01*
Y042782D01*
X053346Y042717D01*
X053215D01*
X053149Y042782D01*
Y043045D01*
X053543D02*
X053609Y043110D01*
X053740D01*
X053805Y043045D01*
Y042979D01*
X053740Y042913D01*
X053805Y042848D01*
Y042782D01*
X053740Y042717D01*
X053609D01*
X053543Y042782D01*
Y042848D01*
X053609Y042913D01*
X053543Y042979D01*
Y043045D01*
X053609Y042913D02*
X053740D01*
X053937Y043045D02*
X054002Y043110D01*
X054133D01*
X054199Y043045D01*
Y042782D01*
X054133Y042717D01*
X054002D01*
X053937Y042782D01*
Y043045D01*
D107*
X050313Y022648D02*
G03*
X050313Y022648I-000049J000000D01*
G01*
X045819Y033820D02*
G03*
X045819Y033820I-000049J000000D01*
G01*
X021781Y016722D02*
G03*
X021781Y016722I-000049J000000D01*
G01*
X029152Y017792D02*
G03*
X029152Y017792I-000049J000000D01*
G01*
X044077Y020253D02*
G03*
X044077Y020253I-000049J000000D01*
G01*
X039764Y018031D02*
G03*
X039764Y018031I-000049J000000D01*
G01*
X051738Y027693D02*
G03*
X051738Y027693I-000049J000000D01*
G01*
X015820Y016533D02*
G03*
X015820Y016533I-000049J000000D01*
G01*
X042530Y044400D02*
G03*
X042530Y044400I-000049J000000D01*
G01*
X025443Y040915D02*
G03*
X025443Y040915I-000049J000000D01*
G01*
X027018D02*
G03*
X027018Y040915I-000049J000000D01*
G01*
X043986Y044400D02*
G03*
X043986Y044400I-000049J000000D01*
G01*
X045443Y044400D02*
G03*
X045443Y044400I-000049J000000D01*
G01*
X046900D02*
G03*
X046900Y044400I-000049J000000D01*
G01*
X048356Y044400D02*
G03*
X048356Y044400I-000049J000000D01*
G01*
X049813Y044400D02*
G03*
X049813Y044400I-000049J000000D01*
G01*
D108*
X041613Y036861D02*
X041623D01*
X041443Y036851D02*
X041453D01*
X041613D02*
X041673D01*
X041303Y036841D02*
X041323D01*
X041443D02*
X041473D01*
X041623D02*
X041713D01*
X041303Y036831D02*
X041333D01*
X041453D02*
X041503D01*
X041643D02*
X041743D01*
X041313Y036821D02*
X041353D01*
X041463D02*
X041523D01*
X041663D02*
X041773D01*
X041313Y036811D02*
X041363D01*
X041473D02*
X041543D01*
X041673D02*
X041803D01*
X041323Y036801D02*
X041373D01*
X041483D02*
X041563D01*
X041693D02*
X041823D01*
X041323Y036791D02*
X041393D01*
X041493D02*
X041583D01*
X041713D02*
X041843D01*
X041333Y036781D02*
X041403D01*
X041503D02*
X041603D01*
X041723D02*
X041863D01*
X041343Y036771D02*
X041413D01*
X041513D02*
X041623D01*
X041743D02*
X041883D01*
X041343Y036761D02*
X041423D01*
X041523D02*
X041633D01*
X041753D02*
X041903D01*
X041353Y036751D02*
X041433D01*
X041533D02*
X041653D01*
X041763D02*
X041923D01*
X041353Y036741D02*
X041443D01*
X041543D02*
X041663D01*
X041783D02*
X041933D01*
X041363Y036731D02*
X041453D01*
X041553D02*
X041683D01*
X041793D02*
X041953D01*
X041363Y036721D02*
X041463D01*
X041563D02*
X041693D01*
X041803D02*
X041963D01*
X041363Y036711D02*
X041473D01*
X041573D02*
X041703D01*
X041813D02*
X041983D01*
X041373Y036701D02*
X041483D01*
X041573D02*
X041713D01*
X041823D02*
X041993D01*
X041373Y036691D02*
X041493D01*
X041583D02*
X041733D01*
X041833D02*
X042003D01*
X041383Y036681D02*
X041493D01*
X041593D02*
X041743D01*
X041843D02*
X042013D01*
X041383Y036671D02*
X041503D01*
X041603D02*
X041753D01*
X041853D02*
X042033D01*
X041383Y036661D02*
X041513D01*
X041603D02*
X041763D01*
X041863D02*
X042043D01*
X041393Y036651D02*
X041523D01*
X041613D02*
X041773D01*
X041873D02*
X042053D01*
X041393Y036641D02*
X041523D01*
X041623D02*
X041773D01*
X041883D02*
X042063D01*
X041393Y036631D02*
X041533D01*
X041623D02*
X041783D01*
X041893D02*
X042073D01*
X041403Y036621D02*
X041533D01*
X041633D02*
X041793D01*
X041903D02*
X042073D01*
X041403Y036611D02*
X041543D01*
X041643D02*
X041803D01*
X041903D02*
X042083D01*
X041403Y036601D02*
X041553D01*
X041643D02*
X041813D01*
X041913D02*
X042093D01*
X041403Y036591D02*
X041553D01*
X041653D02*
X041813D01*
X041923D02*
X042103D01*
X041413Y036581D02*
X041563D01*
X041653D02*
X041823D01*
X041933D02*
X042113D01*
X041413Y036571D02*
X041563D01*
X041663D02*
X041833D01*
X041933D02*
X042113D01*
X041413Y036561D02*
X041573D01*
X041663D02*
X041833D01*
X041943D02*
X042123D01*
X041413Y036551D02*
X041573D01*
X041673D02*
X041843D01*
X041943D02*
X042133D01*
X041423Y036541D02*
X041573D01*
X041673D02*
X041853D01*
X041953D02*
X042133D01*
X041423Y036531D02*
X041583D01*
X041683D02*
X041853D01*
X041953D02*
X042143D01*
X041423Y036521D02*
X041583D01*
X041683D02*
X041863D01*
X041963D02*
X042153D01*
X041423Y036511D02*
X041593D01*
X041683D02*
X041863D01*
X041963D02*
X042153D01*
X041423Y036501D02*
X041593D01*
X041693D02*
X041873D01*
X041973D02*
X042163D01*
X041433Y036491D02*
X041593D01*
X041693D02*
X041873D01*
X041973D02*
X042163D01*
X041433Y036481D02*
X041603D01*
X041703D02*
X041883D01*
X041983D02*
X042173D01*
X041433Y036471D02*
X041603D01*
X041703D02*
X041883D01*
X041983D02*
X042173D01*
X041433Y036461D02*
X041603D01*
X041703D02*
X041893D01*
X041993D02*
X042183D01*
X041433Y036451D02*
X041613D01*
X041713D02*
X041893D01*
X041993D02*
X042183D01*
X041433Y036441D02*
X041613D01*
X041713D02*
X041893D01*
X042003D02*
X042193D01*
X041443Y036431D02*
X041613D01*
X041713D02*
X041903D01*
X042003D02*
X042193D01*
X041443Y036421D02*
X041613D01*
X041723D02*
X041903D01*
X042003D02*
X042193D01*
X041443Y036411D02*
X041623D01*
X041723D02*
X041903D01*
X042013D02*
X042203D01*
X041443Y036401D02*
X041623D01*
X041723D02*
X041913D01*
X042013D02*
X042203D01*
X041443Y036391D02*
X041623D01*
X041723D02*
X041913D01*
X042013D02*
X042203D01*
X041443Y036381D02*
X041623D01*
X041733D02*
X041913D01*
X042023D02*
X042213D01*
X041443Y036371D02*
X041633D01*
X041733D02*
X041923D01*
X042023D02*
X042213D01*
X041443Y036361D02*
X041633D01*
X041733D02*
X041923D01*
X042023D02*
X042213D01*
X041443Y036351D02*
X041633D01*
X041733D02*
X041923D01*
X042033D02*
X042223D01*
X041453Y036341D02*
X041633D01*
X041733D02*
X041923D01*
X042033D02*
X042223D01*
X041453Y036331D02*
X041633D01*
X041743D02*
X041933D01*
X042033D02*
X042223D01*
X041453Y036321D02*
X041643D01*
X041743D02*
X041933D01*
X042033D02*
X042223D01*
X041453Y036311D02*
X041643D01*
X041743D02*
X041933D01*
X042033D02*
X042233D01*
X041453Y036301D02*
X041643D01*
X041743D02*
X041933D01*
X042043D02*
X042233D01*
X041453Y036291D02*
X041643D01*
X041743D02*
X041933D01*
X042043D02*
X042233D01*
X041453Y036281D02*
X041643D01*
X041743D02*
X041943D01*
X042043D02*
X042233D01*
X041453Y036271D02*
X041643D01*
X041753D02*
X041943D01*
X042043D02*
X042233D01*
X041453Y036261D02*
X041643D01*
X041753D02*
X041943D01*
X042043D02*
X042243D01*
X041453Y036251D02*
X041643D01*
X041753D02*
X041943D01*
X042043D02*
X042243D01*
X041453Y036241D02*
X041653D01*
X041753D02*
X041943D01*
X042053D02*
X042243D01*
X041453Y036231D02*
X041653D01*
X041753D02*
X041943D01*
X042053D02*
X042243D01*
X041453Y036221D02*
X041653D01*
X041753D02*
X041943D01*
X042053D02*
X042243D01*
X041453Y036211D02*
X041653D01*
X041753D02*
X041953D01*
X042053D02*
X042243D01*
X041463Y036201D02*
X041653D01*
X041753D02*
X041953D01*
X042053D02*
X042243D01*
X041463Y036191D02*
X041653D01*
X041753D02*
X041953D01*
X042053D02*
X042253D01*
X041463Y036181D02*
X041653D01*
X041753D02*
X041953D01*
X042053D02*
X042253D01*
X041463Y036171D02*
X041653D01*
X041763D02*
X041953D01*
X042053D02*
X042253D01*
X041463Y036161D02*
X041653D01*
X041763D02*
X041953D01*
X042053D02*
X042253D01*
X041463Y036151D02*
X041653D01*
X041763D02*
X041953D01*
X042053D02*
X042253D01*
X041463Y036141D02*
X041653D01*
X041763D02*
X041953D01*
X042063D02*
X042253D01*
X041463Y036131D02*
X041653D01*
X041763D02*
X041953D01*
X042063D02*
X042253D01*
X041463Y036121D02*
X041653D01*
X041763D02*
X041953D01*
X042063D02*
X042253D01*
X041463Y036111D02*
X041653D01*
X041763D02*
X041953D01*
X042063D02*
X042253D01*
X041463Y036101D02*
X041653D01*
X041763D02*
X041953D01*
X042063D02*
X042253D01*
X041463Y036091D02*
X041653D01*
X041763D02*
X041953D01*
X042063D02*
X042253D01*
X041463Y036081D02*
X041653D01*
X041763D02*
X041953D01*
X042063D02*
X042253D01*
X041463Y036071D02*
X041653D01*
X041763D02*
X041953D01*
X042063D02*
X042253D01*
X041463Y036061D02*
X041653D01*
X041763D02*
X041953D01*
X042063D02*
X042253D01*
X041463Y036051D02*
X041653D01*
X041763D02*
X041953D01*
X042063D02*
X042253D01*
X041463Y036041D02*
X041653D01*
X041763D02*
X041953D01*
X042063D02*
X042253D01*
X041463Y036031D02*
X041653D01*
X041763D02*
X041953D01*
X042063D02*
X042253D01*
X041463Y036021D02*
X041653D01*
X041763D02*
X041953D01*
X042063D02*
X042253D01*
X041463Y036011D02*
X041653D01*
X041763D02*
X041953D01*
X042063D02*
X042253D01*
X041463Y036001D02*
X041653D01*
X041763D02*
X041953D01*
X042063D02*
X042253D01*
X041463Y035991D02*
X041653D01*
X041763D02*
X041953D01*
X042063D02*
X042253D01*
X041463Y035981D02*
X041653D01*
X041763D02*
X041953D01*
X042063D02*
X042253D01*
X040363Y035971D02*
X040563D01*
X040663D02*
X040863D01*
X040963D02*
X041153D01*
X041463D02*
X041653D01*
X041763D02*
X041953D01*
X042063D02*
X042253D01*
X042563D02*
X042753D01*
X042853D02*
X043053D01*
X043153D02*
X043353D01*
X040363Y035961D02*
X040563D01*
X040663D02*
X040863D01*
X040963D02*
X041153D01*
X041463D02*
X041653D01*
X041763D02*
X041953D01*
X042063D02*
X042253D01*
X042563D02*
X042753D01*
X042853D02*
X043053D01*
X043153D02*
X043353D01*
X040363Y035951D02*
X040563D01*
X040663D02*
X040863D01*
X040963D02*
X041153D01*
X041463D02*
X041653D01*
X041763D02*
X041953D01*
X042063D02*
X042253D01*
X042563D02*
X042753D01*
X042853D02*
X043053D01*
X043153D02*
X043353D01*
X040363Y035941D02*
X040563D01*
X040663D02*
X040863D01*
X040963D02*
X041153D01*
X041463D02*
X041653D01*
X041763D02*
X041953D01*
X042063D02*
X042253D01*
X042563D02*
X042753D01*
X042853D02*
X043053D01*
X043153D02*
X043353D01*
X040363Y035931D02*
X040563D01*
X040663D02*
X040863D01*
X040963D02*
X041153D01*
X041463D02*
X041653D01*
X041763D02*
X041953D01*
X042063D02*
X042253D01*
X042563D02*
X042753D01*
X042853D02*
X043053D01*
X043153D02*
X043353D01*
X040363Y035921D02*
X040563D01*
X040663D02*
X040863D01*
X040963D02*
X041153D01*
X041463D02*
X041653D01*
X041763D02*
X041953D01*
X042063D02*
X042253D01*
X042563D02*
X042753D01*
X042853D02*
X043053D01*
X043153D02*
X043353D01*
X040363Y035911D02*
X040563D01*
X040663D02*
X040863D01*
X040963D02*
X041153D01*
X041463D02*
X041653D01*
X041763D02*
X041953D01*
X042063D02*
X042253D01*
X042563D02*
X042753D01*
X042853D02*
X043053D01*
X043153D02*
X043353D01*
X040363Y035901D02*
X040563D01*
X040663D02*
X040863D01*
X040963D02*
X041153D01*
X041463D02*
X041653D01*
X041763D02*
X041953D01*
X042063D02*
X042253D01*
X042563D02*
X042753D01*
X042853D02*
X043053D01*
X043153D02*
X043353D01*
X040363Y035891D02*
X040563D01*
X040663D02*
X040863D01*
X040963D02*
X041153D01*
X041463D02*
X041653D01*
X041763D02*
X041953D01*
X042063D02*
X042253D01*
X042563D02*
X042753D01*
X042853D02*
X043053D01*
X043153D02*
X043353D01*
X040363Y035881D02*
X040563D01*
X040663D02*
X040863D01*
X040963D02*
X041153D01*
X041463D02*
X041653D01*
X041763D02*
X041953D01*
X042063D02*
X042253D01*
X042563D02*
X042753D01*
X042853D02*
X043053D01*
X043153D02*
X043353D01*
X040363Y035871D02*
X040563D01*
X040663D02*
X040863D01*
X040963D02*
X041153D01*
X041463D02*
X041653D01*
X041763D02*
X041953D01*
X042063D02*
X042253D01*
X042563D02*
X042753D01*
X042853D02*
X043053D01*
X043153D02*
X043353D01*
X040363Y035861D02*
X040563D01*
X040663D02*
X040863D01*
X040963D02*
X041153D01*
X041463D02*
X041653D01*
X041763D02*
X041953D01*
X042063D02*
X042253D01*
X042563D02*
X042753D01*
X042853D02*
X043053D01*
X043153D02*
X043353D01*
X040363Y035851D02*
X040563D01*
X040663D02*
X040863D01*
X040963D02*
X041153D01*
X041463D02*
X041653D01*
X041763D02*
X041953D01*
X042063D02*
X042253D01*
X042563D02*
X042753D01*
X042853D02*
X043053D01*
X043153D02*
X043353D01*
X040363Y035841D02*
X040563D01*
X040663D02*
X040863D01*
X040963D02*
X041153D01*
X041463D02*
X041653D01*
X041763D02*
X041953D01*
X042063D02*
X042253D01*
X042563D02*
X042753D01*
X042853D02*
X043053D01*
X043153D02*
X043353D01*
X040363Y035831D02*
X040563D01*
X040663D02*
X040863D01*
X040963D02*
X041153D01*
X041463D02*
X041653D01*
X041763D02*
X041953D01*
X042063D02*
X042253D01*
X042563D02*
X042753D01*
X042853D02*
X043053D01*
X043153D02*
X043353D01*
X040363Y035821D02*
X040563D01*
X040663D02*
X040863D01*
X040963D02*
X041153D01*
X041463D02*
X041653D01*
X041763D02*
X041953D01*
X042063D02*
X042253D01*
X042563D02*
X042753D01*
X042853D02*
X043053D01*
X043153D02*
X043353D01*
X040363Y035811D02*
X040563D01*
X040663D02*
X040863D01*
X040963D02*
X041153D01*
X041463D02*
X041653D01*
X041763D02*
X041953D01*
X042063D02*
X042253D01*
X042563D02*
X042753D01*
X042853D02*
X043053D01*
X043153D02*
X043353D01*
X040363Y035801D02*
X040563D01*
X040663D02*
X040863D01*
X040963D02*
X041153D01*
X041463D02*
X041653D01*
X041763D02*
X041953D01*
X042063D02*
X042253D01*
X042563D02*
X042753D01*
X042853D02*
X043053D01*
X043153D02*
X043353D01*
X040363Y035791D02*
X040563D01*
X040663D02*
X040863D01*
X040963D02*
X041153D01*
X041463D02*
X041653D01*
X041763D02*
X041953D01*
X042063D02*
X042253D01*
X042563D02*
X042753D01*
X042853D02*
X043053D01*
X043153D02*
X043353D01*
X040363Y035781D02*
X040563D01*
X040663D02*
X040863D01*
X040963D02*
X041153D01*
X041463D02*
X041653D01*
X041763D02*
X041953D01*
X042063D02*
X042253D01*
X042563D02*
X042753D01*
X042853D02*
X043053D01*
X043153D02*
X043353D01*
X040363Y035771D02*
X040563D01*
X040663D02*
X040863D01*
X040963D02*
X041153D01*
X041463D02*
X041653D01*
X041763D02*
X041953D01*
X042063D02*
X042253D01*
X042563D02*
X042753D01*
X042853D02*
X043053D01*
X043153D02*
X043353D01*
X040363Y035761D02*
X040563D01*
X040663D02*
X040863D01*
X040963D02*
X041153D01*
X041463D02*
X041653D01*
X041763D02*
X041953D01*
X042063D02*
X042253D01*
X042563D02*
X042753D01*
X042853D02*
X043053D01*
X043153D02*
X043353D01*
X040363Y035751D02*
X040563D01*
X040663D02*
X040863D01*
X040963D02*
X041153D01*
X041463D02*
X041653D01*
X041763D02*
X041953D01*
X042063D02*
X042253D01*
X042563D02*
X042753D01*
X042853D02*
X043053D01*
X043153D02*
X043353D01*
X040363Y035741D02*
X040563D01*
X040663D02*
X040863D01*
X040963D02*
X041153D01*
X041463D02*
X041653D01*
X041763D02*
X041953D01*
X042063D02*
X042253D01*
X042563D02*
X042753D01*
X042853D02*
X043053D01*
X043153D02*
X043353D01*
X040363Y035731D02*
X040563D01*
X040663D02*
X040863D01*
X040963D02*
X041153D01*
X041463D02*
X041653D01*
X041763D02*
X041953D01*
X042063D02*
X042253D01*
X042563D02*
X042753D01*
X042853D02*
X043053D01*
X043153D02*
X043353D01*
X040363Y035721D02*
X040563D01*
X040663D02*
X040863D01*
X040963D02*
X041153D01*
X041463D02*
X041653D01*
X041763D02*
X041953D01*
X042063D02*
X042253D01*
X042563D02*
X042753D01*
X042853D02*
X043053D01*
X043153D02*
X043353D01*
X040363Y035711D02*
X040563D01*
X040663D02*
X040863D01*
X040963D02*
X041153D01*
X041463D02*
X041653D01*
X041763D02*
X041953D01*
X042063D02*
X042253D01*
X042563D02*
X042753D01*
X042853D02*
X043053D01*
X043153D02*
X043353D01*
X040363Y035701D02*
X040563D01*
X040663D02*
X040863D01*
X040963D02*
X041153D01*
X041463D02*
X041653D01*
X041763D02*
X041953D01*
X042063D02*
X042253D01*
X042563D02*
X042753D01*
X042853D02*
X043053D01*
X043153D02*
X043353D01*
X040363Y035691D02*
X040563D01*
X040663D02*
X040863D01*
X040963D02*
X041153D01*
X041463D02*
X041653D01*
X041763D02*
X041953D01*
X042063D02*
X042253D01*
X042563D02*
X042753D01*
X042853D02*
X043053D01*
X043153D02*
X043353D01*
X040363Y035681D02*
X040563D01*
X040663D02*
X040863D01*
X040963D02*
X041153D01*
X041463D02*
X041653D01*
X041763D02*
X041953D01*
X042063D02*
X042253D01*
X042563D02*
X042753D01*
X042853D02*
X043053D01*
X043153D02*
X043353D01*
X040363Y035671D02*
X040563D01*
X040663D02*
X040863D01*
X040963D02*
X041153D01*
X041463D02*
X041653D01*
X041763D02*
X041953D01*
X042063D02*
X042253D01*
X042563D02*
X042753D01*
X042853D02*
X043053D01*
X043153D02*
X043353D01*
X040363Y035661D02*
X040563D01*
X040663D02*
X040863D01*
X040963D02*
X041153D01*
X041463D02*
X041653D01*
X041763D02*
X041953D01*
X042063D02*
X042253D01*
X042563D02*
X042753D01*
X042853D02*
X043053D01*
X043153D02*
X043353D01*
X040363Y035651D02*
X040563D01*
X040663D02*
X040863D01*
X040963D02*
X041153D01*
X041463D02*
X041653D01*
X041763D02*
X041953D01*
X042063D02*
X042253D01*
X042563D02*
X042753D01*
X042853D02*
X043053D01*
X043153D02*
X043353D01*
X040363Y035641D02*
X040563D01*
X040663D02*
X040863D01*
X040963D02*
X041153D01*
X041463D02*
X041653D01*
X041763D02*
X041953D01*
X042063D02*
X042253D01*
X042563D02*
X042753D01*
X042853D02*
X043053D01*
X043153D02*
X043353D01*
X040363Y035631D02*
X040563D01*
X040663D02*
X040863D01*
X040963D02*
X041153D01*
X041463D02*
X041653D01*
X041763D02*
X041953D01*
X042063D02*
X042253D01*
X042563D02*
X042753D01*
X042853D02*
X043053D01*
X043153D02*
X043353D01*
X040363Y035621D02*
X040563D01*
X040663D02*
X040863D01*
X040963D02*
X041153D01*
X041463D02*
X041653D01*
X041763D02*
X041953D01*
X042063D02*
X042253D01*
X042563D02*
X042753D01*
X042853D02*
X043053D01*
X043153D02*
X043353D01*
X040363Y035611D02*
X040563D01*
X040663D02*
X040863D01*
X040963D02*
X041153D01*
X041463D02*
X041653D01*
X041763D02*
X041953D01*
X042063D02*
X042253D01*
X042563D02*
X042753D01*
X042853D02*
X043053D01*
X043153D02*
X043353D01*
X040363Y035601D02*
X040563D01*
X040663D02*
X040863D01*
X040963D02*
X041153D01*
X041463D02*
X041653D01*
X041763D02*
X041953D01*
X042063D02*
X042253D01*
X042563D02*
X042753D01*
X042853D02*
X043053D01*
X043153D02*
X043353D01*
X040363Y035591D02*
X040563D01*
X040663D02*
X040863D01*
X040963D02*
X041153D01*
X041463D02*
X041653D01*
X041763D02*
X041953D01*
X042063D02*
X042253D01*
X042563D02*
X042753D01*
X042853D02*
X043053D01*
X043153D02*
X043353D01*
X040363Y035581D02*
X040563D01*
X040663D02*
X040863D01*
X040963D02*
X041153D01*
X041463D02*
X041653D01*
X041763D02*
X041953D01*
X042063D02*
X042253D01*
X042563D02*
X042753D01*
X042853D02*
X043053D01*
X043153D02*
X043353D01*
X040363Y035571D02*
X040563D01*
X040663D02*
X040863D01*
X040963D02*
X041153D01*
X041463D02*
X041653D01*
X041763D02*
X041953D01*
X042063D02*
X042253D01*
X042563D02*
X042753D01*
X042853D02*
X043053D01*
X043153D02*
X043353D01*
X040363Y035561D02*
X040563D01*
X040663D02*
X040863D01*
X040963D02*
X041153D01*
X041463D02*
X041653D01*
X041763D02*
X041953D01*
X042063D02*
X042253D01*
X042563D02*
X042753D01*
X042853D02*
X043053D01*
X043153D02*
X043353D01*
X040363Y035551D02*
X040563D01*
X040663D02*
X040863D01*
X040963D02*
X041153D01*
X041463D02*
X041653D01*
X041763D02*
X041953D01*
X042063D02*
X042253D01*
X042563D02*
X042753D01*
X042853D02*
X043053D01*
X043153D02*
X043353D01*
X040363Y035541D02*
X040563D01*
X040663D02*
X040863D01*
X040963D02*
X041153D01*
X041463D02*
X041653D01*
X041763D02*
X041953D01*
X042063D02*
X042253D01*
X042563D02*
X042753D01*
X042853D02*
X043053D01*
X043153D02*
X043353D01*
X040363Y035531D02*
X040563D01*
X040663D02*
X040863D01*
X040963D02*
X041153D01*
X041463D02*
X041653D01*
X041763D02*
X041953D01*
X042063D02*
X042253D01*
X042563D02*
X042753D01*
X042853D02*
X043053D01*
X043153D02*
X043353D01*
X040363Y035521D02*
X040563D01*
X040663D02*
X040863D01*
X040963D02*
X041153D01*
X041463D02*
X041653D01*
X041763D02*
X041953D01*
X042063D02*
X042253D01*
X042563D02*
X042753D01*
X042853D02*
X043053D01*
X043153D02*
X043353D01*
X040363Y035511D02*
X040563D01*
X040663D02*
X040863D01*
X040963D02*
X041153D01*
X041463D02*
X041653D01*
X041763D02*
X041953D01*
X042063D02*
X042253D01*
X042563D02*
X042753D01*
X042853D02*
X043053D01*
X043153D02*
X043353D01*
X040363Y035501D02*
X040563D01*
X040663D02*
X040863D01*
X040963D02*
X041153D01*
X041463D02*
X041653D01*
X041763D02*
X041953D01*
X042063D02*
X042253D01*
X042563D02*
X042753D01*
X042853D02*
X043053D01*
X043153D02*
X043353D01*
X040363Y035491D02*
X040563D01*
X040663D02*
X040863D01*
X040963D02*
X041153D01*
X041463D02*
X041653D01*
X041763D02*
X041953D01*
X042063D02*
X042253D01*
X042563D02*
X042753D01*
X042853D02*
X043053D01*
X043153D02*
X043353D01*
X040363Y035481D02*
X040563D01*
X040663D02*
X040863D01*
X040963D02*
X041153D01*
X041463D02*
X041653D01*
X041763D02*
X041953D01*
X042063D02*
X042253D01*
X042563D02*
X042753D01*
X042853D02*
X043053D01*
X043153D02*
X043353D01*
X040363Y035471D02*
X040563D01*
X040663D02*
X040863D01*
X040963D02*
X041153D01*
X041463D02*
X041653D01*
X041763D02*
X041953D01*
X042063D02*
X042253D01*
X042563D02*
X042753D01*
X042853D02*
X043053D01*
X043153D02*
X043353D01*
X040363Y035461D02*
X040563D01*
X040663D02*
X040863D01*
X040963D02*
X041153D01*
X041463D02*
X041653D01*
X041763D02*
X041953D01*
X042063D02*
X042253D01*
X042563D02*
X042753D01*
X042853D02*
X043053D01*
X043153D02*
X043353D01*
X040363Y035451D02*
X040563D01*
X040663D02*
X040863D01*
X040963D02*
X041153D01*
X041463D02*
X041653D01*
X041763D02*
X041953D01*
X042063D02*
X042253D01*
X042563D02*
X042753D01*
X042853D02*
X043053D01*
X043153D02*
X043353D01*
X040363Y035441D02*
X040563D01*
X040663D02*
X040863D01*
X040963D02*
X041153D01*
X041463D02*
X041653D01*
X041763D02*
X041953D01*
X042063D02*
X042253D01*
X042563D02*
X042753D01*
X042853D02*
X043053D01*
X043153D02*
X043353D01*
X040363Y035431D02*
X040563D01*
X040663D02*
X040863D01*
X040963D02*
X041153D01*
X041463D02*
X041653D01*
X041763D02*
X041953D01*
X042063D02*
X042253D01*
X042563D02*
X042753D01*
X042853D02*
X043053D01*
X043153D02*
X043353D01*
X040363Y035421D02*
X040563D01*
X040663D02*
X040863D01*
X040963D02*
X041153D01*
X041463D02*
X041653D01*
X041763D02*
X041953D01*
X042063D02*
X042253D01*
X042563D02*
X042753D01*
X042853D02*
X043053D01*
X043153D02*
X043353D01*
X040363Y035411D02*
X040563D01*
X040663D02*
X040863D01*
X040963D02*
X041153D01*
X041463D02*
X041653D01*
X041763D02*
X041953D01*
X042063D02*
X042253D01*
X042563D02*
X042753D01*
X042853D02*
X043053D01*
X043153D02*
X043353D01*
X040363Y035401D02*
X040563D01*
X040663D02*
X040863D01*
X040963D02*
X041153D01*
X041463D02*
X041653D01*
X041763D02*
X041953D01*
X042063D02*
X042253D01*
X042563D02*
X042753D01*
X042853D02*
X043053D01*
X043153D02*
X043353D01*
X040363Y035391D02*
X040563D01*
X040663D02*
X040863D01*
X040963D02*
X041153D01*
X041463D02*
X041653D01*
X041763D02*
X041953D01*
X042063D02*
X042253D01*
X042563D02*
X042753D01*
X042853D02*
X043053D01*
X043153D02*
X043353D01*
X040363Y035381D02*
X040563D01*
X040663D02*
X040863D01*
X040963D02*
X041153D01*
X041463D02*
X041653D01*
X041763D02*
X041953D01*
X042063D02*
X042253D01*
X042563D02*
X042753D01*
X042853D02*
X043053D01*
X043153D02*
X043353D01*
X040363Y035371D02*
X040563D01*
X040663D02*
X040863D01*
X040963D02*
X041153D01*
X041463D02*
X041653D01*
X041763D02*
X041953D01*
X042063D02*
X042253D01*
X042563D02*
X042753D01*
X042853D02*
X043053D01*
X043153D02*
X043353D01*
X040363Y035361D02*
X040563D01*
X040663D02*
X040863D01*
X040963D02*
X041153D01*
X041463D02*
X041653D01*
X041763D02*
X041953D01*
X042063D02*
X042253D01*
X042563D02*
X042753D01*
X042853D02*
X043053D01*
X043153D02*
X043353D01*
X040363Y035351D02*
X040563D01*
X040663D02*
X040863D01*
X040963D02*
X041153D01*
X041463D02*
X041653D01*
X041763D02*
X041953D01*
X042063D02*
X042253D01*
X042563D02*
X042753D01*
X042853D02*
X043053D01*
X043153D02*
X043353D01*
X040363Y035341D02*
X040563D01*
X040663D02*
X040863D01*
X040963D02*
X041153D01*
X041463D02*
X041653D01*
X041763D02*
X041953D01*
X042063D02*
X042253D01*
X042563D02*
X042753D01*
X042853D02*
X043053D01*
X043153D02*
X043353D01*
X040363Y035331D02*
X040563D01*
X040663D02*
X040863D01*
X040963D02*
X041153D01*
X041463D02*
X041653D01*
X041763D02*
X041953D01*
X042063D02*
X042253D01*
X042563D02*
X042753D01*
X042853D02*
X043053D01*
X043153D02*
X043353D01*
X040363Y035321D02*
X040563D01*
X040663D02*
X040863D01*
X040963D02*
X041153D01*
X041463D02*
X041653D01*
X041763D02*
X041953D01*
X042063D02*
X042253D01*
X042563D02*
X042753D01*
X042853D02*
X043053D01*
X043153D02*
X043353D01*
X040363Y035311D02*
X040563D01*
X040663D02*
X040863D01*
X040963D02*
X041153D01*
X041463D02*
X041653D01*
X041763D02*
X041953D01*
X042063D02*
X042253D01*
X042563D02*
X042753D01*
X042853D02*
X043053D01*
X043153D02*
X043353D01*
X040363Y035301D02*
X040563D01*
X040663D02*
X040863D01*
X040963D02*
X041153D01*
X041463D02*
X041653D01*
X041763D02*
X041953D01*
X042063D02*
X042253D01*
X042563D02*
X042753D01*
X042853D02*
X043053D01*
X043153D02*
X043353D01*
X040363Y035291D02*
X040563D01*
X040663D02*
X040863D01*
X040963D02*
X041153D01*
X041463D02*
X041653D01*
X041763D02*
X041953D01*
X042063D02*
X042253D01*
X042563D02*
X042753D01*
X042853D02*
X043053D01*
X043153D02*
X043353D01*
X040363Y035281D02*
X040563D01*
X040663D02*
X040863D01*
X040963D02*
X041153D01*
X041463D02*
X041653D01*
X041763D02*
X041953D01*
X042063D02*
X042253D01*
X042563D02*
X042753D01*
X042853D02*
X043053D01*
X043153D02*
X043353D01*
X040363Y035271D02*
X040563D01*
X040663D02*
X040863D01*
X040963D02*
X041153D01*
X041463D02*
X041653D01*
X041763D02*
X041953D01*
X042063D02*
X042253D01*
X042563D02*
X042753D01*
X042853D02*
X043053D01*
X043153D02*
X043353D01*
X040363Y035261D02*
X040563D01*
X040663D02*
X040863D01*
X040963D02*
X041153D01*
X041463D02*
X041653D01*
X041763D02*
X041953D01*
X042063D02*
X042253D01*
X042563D02*
X042753D01*
X042853D02*
X043053D01*
X043153D02*
X043353D01*
X040363Y035251D02*
X040563D01*
X040663D02*
X040863D01*
X040963D02*
X041153D01*
X041463D02*
X041653D01*
X041763D02*
X041953D01*
X042063D02*
X042253D01*
X042563D02*
X042753D01*
X042853D02*
X043053D01*
X043153D02*
X043353D01*
X040363Y035241D02*
X040563D01*
X040663D02*
X040863D01*
X040963D02*
X041153D01*
X041463D02*
X041653D01*
X041763D02*
X041953D01*
X042063D02*
X042253D01*
X042563D02*
X042753D01*
X042853D02*
X043053D01*
X043153D02*
X043353D01*
X040363Y035231D02*
X040563D01*
X040663D02*
X040863D01*
X040963D02*
X041153D01*
X041463D02*
X041653D01*
X041763D02*
X041953D01*
X042063D02*
X042253D01*
X042563D02*
X042753D01*
X042853D02*
X043053D01*
X043153D02*
X043353D01*
X040363Y035221D02*
X040563D01*
X040663D02*
X040863D01*
X040963D02*
X041153D01*
X041463D02*
X041653D01*
X041763D02*
X041953D01*
X042063D02*
X042253D01*
X042563D02*
X042753D01*
X042853D02*
X043053D01*
X043153D02*
X043353D01*
X040363Y035211D02*
X040563D01*
X040663D02*
X040863D01*
X040963D02*
X041153D01*
X041463D02*
X041653D01*
X041763D02*
X041953D01*
X042063D02*
X042253D01*
X042563D02*
X042753D01*
X042853D02*
X043053D01*
X043153D02*
X043353D01*
X040363Y035201D02*
X040563D01*
X040663D02*
X040863D01*
X040963D02*
X041153D01*
X041463D02*
X041653D01*
X041763D02*
X041953D01*
X042063D02*
X042253D01*
X042563D02*
X042753D01*
X042853D02*
X043053D01*
X043153D02*
X043353D01*
X040363Y035191D02*
X040563D01*
X040663D02*
X040863D01*
X040963D02*
X041153D01*
X041463D02*
X041653D01*
X041763D02*
X041953D01*
X042063D02*
X042253D01*
X042563D02*
X042753D01*
X042853D02*
X043053D01*
X043153D02*
X043353D01*
X040363Y035181D02*
X040563D01*
X040663D02*
X040863D01*
X040963D02*
X041153D01*
X041463D02*
X041653D01*
X041763D02*
X041953D01*
X042063D02*
X042253D01*
X042563D02*
X042753D01*
X042853D02*
X043053D01*
X043153D02*
X043353D01*
X040363Y035171D02*
X040563D01*
X040663D02*
X040863D01*
X040963D02*
X041153D01*
X041463D02*
X041653D01*
X041763D02*
X041953D01*
X042063D02*
X042253D01*
X042563D02*
X042753D01*
X042853D02*
X043053D01*
X043153D02*
X043353D01*
X040363Y035161D02*
X040563D01*
X040663D02*
X040863D01*
X040963D02*
X041153D01*
X041463D02*
X041653D01*
X041763D02*
X041953D01*
X042063D02*
X042253D01*
X042563D02*
X042753D01*
X042853D02*
X043053D01*
X043153D02*
X043353D01*
X040363Y035151D02*
X040563D01*
X040663D02*
X040863D01*
X040963D02*
X041153D01*
X041463D02*
X041653D01*
X041763D02*
X041953D01*
X042063D02*
X042253D01*
X042563D02*
X042753D01*
X042853D02*
X043053D01*
X043153D02*
X043353D01*
X040363Y035141D02*
X040563D01*
X040663D02*
X040863D01*
X040963D02*
X041153D01*
X041463D02*
X041653D01*
X041763D02*
X041953D01*
X042063D02*
X042253D01*
X042563D02*
X042753D01*
X042853D02*
X043053D01*
X043153D02*
X043353D01*
X040363Y035131D02*
X040563D01*
X040663D02*
X040863D01*
X040963D02*
X041153D01*
X041463D02*
X041653D01*
X041763D02*
X041953D01*
X042063D02*
X042253D01*
X042563D02*
X042753D01*
X042853D02*
X043053D01*
X043153D02*
X043353D01*
X040363Y035121D02*
X040563D01*
X040663D02*
X040863D01*
X040963D02*
X041153D01*
X041463D02*
X041653D01*
X041763D02*
X041953D01*
X042063D02*
X042253D01*
X042563D02*
X042753D01*
X042853D02*
X043053D01*
X043153D02*
X043353D01*
X040363Y035111D02*
X040563D01*
X040663D02*
X040863D01*
X040963D02*
X041153D01*
X041463D02*
X041653D01*
X041763D02*
X041953D01*
X042063D02*
X042253D01*
X042563D02*
X042753D01*
X042853D02*
X043053D01*
X043153D02*
X043353D01*
X040363Y035101D02*
X040563D01*
X040663D02*
X040863D01*
X040963D02*
X041153D01*
X041463D02*
X041653D01*
X041763D02*
X041953D01*
X042063D02*
X042253D01*
X042563D02*
X042753D01*
X042853D02*
X043053D01*
X043153D02*
X043353D01*
X040363Y035091D02*
X040563D01*
X040663D02*
X040863D01*
X040963D02*
X041153D01*
X041463D02*
X041653D01*
X041763D02*
X041953D01*
X042063D02*
X042253D01*
X042563D02*
X042753D01*
X042853D02*
X043053D01*
X043153D02*
X043353D01*
X040363Y035081D02*
X040563D01*
X040663D02*
X040863D01*
X040963D02*
X041153D01*
X041463D02*
X041653D01*
X041763D02*
X041953D01*
X042063D02*
X042253D01*
X042563D02*
X042753D01*
X042853D02*
X043053D01*
X043153D02*
X043353D01*
X040363Y035071D02*
X040563D01*
X040663D02*
X040863D01*
X040963D02*
X041153D01*
X041463D02*
X041653D01*
X041763D02*
X041953D01*
X042063D02*
X042253D01*
X042563D02*
X042753D01*
X042853D02*
X043053D01*
X043153D02*
X043353D01*
X040363Y035061D02*
X040563D01*
X040663D02*
X040863D01*
X040963D02*
X041153D01*
X041463D02*
X041653D01*
X041763D02*
X041953D01*
X042063D02*
X042253D01*
X042563D02*
X042753D01*
X042853D02*
X043053D01*
X043153D02*
X043353D01*
X040363Y035051D02*
X040563D01*
X040663D02*
X040863D01*
X040963D02*
X041153D01*
X041463D02*
X041653D01*
X041763D02*
X041953D01*
X042063D02*
X042253D01*
X042563D02*
X042753D01*
X042853D02*
X043053D01*
X043153D02*
X043353D01*
X040363Y035041D02*
X040563D01*
X040663D02*
X040863D01*
X040963D02*
X041153D01*
X041463D02*
X041653D01*
X041763D02*
X041953D01*
X042063D02*
X042253D01*
X042563D02*
X042753D01*
X042853D02*
X043053D01*
X043153D02*
X043353D01*
X040363Y035031D02*
X040563D01*
X040663D02*
X040863D01*
X040963D02*
X041153D01*
X041463D02*
X041653D01*
X041763D02*
X041953D01*
X042063D02*
X042253D01*
X042563D02*
X042753D01*
X042853D02*
X043053D01*
X043153D02*
X043353D01*
X040363Y035021D02*
X040563D01*
X040663D02*
X040863D01*
X040963D02*
X041153D01*
X041463D02*
X041653D01*
X041763D02*
X041953D01*
X042063D02*
X042253D01*
X042563D02*
X042753D01*
X042853D02*
X043053D01*
X043153D02*
X043353D01*
X040363Y035011D02*
X040563D01*
X040663D02*
X040863D01*
X040963D02*
X041153D01*
X041463D02*
X041653D01*
X041763D02*
X041953D01*
X042063D02*
X042253D01*
X042563D02*
X042753D01*
X042853D02*
X043053D01*
X043153D02*
X043353D01*
X040363Y035001D02*
X040563D01*
X040663D02*
X040863D01*
X040963D02*
X041153D01*
X041463D02*
X041653D01*
X041763D02*
X041953D01*
X042063D02*
X042253D01*
X042563D02*
X042753D01*
X042853D02*
X043053D01*
X043153D02*
X043353D01*
X040363Y034991D02*
X040563D01*
X040663D02*
X040863D01*
X040963D02*
X041153D01*
X041463D02*
X041653D01*
X041763D02*
X041953D01*
X042063D02*
X042253D01*
X042563D02*
X042753D01*
X042853D02*
X043053D01*
X043153D02*
X043353D01*
X040363Y034981D02*
X040563D01*
X040663D02*
X040863D01*
X040963D02*
X041153D01*
X041463D02*
X041653D01*
X041763D02*
X041953D01*
X042063D02*
X042253D01*
X042563D02*
X042753D01*
X042853D02*
X043053D01*
X043153D02*
X043353D01*
X040363Y034971D02*
X040563D01*
X040663D02*
X040863D01*
X040963D02*
X041153D01*
X041463D02*
X041653D01*
X041763D02*
X041953D01*
X042063D02*
X042253D01*
X042563D02*
X042753D01*
X042853D02*
X043053D01*
X043153D02*
X043353D01*
X040363Y034961D02*
X040563D01*
X040663D02*
X040863D01*
X040963D02*
X041153D01*
X041463D02*
X041653D01*
X041763D02*
X041953D01*
X042063D02*
X042253D01*
X042563D02*
X042753D01*
X042853D02*
X043053D01*
X043153D02*
X043353D01*
X040363Y034951D02*
X040563D01*
X040663D02*
X040863D01*
X040963D02*
X041153D01*
X041463D02*
X041653D01*
X041763D02*
X041953D01*
X042063D02*
X042253D01*
X042563D02*
X042753D01*
X042853D02*
X043053D01*
X043153D02*
X043353D01*
X040363Y034941D02*
X040563D01*
X040663D02*
X040863D01*
X040963D02*
X041153D01*
X041463D02*
X041653D01*
X041763D02*
X041953D01*
X042063D02*
X042253D01*
X042563D02*
X042753D01*
X042853D02*
X043053D01*
X043153D02*
X043353D01*
X040363Y034931D02*
X040563D01*
X040663D02*
X040863D01*
X040963D02*
X041153D01*
X041463D02*
X041653D01*
X041763D02*
X041953D01*
X042063D02*
X042253D01*
X042563D02*
X042753D01*
X042853D02*
X043053D01*
X043153D02*
X043353D01*
X040363Y034921D02*
X040563D01*
X040663D02*
X040863D01*
X040963D02*
X041153D01*
X041463D02*
X041653D01*
X041763D02*
X041953D01*
X042063D02*
X042253D01*
X042563D02*
X042753D01*
X042853D02*
X043053D01*
X043153D02*
X043353D01*
X040363Y034911D02*
X040563D01*
X040663D02*
X040863D01*
X040963D02*
X041153D01*
X041463D02*
X041653D01*
X041763D02*
X041953D01*
X042063D02*
X042253D01*
X042563D02*
X042753D01*
X042853D02*
X043053D01*
X043153D02*
X043353D01*
X040363Y034901D02*
X040563D01*
X040663D02*
X040863D01*
X040963D02*
X041153D01*
X041463D02*
X041653D01*
X041763D02*
X041953D01*
X042063D02*
X042253D01*
X042563D02*
X042753D01*
X042853D02*
X043053D01*
X043153D02*
X043353D01*
X040363Y034891D02*
X040563D01*
X040663D02*
X040863D01*
X040963D02*
X041153D01*
X041463D02*
X041653D01*
X041763D02*
X041953D01*
X042063D02*
X042253D01*
X042563D02*
X042753D01*
X042853D02*
X043053D01*
X043153D02*
X043353D01*
X040363Y034881D02*
X040563D01*
X040663D02*
X040863D01*
X040963D02*
X041153D01*
X041463D02*
X041653D01*
X041763D02*
X041953D01*
X042063D02*
X042253D01*
X042563D02*
X042753D01*
X042853D02*
X043053D01*
X043153D02*
X043353D01*
X040363Y034871D02*
X040563D01*
X040663D02*
X040863D01*
X040963D02*
X041153D01*
X041463D02*
X041653D01*
X041763D02*
X041953D01*
X042063D02*
X042253D01*
X042563D02*
X042753D01*
X042853D02*
X043053D01*
X043153D02*
X043353D01*
X040363Y034861D02*
X040563D01*
X040663D02*
X040863D01*
X040963D02*
X041153D01*
X041463D02*
X041653D01*
X041763D02*
X041953D01*
X042063D02*
X042253D01*
X042563D02*
X042753D01*
X042853D02*
X043053D01*
X043153D02*
X043353D01*
X040363Y034851D02*
X040563D01*
X040663D02*
X040863D01*
X040963D02*
X041153D01*
X041463D02*
X041653D01*
X041763D02*
X041953D01*
X042063D02*
X042253D01*
X042563D02*
X042753D01*
X042853D02*
X043053D01*
X043153D02*
X043353D01*
X040363Y034841D02*
X040563D01*
X040663D02*
X040863D01*
X040963D02*
X041153D01*
X041463D02*
X041653D01*
X041763D02*
X041953D01*
X042063D02*
X042253D01*
X042563D02*
X042753D01*
X042853D02*
X043053D01*
X043153D02*
X043353D01*
X040363Y034831D02*
X040563D01*
X040663D02*
X040863D01*
X040963D02*
X041153D01*
X041463D02*
X041653D01*
X041763D02*
X041953D01*
X042063D02*
X042253D01*
X042563D02*
X042753D01*
X042853D02*
X043053D01*
X043153D02*
X043353D01*
X040363Y034821D02*
X040563D01*
X040663D02*
X040863D01*
X040963D02*
X041153D01*
X041463D02*
X041653D01*
X041763D02*
X041953D01*
X042063D02*
X042253D01*
X042563D02*
X042753D01*
X042853D02*
X043053D01*
X043153D02*
X043353D01*
X040363Y034811D02*
X040563D01*
X040663D02*
X040863D01*
X040963D02*
X041153D01*
X041463D02*
X041653D01*
X041763D02*
X041953D01*
X042063D02*
X042253D01*
X042563D02*
X042753D01*
X042853D02*
X043053D01*
X043153D02*
X043353D01*
X040363Y034801D02*
X040563D01*
X040663D02*
X040863D01*
X040963D02*
X041153D01*
X041463D02*
X041653D01*
X041763D02*
X041953D01*
X042063D02*
X042253D01*
X042563D02*
X042753D01*
X042853D02*
X043053D01*
X043153D02*
X043353D01*
X040363Y034791D02*
X040563D01*
X040663D02*
X040863D01*
X040963D02*
X041153D01*
X041463D02*
X041653D01*
X041763D02*
X041953D01*
X042063D02*
X042253D01*
X042563D02*
X042753D01*
X042853D02*
X043053D01*
X043153D02*
X043353D01*
X040363Y034781D02*
X040563D01*
X040663D02*
X040863D01*
X040963D02*
X041153D01*
X041463D02*
X041653D01*
X041763D02*
X041953D01*
X042063D02*
X042253D01*
X042563D02*
X042753D01*
X042853D02*
X043053D01*
X043153D02*
X043353D01*
X040363Y034771D02*
X040563D01*
X040663D02*
X040863D01*
X040963D02*
X041153D01*
X041463D02*
X041653D01*
X041763D02*
X041953D01*
X042063D02*
X042253D01*
X042563D02*
X042753D01*
X042853D02*
X043053D01*
X043153D02*
X043353D01*
X040363Y034761D02*
X040563D01*
X040663D02*
X040863D01*
X040963D02*
X041153D01*
X041463D02*
X041653D01*
X041763D02*
X041953D01*
X042063D02*
X042253D01*
X042563D02*
X042753D01*
X042853D02*
X043053D01*
X043153D02*
X043353D01*
X040363Y034751D02*
X040563D01*
X040663D02*
X040863D01*
X040963D02*
X041153D01*
X041463D02*
X041653D01*
X041763D02*
X041953D01*
X042063D02*
X042253D01*
X042563D02*
X042753D01*
X042853D02*
X043053D01*
X043153D02*
X043353D01*
X040363Y034741D02*
X040563D01*
X040663D02*
X040863D01*
X040963D02*
X041153D01*
X041463D02*
X041653D01*
X041763D02*
X041953D01*
X042063D02*
X042253D01*
X042563D02*
X042753D01*
X042853D02*
X043053D01*
X043153D02*
X043353D01*
X040363Y034731D02*
X040563D01*
X040663D02*
X040863D01*
X040963D02*
X041153D01*
X041463D02*
X041653D01*
X041763D02*
X041953D01*
X042063D02*
X042253D01*
X042563D02*
X042753D01*
X042853D02*
X043053D01*
X043153D02*
X043353D01*
X040363Y034721D02*
X040563D01*
X040663D02*
X040863D01*
X040963D02*
X041153D01*
X041463D02*
X041653D01*
X041763D02*
X041953D01*
X042063D02*
X042253D01*
X042563D02*
X042753D01*
X042853D02*
X043053D01*
X043153D02*
X043353D01*
X040363Y034711D02*
X040563D01*
X040663D02*
X040863D01*
X040963D02*
X041153D01*
X041463D02*
X041653D01*
X041763D02*
X041953D01*
X042063D02*
X042253D01*
X042563D02*
X042753D01*
X042853D02*
X043053D01*
X043153D02*
X043353D01*
X040363Y034701D02*
X040563D01*
X040663D02*
X040863D01*
X040963D02*
X041153D01*
X041463D02*
X041653D01*
X041763D02*
X041953D01*
X042063D02*
X042253D01*
X042563D02*
X042753D01*
X042853D02*
X043053D01*
X043153D02*
X043353D01*
X040363Y034691D02*
X040563D01*
X040663D02*
X040863D01*
X040963D02*
X041153D01*
X041463D02*
X041653D01*
X041763D02*
X041953D01*
X042063D02*
X042253D01*
X042563D02*
X042753D01*
X042853D02*
X043053D01*
X043153D02*
X043353D01*
X040363Y034681D02*
X040563D01*
X040663D02*
X040863D01*
X040963D02*
X041153D01*
X041463D02*
X041653D01*
X041763D02*
X041953D01*
X042063D02*
X042253D01*
X042563D02*
X042753D01*
X042853D02*
X043053D01*
X043153D02*
X043353D01*
X040363Y034671D02*
X040563D01*
X040663D02*
X040863D01*
X040963D02*
X041153D01*
X041463D02*
X041653D01*
X041763D02*
X041953D01*
X042063D02*
X042253D01*
X042563D02*
X042753D01*
X042853D02*
X043053D01*
X043153D02*
X043353D01*
X040363Y034661D02*
X040563D01*
X040663D02*
X040863D01*
X040963D02*
X041153D01*
X041463D02*
X041653D01*
X041763D02*
X041953D01*
X042063D02*
X042253D01*
X042563D02*
X042753D01*
X042853D02*
X043053D01*
X043153D02*
X043353D01*
X040363Y034651D02*
X040563D01*
X040663D02*
X040863D01*
X040963D02*
X041153D01*
X041463D02*
X041653D01*
X041763D02*
X041953D01*
X042063D02*
X042253D01*
X042563D02*
X042753D01*
X042853D02*
X043053D01*
X043153D02*
X043353D01*
X040363Y034641D02*
X040563D01*
X040663D02*
X040863D01*
X040963D02*
X041153D01*
X041463D02*
X041653D01*
X041763D02*
X041953D01*
X042063D02*
X042253D01*
X042563D02*
X042753D01*
X042853D02*
X043053D01*
X043153D02*
X043353D01*
X040363Y034631D02*
X040563D01*
X040663D02*
X040863D01*
X040963D02*
X041153D01*
X041463D02*
X041653D01*
X041763D02*
X041953D01*
X042063D02*
X042253D01*
X042563D02*
X042753D01*
X042853D02*
X043053D01*
X043153D02*
X043353D01*
X040363Y034621D02*
X040563D01*
X040663D02*
X040863D01*
X040963D02*
X041153D01*
X041463D02*
X041653D01*
X041763D02*
X041953D01*
X042063D02*
X042253D01*
X042563D02*
X042753D01*
X042853D02*
X043053D01*
X043153D02*
X043353D01*
X040363Y034611D02*
X040563D01*
X040663D02*
X040863D01*
X040963D02*
X041153D01*
X041463D02*
X041653D01*
X041763D02*
X041953D01*
X042063D02*
X042253D01*
X042563D02*
X042753D01*
X042853D02*
X043053D01*
X043153D02*
X043353D01*
X040363Y034601D02*
X040563D01*
X040663D02*
X040863D01*
X040963D02*
X041153D01*
X041463D02*
X041653D01*
X041763D02*
X041953D01*
X042063D02*
X042253D01*
X042563D02*
X042753D01*
X042853D02*
X043053D01*
X043153D02*
X043353D01*
X040363Y034591D02*
X040563D01*
X040663D02*
X040863D01*
X040963D02*
X041153D01*
X041463D02*
X041653D01*
X041763D02*
X041953D01*
X042063D02*
X042253D01*
X042563D02*
X042753D01*
X042853D02*
X043053D01*
X043153D02*
X043353D01*
X040363Y034581D02*
X040563D01*
X040663D02*
X040863D01*
X040963D02*
X041153D01*
X041463D02*
X041653D01*
X041763D02*
X041953D01*
X042063D02*
X042253D01*
X042563D02*
X042753D01*
X042853D02*
X043053D01*
X043153D02*
X043353D01*
X040363Y034571D02*
X040563D01*
X040663D02*
X040863D01*
X040963D02*
X041153D01*
X041463D02*
X041653D01*
X041763D02*
X041953D01*
X042063D02*
X042253D01*
X042563D02*
X042753D01*
X042853D02*
X043053D01*
X043153D02*
X043353D01*
X040363Y034561D02*
X040563D01*
X040663D02*
X040863D01*
X040963D02*
X041153D01*
X041463D02*
X041653D01*
X041763D02*
X041953D01*
X042063D02*
X042253D01*
X042563D02*
X042753D01*
X042853D02*
X043053D01*
X043153D02*
X043353D01*
X040363Y034551D02*
X040563D01*
X040663D02*
X040863D01*
X040963D02*
X041153D01*
X041463D02*
X041653D01*
X041763D02*
X041953D01*
X042063D02*
X042253D01*
X042563D02*
X042753D01*
X042853D02*
X043053D01*
X043153D02*
X043353D01*
X040363Y034541D02*
X040563D01*
X040663D02*
X040863D01*
X040963D02*
X041153D01*
X041463D02*
X041653D01*
X041763D02*
X041953D01*
X042063D02*
X042253D01*
X042563D02*
X042753D01*
X042853D02*
X043053D01*
X043153D02*
X043353D01*
X040363Y034531D02*
X040563D01*
X040663D02*
X040863D01*
X040963D02*
X041153D01*
X041463D02*
X041653D01*
X041763D02*
X041953D01*
X042063D02*
X042253D01*
X042563D02*
X042753D01*
X042853D02*
X043053D01*
X043153D02*
X043353D01*
X040363Y034521D02*
X040563D01*
X040663D02*
X040863D01*
X040963D02*
X041153D01*
X041463D02*
X041653D01*
X041763D02*
X041953D01*
X042063D02*
X042253D01*
X042563D02*
X042753D01*
X042853D02*
X043053D01*
X043153D02*
X043353D01*
X040363Y034511D02*
X040563D01*
X040663D02*
X040863D01*
X040963D02*
X041153D01*
X041463D02*
X041653D01*
X041763D02*
X041953D01*
X042063D02*
X042253D01*
X042563D02*
X042753D01*
X042853D02*
X043053D01*
X043153D02*
X043353D01*
X040363Y034501D02*
X040563D01*
X040663D02*
X040863D01*
X040963D02*
X041153D01*
X041463D02*
X041653D01*
X041763D02*
X041953D01*
X042063D02*
X042253D01*
X042563D02*
X042753D01*
X042853D02*
X043053D01*
X043153D02*
X043353D01*
X040363Y034491D02*
X040563D01*
X040663D02*
X040863D01*
X040963D02*
X041153D01*
X041463D02*
X041653D01*
X041763D02*
X041953D01*
X042063D02*
X042253D01*
X042563D02*
X042753D01*
X042853D02*
X043053D01*
X043153D02*
X043353D01*
X040363Y034481D02*
X040563D01*
X040663D02*
X040863D01*
X040963D02*
X041153D01*
X041463D02*
X041653D01*
X041763D02*
X041953D01*
X042063D02*
X042253D01*
X042563D02*
X042753D01*
X042853D02*
X043053D01*
X043153D02*
X043353D01*
X040363Y034471D02*
X040563D01*
X040663D02*
X040863D01*
X040963D02*
X041153D01*
X041463D02*
X041653D01*
X041763D02*
X041953D01*
X042063D02*
X042253D01*
X042563D02*
X042753D01*
X042853D02*
X043053D01*
X043153D02*
X043353D01*
X040363Y034461D02*
X040563D01*
X040663D02*
X040863D01*
X040963D02*
X041153D01*
X041463D02*
X041653D01*
X041763D02*
X041953D01*
X042063D02*
X042253D01*
X042563D02*
X042753D01*
X042853D02*
X043053D01*
X043153D02*
X043353D01*
X040363Y034451D02*
X040563D01*
X040663D02*
X040863D01*
X040963D02*
X041153D01*
X041463D02*
X041653D01*
X041763D02*
X041953D01*
X042063D02*
X042253D01*
X042563D02*
X042753D01*
X042853D02*
X043053D01*
X043153D02*
X043353D01*
X040363Y034441D02*
X040563D01*
X040663D02*
X040863D01*
X040963D02*
X041153D01*
X041463D02*
X041653D01*
X041763D02*
X041953D01*
X042063D02*
X042253D01*
X042563D02*
X042753D01*
X042853D02*
X043053D01*
X043153D02*
X043353D01*
X040363Y034431D02*
X040563D01*
X040663D02*
X040863D01*
X040963D02*
X041153D01*
X041463D02*
X041653D01*
X041763D02*
X041953D01*
X042063D02*
X042253D01*
X042563D02*
X042753D01*
X042853D02*
X043053D01*
X043153D02*
X043353D01*
X040363Y034421D02*
X040563D01*
X040663D02*
X040863D01*
X040963D02*
X041153D01*
X041463D02*
X041653D01*
X041763D02*
X041953D01*
X042063D02*
X042253D01*
X042563D02*
X042753D01*
X042853D02*
X043053D01*
X043153D02*
X043353D01*
X040363Y034411D02*
X040563D01*
X040663D02*
X040863D01*
X040963D02*
X041153D01*
X041463D02*
X041653D01*
X041763D02*
X041953D01*
X042063D02*
X042253D01*
X042563D02*
X042753D01*
X042853D02*
X043053D01*
X043153D02*
X043353D01*
X040363Y034401D02*
X040563D01*
X040663D02*
X040863D01*
X040963D02*
X041153D01*
X041463D02*
X041653D01*
X041763D02*
X041953D01*
X042063D02*
X042253D01*
X042563D02*
X042753D01*
X042853D02*
X043053D01*
X043153D02*
X043353D01*
X040363Y034391D02*
X040563D01*
X040663D02*
X040863D01*
X040963D02*
X041153D01*
X041463D02*
X041653D01*
X041763D02*
X041953D01*
X042063D02*
X042253D01*
X042563D02*
X042753D01*
X042853D02*
X043053D01*
X043153D02*
X043353D01*
X040363Y034381D02*
X040563D01*
X040663D02*
X040863D01*
X040963D02*
X041153D01*
X041463D02*
X041653D01*
X041763D02*
X041953D01*
X042063D02*
X042253D01*
X042563D02*
X042753D01*
X042853D02*
X043053D01*
X043153D02*
X043353D01*
X040363Y034371D02*
X040563D01*
X040663D02*
X040863D01*
X040963D02*
X041153D01*
X041463D02*
X041653D01*
X041763D02*
X041953D01*
X042063D02*
X042253D01*
X042563D02*
X042753D01*
X042853D02*
X043053D01*
X043153D02*
X043353D01*
X040363Y034361D02*
X040563D01*
X040663D02*
X040863D01*
X040963D02*
X041153D01*
X041463D02*
X041653D01*
X041763D02*
X041953D01*
X042063D02*
X042253D01*
X042563D02*
X042753D01*
X042853D02*
X043053D01*
X043153D02*
X043353D01*
X040363Y034351D02*
X040563D01*
X040663D02*
X040863D01*
X040963D02*
X041153D01*
X041463D02*
X041653D01*
X041763D02*
X041953D01*
X042063D02*
X042253D01*
X042563D02*
X042753D01*
X042853D02*
X043053D01*
X043153D02*
X043353D01*
X040363Y034341D02*
X040563D01*
X040663D02*
X040863D01*
X040963D02*
X041153D01*
X041463D02*
X041653D01*
X041763D02*
X041953D01*
X042063D02*
X042253D01*
X042563D02*
X042753D01*
X042853D02*
X043053D01*
X043153D02*
X043353D01*
X040363Y034331D02*
X040563D01*
X040663D02*
X040863D01*
X040963D02*
X041153D01*
X041463D02*
X041653D01*
X041763D02*
X041953D01*
X042063D02*
X042253D01*
X042563D02*
X042753D01*
X042853D02*
X043053D01*
X043153D02*
X043353D01*
X040363Y034321D02*
X040563D01*
X040663D02*
X040863D01*
X040963D02*
X041153D01*
X041463D02*
X041653D01*
X041763D02*
X041953D01*
X042063D02*
X042253D01*
X042563D02*
X042753D01*
X042853D02*
X043053D01*
X043153D02*
X043353D01*
X040363Y034311D02*
X040563D01*
X040663D02*
X040863D01*
X040963D02*
X041153D01*
X041463D02*
X041653D01*
X041763D02*
X041953D01*
X042063D02*
X042253D01*
X042563D02*
X042753D01*
X042853D02*
X043053D01*
X043153D02*
X043353D01*
X040363Y034301D02*
X040563D01*
X040663D02*
X040863D01*
X040963D02*
X041153D01*
X041463D02*
X041653D01*
X041763D02*
X041953D01*
X042063D02*
X042253D01*
X042563D02*
X042753D01*
X042853D02*
X043053D01*
X043153D02*
X043353D01*
X040363Y034291D02*
X040563D01*
X040663D02*
X040863D01*
X040963D02*
X041153D01*
X041463D02*
X041653D01*
X041763D02*
X041953D01*
X042063D02*
X042253D01*
X042563D02*
X042753D01*
X042853D02*
X043053D01*
X043153D02*
X043353D01*
X040363Y034281D02*
X040563D01*
X040663D02*
X040863D01*
X040963D02*
X041153D01*
X041463D02*
X041653D01*
X041763D02*
X041953D01*
X042063D02*
X042253D01*
X042563D02*
X042753D01*
X042853D02*
X043053D01*
X043153D02*
X043353D01*
X040363Y034271D02*
X040563D01*
X040663D02*
X040863D01*
X040963D02*
X041153D01*
X041463D02*
X041653D01*
X041763D02*
X041953D01*
X042063D02*
X042253D01*
X042563D02*
X042753D01*
X042853D02*
X043053D01*
X043153D02*
X043353D01*
X040363Y034261D02*
X040563D01*
X040663D02*
X040863D01*
X040963D02*
X041153D01*
X041463D02*
X041653D01*
X041763D02*
X041953D01*
X042063D02*
X042253D01*
X042563D02*
X042753D01*
X042853D02*
X043053D01*
X043153D02*
X043353D01*
X040363Y034251D02*
X040563D01*
X040663D02*
X040863D01*
X040963D02*
X041153D01*
X041463D02*
X041653D01*
X041763D02*
X041953D01*
X042063D02*
X042253D01*
X042563D02*
X042753D01*
X042853D02*
X043053D01*
X043153D02*
X043353D01*
X040363Y034241D02*
X040563D01*
X040663D02*
X040863D01*
X040963D02*
X041153D01*
X041463D02*
X041653D01*
X041763D02*
X041953D01*
X042063D02*
X042253D01*
X042563D02*
X042753D01*
X042853D02*
X043053D01*
X043153D02*
X043353D01*
X040363Y034231D02*
X040563D01*
X040663D02*
X040863D01*
X040963D02*
X041153D01*
X041463D02*
X041653D01*
X041763D02*
X041953D01*
X042063D02*
X042253D01*
X042563D02*
X042753D01*
X042853D02*
X043053D01*
X043153D02*
X043353D01*
X040363Y034221D02*
X040563D01*
X040663D02*
X040863D01*
X040963D02*
X041153D01*
X041463D02*
X041653D01*
X041763D02*
X041953D01*
X042063D02*
X042253D01*
X042563D02*
X042753D01*
X042853D02*
X043053D01*
X043153D02*
X043353D01*
X040363Y034211D02*
X040563D01*
X040663D02*
X040863D01*
X040963D02*
X041153D01*
X041463D02*
X041653D01*
X041763D02*
X041953D01*
X042063D02*
X042253D01*
X042563D02*
X042753D01*
X042853D02*
X043053D01*
X043153D02*
X043353D01*
X040363Y034201D02*
X040563D01*
X040663D02*
X040863D01*
X040963D02*
X041153D01*
X041463D02*
X041653D01*
X041763D02*
X041953D01*
X042063D02*
X042253D01*
X042563D02*
X042753D01*
X042853D02*
X043053D01*
X043153D02*
X043353D01*
X040363Y034191D02*
X040563D01*
X040663D02*
X040863D01*
X040963D02*
X041153D01*
X041463D02*
X041653D01*
X041763D02*
X041953D01*
X042063D02*
X042253D01*
X042563D02*
X042753D01*
X042853D02*
X043053D01*
X043153D02*
X043353D01*
X040363Y034181D02*
X040563D01*
X040663D02*
X040863D01*
X040963D02*
X041153D01*
X041463D02*
X041653D01*
X041763D02*
X041953D01*
X042063D02*
X042253D01*
X042563D02*
X042753D01*
X042853D02*
X043053D01*
X043153D02*
X043353D01*
X040363Y034171D02*
X040563D01*
X040663D02*
X040863D01*
X040963D02*
X041153D01*
X041463D02*
X041653D01*
X041763D02*
X041953D01*
X042063D02*
X042253D01*
X042563D02*
X042753D01*
X042853D02*
X043053D01*
X043153D02*
X043353D01*
X040363Y034161D02*
X040563D01*
X040663D02*
X040863D01*
X040963D02*
X041153D01*
X041463D02*
X041653D01*
X041763D02*
X041953D01*
X042063D02*
X042253D01*
X042563D02*
X042753D01*
X042853D02*
X043053D01*
X043153D02*
X043353D01*
X040363Y034151D02*
X040563D01*
X040663D02*
X040863D01*
X040963D02*
X041153D01*
X041463D02*
X041653D01*
X041763D02*
X041953D01*
X042063D02*
X042253D01*
X042563D02*
X042753D01*
X042853D02*
X043053D01*
X043153D02*
X043353D01*
X040363Y034141D02*
X040563D01*
X040663D02*
X040863D01*
X040963D02*
X041153D01*
X041463D02*
X041653D01*
X041763D02*
X041953D01*
X042063D02*
X042253D01*
X042563D02*
X042753D01*
X042853D02*
X043053D01*
X043153D02*
X043353D01*
X040363Y034131D02*
X040563D01*
X040663D02*
X040863D01*
X040963D02*
X041153D01*
X041463D02*
X041653D01*
X041763D02*
X041953D01*
X042063D02*
X042253D01*
X042563D02*
X042753D01*
X042853D02*
X043053D01*
X043153D02*
X043353D01*
X040363Y034121D02*
X040563D01*
X040663D02*
X040863D01*
X040963D02*
X041153D01*
X041463D02*
X041653D01*
X041763D02*
X041953D01*
X042063D02*
X042253D01*
X042563D02*
X042753D01*
X042853D02*
X043053D01*
X043153D02*
X043353D01*
X040363Y034111D02*
X040563D01*
X040663D02*
X040863D01*
X040963D02*
X041153D01*
X041463D02*
X041653D01*
X041763D02*
X041953D01*
X042063D02*
X042253D01*
X042563D02*
X042753D01*
X042853D02*
X043053D01*
X043153D02*
X043353D01*
X040363Y034101D02*
X040563D01*
X040663D02*
X040863D01*
X040963D02*
X041153D01*
X041463D02*
X041653D01*
X041763D02*
X041953D01*
X042063D02*
X042253D01*
X042563D02*
X042753D01*
X042853D02*
X043053D01*
X043153D02*
X043353D01*
X040363Y034091D02*
X040563D01*
X040663D02*
X040863D01*
X040963D02*
X041153D01*
X041463D02*
X041653D01*
X041763D02*
X041953D01*
X042063D02*
X042253D01*
X042563D02*
X042753D01*
X042853D02*
X043053D01*
X043153D02*
X043353D01*
X040363Y034081D02*
X040563D01*
X040663D02*
X040863D01*
X040963D02*
X041153D01*
X041463D02*
X041653D01*
X041763D02*
X041953D01*
X042063D02*
X042253D01*
X042563D02*
X042753D01*
X042853D02*
X043053D01*
X043153D02*
X043353D01*
X040363Y034071D02*
X040563D01*
X040663D02*
X040863D01*
X040963D02*
X041153D01*
X041463D02*
X041653D01*
X041763D02*
X041953D01*
X042063D02*
X042253D01*
X042563D02*
X042753D01*
X042853D02*
X043053D01*
X043153D02*
X043353D01*
X040363Y034061D02*
X040563D01*
X040663D02*
X040863D01*
X040963D02*
X041153D01*
X041463D02*
X041653D01*
X041763D02*
X041953D01*
X042063D02*
X042253D01*
X042563D02*
X042753D01*
X042853D02*
X043053D01*
X043153D02*
X043353D01*
X040363Y034051D02*
X040563D01*
X040663D02*
X040863D01*
X040963D02*
X041153D01*
X041463D02*
X041653D01*
X041763D02*
X041953D01*
X042063D02*
X042253D01*
X042563D02*
X042753D01*
X042853D02*
X043053D01*
X043153D02*
X043353D01*
X040363Y034041D02*
X040563D01*
X040663D02*
X040863D01*
X040963D02*
X041153D01*
X041463D02*
X041653D01*
X041763D02*
X041953D01*
X042063D02*
X042253D01*
X042563D02*
X042753D01*
X042853D02*
X043053D01*
X043153D02*
X043353D01*
X040363Y034031D02*
X040563D01*
X040663D02*
X040863D01*
X040963D02*
X041153D01*
X041463D02*
X041653D01*
X041763D02*
X041953D01*
X042063D02*
X042253D01*
X042563D02*
X042753D01*
X042853D02*
X043053D01*
X043153D02*
X043353D01*
X040363Y034021D02*
X040563D01*
X040663D02*
X040863D01*
X040963D02*
X041153D01*
X041463D02*
X041653D01*
X041763D02*
X041953D01*
X042063D02*
X042253D01*
X042563D02*
X042753D01*
X042853D02*
X043053D01*
X043153D02*
X043353D01*
X040363Y034011D02*
X040563D01*
X040663D02*
X040863D01*
X040963D02*
X041153D01*
X041463D02*
X041653D01*
X041763D02*
X041953D01*
X042063D02*
X042253D01*
X042563D02*
X042753D01*
X042853D02*
X043053D01*
X043153D02*
X043353D01*
X040363Y034001D02*
X040563D01*
X040663D02*
X040863D01*
X040963D02*
X041153D01*
X041463D02*
X041653D01*
X041763D02*
X041953D01*
X042063D02*
X042253D01*
X042563D02*
X042753D01*
X042853D02*
X043053D01*
X043153D02*
X043353D01*
X040363Y033991D02*
X040563D01*
X040663D02*
X040863D01*
X040963D02*
X041153D01*
X041463D02*
X041653D01*
X041763D02*
X041953D01*
X042063D02*
X042253D01*
X042563D02*
X042753D01*
X042853D02*
X043053D01*
X043153D02*
X043353D01*
X040363Y033981D02*
X040563D01*
X040663D02*
X040863D01*
X040963D02*
X041153D01*
X041463D02*
X041653D01*
X041763D02*
X041953D01*
X042063D02*
X042253D01*
X042563D02*
X042753D01*
X042853D02*
X043053D01*
X043153D02*
X043353D01*
X040363Y033971D02*
X040563D01*
X040663D02*
X040863D01*
X040963D02*
X041153D01*
X041463D02*
X041653D01*
X041763D02*
X041953D01*
X042063D02*
X042253D01*
X042563D02*
X042753D01*
X042853D02*
X043053D01*
X043153D02*
X043353D01*
X040363Y033961D02*
X040563D01*
X040663D02*
X040863D01*
X040963D02*
X041153D01*
X041463D02*
X041653D01*
X041763D02*
X041953D01*
X042063D02*
X042253D01*
X042563D02*
X042753D01*
X042853D02*
X043053D01*
X043153D02*
X043353D01*
X040363Y033951D02*
X040563D01*
X040663D02*
X040863D01*
X040963D02*
X041153D01*
X041463D02*
X041653D01*
X041763D02*
X041953D01*
X042063D02*
X042253D01*
X042563D02*
X042753D01*
X042853D02*
X043053D01*
X043153D02*
X043353D01*
X040363Y033941D02*
X040563D01*
X040663D02*
X040863D01*
X040963D02*
X041153D01*
X041463D02*
X041653D01*
X041763D02*
X041953D01*
X042063D02*
X042253D01*
X042563D02*
X042753D01*
X042853D02*
X043053D01*
X043153D02*
X043353D01*
X040363Y033931D02*
X040563D01*
X040663D02*
X040863D01*
X040963D02*
X041153D01*
X041463D02*
X041653D01*
X041763D02*
X041953D01*
X042063D02*
X042253D01*
X042563D02*
X042753D01*
X042853D02*
X043053D01*
X043153D02*
X043353D01*
X040363Y033921D02*
X040563D01*
X040663D02*
X040863D01*
X040963D02*
X041153D01*
X041463D02*
X041653D01*
X041763D02*
X041953D01*
X042063D02*
X042253D01*
X042563D02*
X042753D01*
X042853D02*
X043053D01*
X043153D02*
X043353D01*
X040363Y033911D02*
X040563D01*
X040663D02*
X040863D01*
X040963D02*
X041153D01*
X041463D02*
X041653D01*
X041763D02*
X041953D01*
X042063D02*
X042253D01*
X042563D02*
X042753D01*
X042853D02*
X043053D01*
X043153D02*
X043353D01*
X040363Y033901D02*
X040563D01*
X040663D02*
X040863D01*
X040963D02*
X041153D01*
X041463D02*
X041653D01*
X041763D02*
X041953D01*
X042063D02*
X042253D01*
X042563D02*
X042753D01*
X042853D02*
X043053D01*
X043153D02*
X043353D01*
X040363Y033891D02*
X040563D01*
X040663D02*
X040863D01*
X040963D02*
X041153D01*
X041463D02*
X041653D01*
X041763D02*
X041953D01*
X042063D02*
X042253D01*
X042563D02*
X042753D01*
X042853D02*
X043053D01*
X043153D02*
X043353D01*
X040363Y033881D02*
X040563D01*
X040663D02*
X040863D01*
X040963D02*
X041153D01*
X041463D02*
X041653D01*
X041763D02*
X041953D01*
X042063D02*
X042253D01*
X042563D02*
X042753D01*
X042853D02*
X043053D01*
X043153D02*
X043353D01*
X040363Y033871D02*
X040563D01*
X040663D02*
X040863D01*
X040963D02*
X041153D01*
X041463D02*
X041653D01*
X041763D02*
X041953D01*
X042063D02*
X042253D01*
X042563D02*
X042753D01*
X042853D02*
X043053D01*
X043153D02*
X043353D01*
X040363Y033861D02*
X040563D01*
X040663D02*
X040863D01*
X040963D02*
X041153D01*
X041463D02*
X041653D01*
X041763D02*
X041953D01*
X042063D02*
X042253D01*
X042563D02*
X042753D01*
X042853D02*
X043053D01*
X043153D02*
X043353D01*
X040363Y033851D02*
X040563D01*
X040663D02*
X040863D01*
X040963D02*
X041153D01*
X041463D02*
X041653D01*
X041763D02*
X041953D01*
X042063D02*
X042253D01*
X042563D02*
X042753D01*
X042853D02*
X043053D01*
X043153D02*
X043353D01*
X040363Y033841D02*
X040563D01*
X040663D02*
X040863D01*
X040963D02*
X041153D01*
X041463D02*
X041653D01*
X041763D02*
X041953D01*
X042063D02*
X042253D01*
X042563D02*
X042753D01*
X042853D02*
X043053D01*
X043153D02*
X043353D01*
X040363Y033831D02*
X040563D01*
X040663D02*
X040863D01*
X040963D02*
X041153D01*
X041463D02*
X041653D01*
X041763D02*
X041953D01*
X042063D02*
X042253D01*
X042563D02*
X042753D01*
X042853D02*
X043053D01*
X043153D02*
X043353D01*
X040363Y033821D02*
X040563D01*
X040663D02*
X040863D01*
X040963D02*
X041153D01*
X041463D02*
X041653D01*
X041763D02*
X041953D01*
X042063D02*
X042253D01*
X042563D02*
X042753D01*
X042853D02*
X043053D01*
X043153D02*
X043353D01*
X040363Y033811D02*
X040563D01*
X040663D02*
X040863D01*
X040963D02*
X041153D01*
X041463D02*
X041653D01*
X041763D02*
X041953D01*
X042063D02*
X042253D01*
X042563D02*
X042753D01*
X042853D02*
X043053D01*
X043153D02*
X043353D01*
X040363Y033801D02*
X040563D01*
X040663D02*
X040863D01*
X040963D02*
X041153D01*
X041463D02*
X041653D01*
X041763D02*
X041953D01*
X042063D02*
X042253D01*
X042563D02*
X042753D01*
X042853D02*
X043053D01*
X043153D02*
X043353D01*
X040363Y033791D02*
X040563D01*
X040663D02*
X040863D01*
X040963D02*
X041153D01*
X041463D02*
X041653D01*
X041763D02*
X041953D01*
X042063D02*
X042253D01*
X042563D02*
X042753D01*
X042853D02*
X043053D01*
X043153D02*
X043353D01*
X040363Y033781D02*
X040563D01*
X040663D02*
X040863D01*
X040963D02*
X041153D01*
X041463D02*
X041653D01*
X041763D02*
X041953D01*
X042063D02*
X042253D01*
X042563D02*
X042753D01*
X042853D02*
X043053D01*
X043153D02*
X043353D01*
X040363Y033771D02*
X040563D01*
X040663D02*
X040863D01*
X040963D02*
X041153D01*
X041463D02*
X041653D01*
X041763D02*
X041953D01*
X042063D02*
X042253D01*
X042563D02*
X042753D01*
X042853D02*
X043053D01*
X043153D02*
X043353D01*
X040363Y033761D02*
X040563D01*
X040663D02*
X040863D01*
X040963D02*
X041153D01*
X041463D02*
X041653D01*
X041763D02*
X041953D01*
X042063D02*
X042253D01*
X042563D02*
X042753D01*
X042853D02*
X043053D01*
X043153D02*
X043353D01*
X040363Y033751D02*
X040563D01*
X040663D02*
X040863D01*
X040963D02*
X041153D01*
X041463D02*
X041653D01*
X041763D02*
X041953D01*
X042063D02*
X042253D01*
X042563D02*
X042753D01*
X042853D02*
X043053D01*
X043153D02*
X043353D01*
X040363Y033741D02*
X040563D01*
X040663D02*
X040863D01*
X040963D02*
X041153D01*
X041463D02*
X041653D01*
X041763D02*
X041953D01*
X042063D02*
X042253D01*
X042563D02*
X042753D01*
X042853D02*
X043053D01*
X043153D02*
X043353D01*
X040363Y033731D02*
X040563D01*
X040663D02*
X040863D01*
X040963D02*
X041153D01*
X041463D02*
X041653D01*
X041763D02*
X041953D01*
X042063D02*
X042253D01*
X042563D02*
X042753D01*
X042853D02*
X043053D01*
X043153D02*
X043353D01*
X040363Y033721D02*
X040563D01*
X040663D02*
X040863D01*
X040963D02*
X041153D01*
X041463D02*
X041653D01*
X041763D02*
X041953D01*
X042063D02*
X042253D01*
X042563D02*
X042753D01*
X042853D02*
X043053D01*
X043153D02*
X043353D01*
X040363Y033711D02*
X040563D01*
X040663D02*
X040863D01*
X040963D02*
X041153D01*
X041463D02*
X041653D01*
X041763D02*
X041953D01*
X042063D02*
X042253D01*
X042563D02*
X042753D01*
X042853D02*
X043053D01*
X043153D02*
X043353D01*
X040363Y033701D02*
X040563D01*
X040663D02*
X040863D01*
X040963D02*
X041153D01*
X041463D02*
X041653D01*
X041763D02*
X041953D01*
X042063D02*
X042253D01*
X042563D02*
X042753D01*
X042853D02*
X043053D01*
X043153D02*
X043353D01*
X040363Y033691D02*
X040563D01*
X040663D02*
X040863D01*
X040963D02*
X041153D01*
X041463D02*
X041653D01*
X041763D02*
X041953D01*
X042063D02*
X042253D01*
X042563D02*
X042753D01*
X042853D02*
X043053D01*
X043153D02*
X043353D01*
X040363Y033681D02*
X040563D01*
X040663D02*
X040863D01*
X040963D02*
X041153D01*
X041463D02*
X041653D01*
X041763D02*
X041953D01*
X042063D02*
X042253D01*
X042563D02*
X042753D01*
X042853D02*
X043053D01*
X043153D02*
X043353D01*
X040363Y033671D02*
X040563D01*
X040663D02*
X040863D01*
X040963D02*
X041153D01*
X041463D02*
X041653D01*
X041763D02*
X041953D01*
X042063D02*
X042253D01*
X042563D02*
X042753D01*
X042853D02*
X043053D01*
X043153D02*
X043353D01*
X040363Y033661D02*
X040563D01*
X040663D02*
X040863D01*
X040963D02*
X041153D01*
X041463D02*
X041653D01*
X041763D02*
X041953D01*
X042063D02*
X042253D01*
X042563D02*
X042753D01*
X042853D02*
X043053D01*
X043153D02*
X043353D01*
X040363Y033651D02*
X040563D01*
X040663D02*
X040863D01*
X040963D02*
X041153D01*
X041463D02*
X041653D01*
X041763D02*
X041953D01*
X042063D02*
X042253D01*
X042563D02*
X042753D01*
X042853D02*
X043053D01*
X043153D02*
X043353D01*
X040363Y033641D02*
X040563D01*
X040663D02*
X040863D01*
X040963D02*
X041153D01*
X041463D02*
X041653D01*
X041763D02*
X041953D01*
X042063D02*
X042253D01*
X042563D02*
X042753D01*
X042853D02*
X043053D01*
X043153D02*
X043353D01*
X040363Y033631D02*
X040563D01*
X040663D02*
X040863D01*
X040963D02*
X041153D01*
X041463D02*
X041653D01*
X041763D02*
X041953D01*
X042063D02*
X042253D01*
X042563D02*
X042753D01*
X042853D02*
X043053D01*
X043153D02*
X043353D01*
X040363Y033621D02*
X040563D01*
X040663D02*
X040863D01*
X040963D02*
X041153D01*
X041463D02*
X041653D01*
X041763D02*
X041953D01*
X042063D02*
X042253D01*
X042563D02*
X042753D01*
X042853D02*
X043053D01*
X043153D02*
X043353D01*
X040363Y033611D02*
X040563D01*
X040663D02*
X040863D01*
X040963D02*
X041153D01*
X041463D02*
X041653D01*
X041763D02*
X041953D01*
X042063D02*
X042253D01*
X042563D02*
X042753D01*
X042853D02*
X043053D01*
X043153D02*
X043353D01*
X040363Y033601D02*
X040563D01*
X040663D02*
X040863D01*
X040963D02*
X041153D01*
X041463D02*
X041653D01*
X041763D02*
X041953D01*
X042063D02*
X042253D01*
X042563D02*
X042753D01*
X042853D02*
X043053D01*
X043153D02*
X043353D01*
X040363Y033591D02*
X040563D01*
X040663D02*
X040863D01*
X040963D02*
X041153D01*
X041463D02*
X041653D01*
X041763D02*
X041953D01*
X042063D02*
X042253D01*
X042563D02*
X042753D01*
X042853D02*
X043053D01*
X043153D02*
X043353D01*
X040363Y033581D02*
X040563D01*
X040663D02*
X040863D01*
X040963D02*
X041153D01*
X041463D02*
X041653D01*
X041763D02*
X041953D01*
X042063D02*
X042253D01*
X042563D02*
X042753D01*
X042853D02*
X043053D01*
X043153D02*
X043353D01*
X040363Y033571D02*
X040563D01*
X040663D02*
X040863D01*
X040963D02*
X041153D01*
X041463D02*
X041653D01*
X041763D02*
X041953D01*
X042063D02*
X042253D01*
X042563D02*
X042753D01*
X042853D02*
X043053D01*
X043153D02*
X043353D01*
X040363Y033561D02*
X040563D01*
X040663D02*
X040863D01*
X040963D02*
X041153D01*
X041463D02*
X041653D01*
X041763D02*
X041953D01*
X042063D02*
X042253D01*
X042563D02*
X042753D01*
X042853D02*
X043053D01*
X043153D02*
X043353D01*
X040363Y033551D02*
X040563D01*
X040663D02*
X040863D01*
X040963D02*
X041153D01*
X041463D02*
X041653D01*
X041763D02*
X041953D01*
X042063D02*
X042253D01*
X042563D02*
X042753D01*
X042853D02*
X043053D01*
X043153D02*
X043353D01*
X040363Y033541D02*
X040563D01*
X040663D02*
X040863D01*
X040963D02*
X041153D01*
X041463D02*
X041653D01*
X041763D02*
X041953D01*
X042063D02*
X042253D01*
X042563D02*
X042753D01*
X042853D02*
X043053D01*
X043153D02*
X043353D01*
X040363Y033531D02*
X040563D01*
X040663D02*
X040863D01*
X040963D02*
X041153D01*
X041463D02*
X041653D01*
X041763D02*
X041953D01*
X042063D02*
X042253D01*
X042563D02*
X042753D01*
X042853D02*
X043053D01*
X043153D02*
X043353D01*
X040363Y033521D02*
X040563D01*
X040663D02*
X040863D01*
X040963D02*
X041153D01*
X041463D02*
X041653D01*
X041763D02*
X041953D01*
X042063D02*
X042253D01*
X042563D02*
X042753D01*
X042853D02*
X043053D01*
X043153D02*
X043353D01*
X040363Y033511D02*
X040563D01*
X040663D02*
X040863D01*
X040963D02*
X041153D01*
X041463D02*
X041653D01*
X041763D02*
X041953D01*
X042063D02*
X042253D01*
X042563D02*
X042753D01*
X042853D02*
X043053D01*
X043153D02*
X043353D01*
X040363Y033501D02*
X040563D01*
X040663D02*
X040863D01*
X040963D02*
X041153D01*
X041463D02*
X041653D01*
X041763D02*
X041953D01*
X042063D02*
X042253D01*
X042563D02*
X042753D01*
X042853D02*
X043053D01*
X043153D02*
X043353D01*
X040363Y033491D02*
X040563D01*
X040663D02*
X040863D01*
X040963D02*
X041153D01*
X041463D02*
X041653D01*
X041763D02*
X041953D01*
X042063D02*
X042253D01*
X042563D02*
X042753D01*
X042853D02*
X043053D01*
X043153D02*
X043353D01*
X040363Y033481D02*
X040563D01*
X040663D02*
X040863D01*
X040963D02*
X041153D01*
X041463D02*
X041653D01*
X041763D02*
X041953D01*
X042063D02*
X042253D01*
X042563D02*
X042753D01*
X042853D02*
X043053D01*
X043153D02*
X043353D01*
X040363Y033471D02*
X040563D01*
X040663D02*
X040863D01*
X040963D02*
X041153D01*
X041463D02*
X041653D01*
X041763D02*
X041953D01*
X042063D02*
X042253D01*
X042563D02*
X042753D01*
X042853D02*
X043053D01*
X043153D02*
X043353D01*
X040363Y033461D02*
X040563D01*
X040663D02*
X040863D01*
X040963D02*
X041153D01*
X041463D02*
X041653D01*
X041763D02*
X041953D01*
X042063D02*
X042253D01*
X042563D02*
X042753D01*
X042853D02*
X043053D01*
X043153D02*
X043353D01*
X040363Y033451D02*
X040563D01*
X040663D02*
X040863D01*
X040963D02*
X041153D01*
X041463D02*
X041653D01*
X041763D02*
X041953D01*
X042063D02*
X042253D01*
X042563D02*
X042753D01*
X042853D02*
X043053D01*
X043153D02*
X043353D01*
X040363Y033441D02*
X040563D01*
X040663D02*
X040863D01*
X040963D02*
X041153D01*
X041463D02*
X041653D01*
X041763D02*
X041953D01*
X042063D02*
X042253D01*
X042563D02*
X042753D01*
X042853D02*
X043053D01*
X043153D02*
X043353D01*
X040363Y033431D02*
X040563D01*
X040663D02*
X040863D01*
X040963D02*
X041153D01*
X041463D02*
X041653D01*
X041763D02*
X041953D01*
X042063D02*
X042253D01*
X042563D02*
X042753D01*
X042853D02*
X043053D01*
X043153D02*
X043353D01*
X040363Y033421D02*
X040563D01*
X040663D02*
X040863D01*
X040963D02*
X041153D01*
X041463D02*
X041653D01*
X041763D02*
X041953D01*
X042063D02*
X042253D01*
X042563D02*
X042753D01*
X042853D02*
X043053D01*
X043153D02*
X043353D01*
X040363Y033411D02*
X040563D01*
X040663D02*
X040863D01*
X040963D02*
X041153D01*
X041463D02*
X041653D01*
X041763D02*
X041953D01*
X042063D02*
X042253D01*
X042563D02*
X042753D01*
X042853D02*
X043053D01*
X043153D02*
X043353D01*
X040363Y033401D02*
X040563D01*
X040663D02*
X040863D01*
X040963D02*
X041153D01*
X041463D02*
X041653D01*
X041763D02*
X041953D01*
X042063D02*
X042253D01*
X042563D02*
X042753D01*
X042853D02*
X043053D01*
X043153D02*
X043353D01*
X040363Y033391D02*
X040563D01*
X040663D02*
X040863D01*
X040963D02*
X041153D01*
X041463D02*
X041653D01*
X041763D02*
X041953D01*
X042063D02*
X042253D01*
X042563D02*
X042753D01*
X042853D02*
X043053D01*
X043153D02*
X043353D01*
X040363Y033381D02*
X040563D01*
X040663D02*
X040863D01*
X040963D02*
X041153D01*
X041463D02*
X041653D01*
X041763D02*
X041953D01*
X042063D02*
X042253D01*
X042563D02*
X042753D01*
X042853D02*
X043053D01*
X043153D02*
X043353D01*
X040363Y033371D02*
X040563D01*
X040663D02*
X040863D01*
X040963D02*
X041153D01*
X041463D02*
X041653D01*
X041763D02*
X041953D01*
X042063D02*
X042253D01*
X042563D02*
X042753D01*
X042853D02*
X043053D01*
X043153D02*
X043353D01*
X040363Y033361D02*
X040563D01*
X040663D02*
X040863D01*
X040963D02*
X041153D01*
X041463D02*
X041653D01*
X041763D02*
X041953D01*
X042063D02*
X042253D01*
X042563D02*
X042753D01*
X042853D02*
X043053D01*
X043153D02*
X043353D01*
X040363Y033351D02*
X040563D01*
X040663D02*
X040863D01*
X040963D02*
X041153D01*
X041463D02*
X041653D01*
X041763D02*
X041953D01*
X042063D02*
X042253D01*
X042563D02*
X042753D01*
X042853D02*
X043053D01*
X043153D02*
X043353D01*
X040363Y033341D02*
X040563D01*
X040663D02*
X040863D01*
X040963D02*
X041153D01*
X041463D02*
X041653D01*
X041763D02*
X041953D01*
X042063D02*
X042253D01*
X042563D02*
X042753D01*
X042853D02*
X043053D01*
X043153D02*
X043353D01*
X040363Y033331D02*
X040563D01*
X040663D02*
X040863D01*
X040963D02*
X041153D01*
X041463D02*
X041653D01*
X041763D02*
X041953D01*
X042063D02*
X042253D01*
X042563D02*
X042753D01*
X042853D02*
X043053D01*
X043153D02*
X043353D01*
X040363Y033321D02*
X040563D01*
X040663D02*
X040863D01*
X040963D02*
X041153D01*
X041463D02*
X041653D01*
X041763D02*
X041953D01*
X042063D02*
X042253D01*
X042563D02*
X042753D01*
X042853D02*
X043053D01*
X043153D02*
X043353D01*
X040363Y033311D02*
X040563D01*
X040663D02*
X040863D01*
X040963D02*
X041153D01*
X041463D02*
X041653D01*
X041763D02*
X041953D01*
X042063D02*
X042253D01*
X042553D02*
X042753D01*
X042853D02*
X043053D01*
X043153D02*
X043353D01*
X040363Y033301D02*
X040563D01*
X040663D02*
X040863D01*
X040963D02*
X041153D01*
X041463D02*
X041653D01*
X041763D02*
X041953D01*
X042063D02*
X042253D01*
X042553D02*
X042753D01*
X042853D02*
X043053D01*
X043153D02*
X043353D01*
X040363Y033291D02*
X040563D01*
X040663D02*
X040863D01*
X040963D02*
X041153D01*
X041463D02*
X041653D01*
X041763D02*
X041953D01*
X042063D02*
X042253D01*
X042553D02*
X042753D01*
X042853D02*
X043053D01*
X043153D02*
X043353D01*
X040363Y033281D02*
X040563D01*
X040663D02*
X040863D01*
X040963D02*
X041163D01*
X041463D02*
X041653D01*
X041763D02*
X041953D01*
X042063D02*
X042253D01*
X042553D02*
X042753D01*
X042853D02*
X043053D01*
X043153D02*
X043353D01*
X040363Y033271D02*
X040563D01*
X040663D02*
X040863D01*
X040963D02*
X041163D01*
X041463D02*
X041653D01*
X041763D02*
X041953D01*
X042063D02*
X042253D01*
X042553D02*
X042753D01*
X042853D02*
X043053D01*
X043153D02*
X043353D01*
X040363Y033261D02*
X040563D01*
X040663D02*
X040863D01*
X040963D02*
X041163D01*
X041463D02*
X041653D01*
X041763D02*
X041953D01*
X042063D02*
X042253D01*
X042553D02*
X042753D01*
X042853D02*
X043053D01*
X043153D02*
X043353D01*
X040363Y033251D02*
X040563D01*
X040663D02*
X040863D01*
X040963D02*
X041163D01*
X041463D02*
X041653D01*
X041763D02*
X041953D01*
X042063D02*
X042253D01*
X042553D02*
X042753D01*
X042853D02*
X043053D01*
X043153D02*
X043353D01*
X040363Y033241D02*
X040563D01*
X040663D02*
X040863D01*
X040963D02*
X041163D01*
X041463D02*
X041653D01*
X041763D02*
X041953D01*
X042063D02*
X042253D01*
X042553D02*
X042753D01*
X042853D02*
X043053D01*
X043153D02*
X043353D01*
X040363Y033231D02*
X040563D01*
X040663D02*
X040863D01*
X040963D02*
X041163D01*
X041463D02*
X041653D01*
X041763D02*
X041953D01*
X042063D02*
X042253D01*
X042553D02*
X042753D01*
X042853D02*
X043053D01*
X043153D02*
X043353D01*
X040363Y033221D02*
X040563D01*
X040663D02*
X040863D01*
X040963D02*
X041163D01*
X041463D02*
X041653D01*
X041763D02*
X041953D01*
X042063D02*
X042253D01*
X042553D02*
X042753D01*
X042853D02*
X043053D01*
X043153D02*
X043353D01*
X040363Y033211D02*
X040563D01*
X040663D02*
X040863D01*
X040963D02*
X041163D01*
X041463D02*
X041653D01*
X041763D02*
X041953D01*
X042063D02*
X042253D01*
X042553D02*
X042753D01*
X042853D02*
X043053D01*
X043153D02*
X043353D01*
X040363Y033201D02*
X040563D01*
X040663D02*
X040863D01*
X040963D02*
X041163D01*
X041463D02*
X041653D01*
X041763D02*
X041953D01*
X042063D02*
X042253D01*
X042553D02*
X042753D01*
X042853D02*
X043053D01*
X043153D02*
X043343D01*
X040373Y033191D02*
X040563D01*
X040663D02*
X040863D01*
X040963D02*
X041163D01*
X041463D02*
X041653D01*
X041763D02*
X041953D01*
X042063D02*
X042253D01*
X042553D02*
X042753D01*
X042853D02*
X043053D01*
X043153D02*
X043343D01*
X040373Y033181D02*
X040563D01*
X040663D02*
X040863D01*
X040963D02*
X041163D01*
X041463D02*
X041653D01*
X041763D02*
X041953D01*
X042063D02*
X042253D01*
X042553D02*
X042753D01*
X042853D02*
X043043D01*
X043153D02*
X043343D01*
X040373Y033171D02*
X040563D01*
X040673D02*
X040863D01*
X040963D02*
X041163D01*
X041463D02*
X041653D01*
X041763D02*
X041953D01*
X042063D02*
X042253D01*
X042553D02*
X042753D01*
X042853D02*
X043043D01*
X043153D02*
X043343D01*
X040373Y033161D02*
X040563D01*
X040673D02*
X040863D01*
X040963D02*
X041163D01*
X041463D02*
X041653D01*
X041763D02*
X041953D01*
X042063D02*
X042253D01*
X042553D02*
X042753D01*
X042853D02*
X043043D01*
X043153D02*
X043343D01*
X040373Y033151D02*
X040563D01*
X040673D02*
X040863D01*
X040963D02*
X041163D01*
X041463D02*
X041653D01*
X041763D02*
X041953D01*
X042063D02*
X042253D01*
X042553D02*
X042743D01*
X042853D02*
X043043D01*
X043153D02*
X043343D01*
X040373Y033141D02*
X040573D01*
X040673D02*
X040863D01*
X040973D02*
X041163D01*
X041463D02*
X041653D01*
X041763D02*
X041953D01*
X042063D02*
X042253D01*
X042553D02*
X042743D01*
X042853D02*
X043043D01*
X043153D02*
X043343D01*
X040373Y033131D02*
X040573D01*
X040673D02*
X040863D01*
X040973D02*
X041163D01*
X041463D02*
X041653D01*
X041763D02*
X041953D01*
X042063D02*
X042253D01*
X042553D02*
X042743D01*
X042853D02*
X043043D01*
X043143D02*
X043343D01*
X040373Y033121D02*
X040573D01*
X040673D02*
X040863D01*
X040973D02*
X041163D01*
X041463D02*
X041653D01*
X041763D02*
X041953D01*
X042063D02*
X042253D01*
X042553D02*
X042743D01*
X042853D02*
X043043D01*
X043143D02*
X043343D01*
X040373Y033111D02*
X040573D01*
X040673D02*
X040873D01*
X040973D02*
X041163D01*
X041463D02*
X041653D01*
X041763D02*
X041953D01*
X042063D02*
X042253D01*
X042553D02*
X042743D01*
X042843D02*
X043043D01*
X043143D02*
X043333D01*
X040383Y033101D02*
X040573D01*
X040673D02*
X040873D01*
X040973D02*
X041163D01*
X041463D02*
X041653D01*
X041763D02*
X041953D01*
X042063D02*
X042253D01*
X042553D02*
X042743D01*
X042843D02*
X043043D01*
X043143D02*
X043333D01*
X040383Y033091D02*
X040573D01*
X040673D02*
X040873D01*
X040973D02*
X041163D01*
X041463D02*
X041653D01*
X041763D02*
X041953D01*
X042063D02*
X042253D01*
X042553D02*
X042743D01*
X042843D02*
X043033D01*
X043143D02*
X043333D01*
X040383Y033081D02*
X040573D01*
X040683D02*
X040873D01*
X040973D02*
X041163D01*
X041463D02*
X041653D01*
X041763D02*
X041953D01*
X042063D02*
X042253D01*
X042553D02*
X042743D01*
X042843D02*
X043033D01*
X043143D02*
X043333D01*
X040383Y033071D02*
X040583D01*
X040683D02*
X040873D01*
X040973D02*
X041163D01*
X041463D02*
X041653D01*
X041763D02*
X041953D01*
X042063D02*
X042253D01*
X042553D02*
X042743D01*
X042843D02*
X043033D01*
X043133D02*
X043333D01*
X040383Y033061D02*
X040583D01*
X040683D02*
X040873D01*
X040973D02*
X041163D01*
X041463D02*
X041653D01*
X041763D02*
X041953D01*
X042063D02*
X042253D01*
X042553D02*
X042743D01*
X042843D02*
X043033D01*
X043133D02*
X043333D01*
X040393Y033051D02*
X040583D01*
X040683D02*
X040873D01*
X040983D02*
X041173D01*
X041463D02*
X041653D01*
X041763D02*
X041953D01*
X042063D02*
X042253D01*
X042543D02*
X042733D01*
X042843D02*
X043033D01*
X043133D02*
X043323D01*
X040393Y033041D02*
X040583D01*
X040683D02*
X040883D01*
X040983D02*
X041173D01*
X041463D02*
X041653D01*
X041763D02*
X041953D01*
X042063D02*
X042253D01*
X042543D02*
X042733D01*
X042833D02*
X043033D01*
X043133D02*
X043323D01*
X040393Y033031D02*
X040583D01*
X040693D02*
X040883D01*
X040983D02*
X041173D01*
X041463D02*
X041653D01*
X041763D02*
X041953D01*
X042063D02*
X042253D01*
X042543D02*
X042733D01*
X042833D02*
X043023D01*
X043133D02*
X043323D01*
X040393Y033021D02*
X040593D01*
X040693D02*
X040883D01*
X040983D02*
X041173D01*
X041463D02*
X041653D01*
X041763D02*
X041953D01*
X042063D02*
X042253D01*
X042543D02*
X042733D01*
X042833D02*
X043023D01*
X043123D02*
X043323D01*
X040393Y033011D02*
X040593D01*
X040693D02*
X040883D01*
X040983D02*
X041173D01*
X041463D02*
X041653D01*
X041763D02*
X041953D01*
X042063D02*
X042253D01*
X042543D02*
X042733D01*
X042833D02*
X043023D01*
X043123D02*
X043313D01*
X040403Y033001D02*
X040593D01*
X040693D02*
X040883D01*
X040983D02*
X041173D01*
X041463D02*
X041653D01*
X041763D02*
X041953D01*
X042063D02*
X042253D01*
X042543D02*
X042733D01*
X042833D02*
X043023D01*
X043123D02*
X043313D01*
X040403Y032991D02*
X040593D01*
X040703D02*
X040893D01*
X040993D02*
X041173D01*
X041463D02*
X041653D01*
X041763D02*
X041953D01*
X042063D02*
X042253D01*
X042543D02*
X042723D01*
X042823D02*
X043013D01*
X043123D02*
X043313D01*
X040403Y032981D02*
X040603D01*
X040703D02*
X040893D01*
X040993D02*
X041173D01*
X042543D02*
X042723D01*
X042823D02*
X043013D01*
X043113D02*
X043303D01*
X040413Y032971D02*
X040603D01*
X040703D02*
X040893D01*
X040993D02*
X041173D01*
X042543D02*
X042723D01*
X042823D02*
X043013D01*
X043113D02*
X043303D01*
X040413Y032961D02*
X040603D01*
X040703D02*
X040893D01*
X040993D02*
X041173D01*
X042543D02*
X042723D01*
X042823D02*
X043003D01*
X043113D02*
X043303D01*
X040413Y032951D02*
X040613D01*
X040713D02*
X040903D01*
X041003D02*
X041183D01*
X042533D02*
X042713D01*
X042813D02*
X043003D01*
X043103D02*
X043293D01*
X040423Y032941D02*
X040613D01*
X040713D02*
X040903D01*
X041003D02*
X041183D01*
X042533D02*
X042713D01*
X042813D02*
X043003D01*
X043103D02*
X043293D01*
X040423Y032931D02*
X040613D01*
X040713D02*
X040903D01*
X041003D02*
X041183D01*
X042533D02*
X042713D01*
X042813D02*
X042993D01*
X043103D02*
X043293D01*
X040433Y032921D02*
X040623D01*
X040723D02*
X040913D01*
X041003D02*
X041183D01*
X042533D02*
X042713D01*
X042813D02*
X042993D01*
X043093D02*
X043283D01*
X040433Y032911D02*
X040623D01*
X040723D02*
X040913D01*
X041013D02*
X041183D01*
X042533D02*
X042703D01*
X042803D02*
X042993D01*
X043093D02*
X043283D01*
X040433Y032901D02*
X040633D01*
X040733D02*
X040913D01*
X041013D02*
X041183D01*
X042533D02*
X042703D01*
X042803D02*
X042983D01*
X043093D02*
X043273D01*
X040443Y032891D02*
X040633D01*
X040733D02*
X040913D01*
X041013D02*
X041193D01*
X042533D02*
X042703D01*
X042803D02*
X042983D01*
X043083D02*
X043273D01*
X040443Y032881D02*
X040633D01*
X040733D02*
X040923D01*
X041013D02*
X041193D01*
X042523D02*
X042693D01*
X042793D02*
X042973D01*
X043083D02*
X043273D01*
X040453Y032871D02*
X040643D01*
X040743D02*
X040923D01*
X041023D02*
X041193D01*
X042523D02*
X042693D01*
X042793D02*
X042973D01*
X043073D02*
X043263D01*
X040453Y032861D02*
X040643D01*
X040743D02*
X040923D01*
X041023D02*
X041193D01*
X042523D02*
X042693D01*
X042793D02*
X042963D01*
X043073D02*
X043253D01*
X040463Y032851D02*
X040653D01*
X040753D02*
X040933D01*
X041033D02*
X041193D01*
X042523D02*
X042683D01*
X042783D02*
X042963D01*
X043063D02*
X043253D01*
X040473Y032841D02*
X040653D01*
X040753D02*
X040933D01*
X041033D02*
X041193D01*
X042523D02*
X042683D01*
X042783D02*
X042953D01*
X043063D02*
X043243D01*
X040473Y032831D02*
X040663D01*
X040763D02*
X040943D01*
X041033D02*
X041203D01*
X042513D02*
X042683D01*
X042773D02*
X042953D01*
X043053D02*
X043243D01*
X040483Y032821D02*
X040663D01*
X040773D02*
X040943D01*
X041043D02*
X041203D01*
X042513D02*
X042673D01*
X042773D02*
X042943D01*
X043053D02*
X043233D01*
X040483Y032811D02*
X040673D01*
X040773D02*
X040953D01*
X041043D02*
X041203D01*
X042513D02*
X042673D01*
X042763D02*
X042943D01*
X043043D02*
X043223D01*
X040493Y032801D02*
X040683D01*
X040783D02*
X040953D01*
X041053D02*
X041203D01*
X042513D02*
X042663D01*
X042763D02*
X042933D01*
X043033D02*
X043223D01*
X040503Y032791D02*
X040683D01*
X040783D02*
X040963D01*
X041053D02*
X041213D01*
X042513D02*
X042663D01*
X042753D02*
X042933D01*
X043033D02*
X043213D01*
X040503Y032781D02*
X040693D01*
X040793D02*
X040963D01*
X041063D02*
X041213D01*
X042503D02*
X042653D01*
X042753D02*
X042923D01*
X043023D02*
X043203D01*
X040513Y032771D02*
X040703D01*
X040803D02*
X040973D01*
X041063D02*
X041213D01*
X042503D02*
X042653D01*
X042743D02*
X042913D01*
X043013D02*
X043203D01*
X040523Y032761D02*
X040703D01*
X040803D02*
X040973D01*
X041073D02*
X041213D01*
X042503D02*
X042643D01*
X042743D02*
X042903D01*
X043013D02*
X043193D01*
X040533Y032751D02*
X040713D01*
X040813D02*
X040983D01*
X041073D02*
X041223D01*
X042503D02*
X042643D01*
X042733D02*
X042903D01*
X043003D02*
X043183D01*
X040543Y032741D02*
X040723D01*
X040823D02*
X040983D01*
X041083D02*
X041223D01*
X042493D02*
X042633D01*
X042733D02*
X042893D01*
X042993D02*
X043173D01*
X040553Y032731D02*
X040733D01*
X040833D02*
X040993D01*
X041083D02*
X041223D01*
X042493D02*
X042623D01*
X042723D02*
X042883D01*
X042993D02*
X043163D01*
X040553Y032721D02*
X040733D01*
X040843D02*
X041003D01*
X041093D02*
X041223D01*
X042493D02*
X042623D01*
X042723D02*
X042873D01*
X042983D02*
X043153D01*
X040563Y032711D02*
X040743D01*
X040853D02*
X041003D01*
X041103D02*
X041233D01*
X042483D02*
X042613D01*
X042713D02*
X042863D01*
X042973D02*
X043143D01*
X040573Y032701D02*
X040753D01*
X040863D02*
X041013D01*
X041103D02*
X041233D01*
X042483D02*
X042613D01*
X042703D02*
X042853D01*
X042963D02*
X043133D01*
X040593Y032691D02*
X040763D01*
X040873D02*
X041023D01*
X041113D02*
X041233D01*
X042483D02*
X042603D01*
X042703D02*
X042843D01*
X042953D02*
X043123D01*
X040603Y032681D02*
X040773D01*
X040873D02*
X041023D01*
X041123D02*
X041243D01*
X042473D02*
X042593D01*
X042693D02*
X042833D01*
X042943D02*
X043113D01*
X040613Y032671D02*
X040783D01*
X040893D02*
X041033D01*
X041133D02*
X041243D01*
X042473D02*
X042583D01*
X042683D02*
X042823D01*
X042933D02*
X043103D01*
X040623Y032661D02*
X040793D01*
X040903D02*
X041043D01*
X041133D02*
X041253D01*
X042473D02*
X042583D01*
X042673D02*
X042813D01*
X042923D02*
X043093D01*
X040633Y032651D02*
X040803D01*
X040913D02*
X041053D01*
X041143D02*
X041253D01*
X042463D02*
X042573D01*
X042663D02*
X042803D01*
X042913D02*
X043083D01*
X040653Y032641D02*
X040813D01*
X040923D02*
X041053D01*
X041153D02*
X041253D01*
X042463D02*
X042563D01*
X042663D02*
X042793D01*
X042903D02*
X043063D01*
X040663Y032631D02*
X040823D01*
X040933D02*
X041063D01*
X041163D02*
X041263D01*
X042453D02*
X042553D01*
X042653D02*
X042783D01*
X042893D02*
X043053D01*
X040673Y032621D02*
X040833D01*
X040953D02*
X041073D01*
X041173D02*
X041263D01*
X042453D02*
X042543D01*
X042643D02*
X042763D01*
X042883D02*
X043033D01*
X040693Y032611D02*
X040853D01*
X040963D02*
X041083D01*
X041183D02*
X041273D01*
X042443D02*
X042533D01*
X042633D02*
X042753D01*
X042863D02*
X043023D01*
X040713Y032601D02*
X040863D01*
X040983D02*
X041093D01*
X041193D02*
X041273D01*
X042443D02*
X042523D01*
X042623D02*
X042733D01*
X042853D02*
X043003D01*
X040723Y032591D02*
X040883D01*
X040993D02*
X041103D01*
X041203D02*
X041283D01*
X042433D02*
X042513D01*
X042613D02*
X042723D01*
X042843D02*
X042983D01*
X040743Y032581D02*
X040893D01*
X041013D02*
X041113D01*
X041213D02*
X041283D01*
X042433D02*
X042503D01*
X042603D02*
X042703D01*
X042823D02*
X042963D01*
X040763Y032571D02*
X040913D01*
X041023D02*
X041123D01*
X041223D02*
X041293D01*
X042423D02*
X042493D01*
X042593D02*
X042683D01*
X042813D02*
X042943D01*
X040793Y032561D02*
X040923D01*
X041043D02*
X041133D01*
X041233D02*
X041293D01*
X042423D02*
X042473D01*
X042583D02*
X042663D01*
X042793D02*
X042923D01*
X040813Y032551D02*
X040943D01*
X041063D02*
X041143D01*
X041253D02*
X041303D01*
X042413D02*
X042463D01*
X042573D02*
X042643D01*
X042773D02*
X042903D01*
X040843Y032541D02*
X040953D01*
X041083D02*
X041153D01*
X041263D02*
X041313D01*
X042403D02*
X042453D01*
X042563D02*
X042623D01*
X042763D02*
X042873D01*
X040873Y032531D02*
X040973D01*
X041113D02*
X041173D01*
X041283D02*
X041323D01*
X042403D02*
X042433D01*
X042543D02*
X042603D01*
X042743D02*
X042843D01*
X040903Y032521D02*
X040993D01*
X041133D02*
X041183D01*
X041293D02*
X041323D01*
X042393D02*
X042423D01*
X042533D02*
X042583D01*
X042723D02*
X042813D01*
X040933Y032511D02*
X041013D01*
X041163D02*
X041193D01*
X041313D02*
X041333D01*
X042383D02*
X042403D01*
X042523D02*
X042553D01*
X042703D02*
X042773D01*
X040983Y032501D02*
X041033D01*
X041183D02*
X041203D01*
X041333D02*
X041343D01*
X042693D02*
X042733D01*
X041043Y032491D02*
X041053D01*
X041873Y031901D02*
X042003D01*
X041803Y031891D02*
X042063D01*
X040543Y031881D02*
X040793D01*
X041763D02*
X042103D01*
X042553D02*
X042743D01*
X040553Y031871D02*
X040823D01*
X041733D02*
X042143D01*
X042563D02*
X042773D01*
X043113D02*
X043353D01*
X040563Y031861D02*
X040843D01*
X041703D02*
X042143D01*
X042573D02*
X042793D01*
X043113D02*
X043353D01*
X040573Y031851D02*
X040853D01*
X041683D02*
X042143D01*
X042583D02*
X042803D01*
X043113D02*
X043353D01*
X040573Y031841D02*
X040863D01*
X041663D02*
X042143D01*
X042583D02*
X042813D01*
X043113D02*
X043353D01*
X040583Y031831D02*
X040873D01*
X041643D02*
X042143D01*
X042593D02*
X042823D01*
X043113D02*
X043353D01*
X040583Y031821D02*
X040883D01*
X041633D02*
X042143D01*
X042593D02*
X042823D01*
X043113D02*
X043353D01*
X040583Y031811D02*
X040883D01*
X041613D02*
X042143D01*
X042593D02*
X042833D01*
X043113D02*
X043353D01*
X040583Y031801D02*
X040893D01*
X041603D02*
X042143D01*
X042603D02*
X042833D01*
X043113D02*
X043353D01*
X040583Y031791D02*
X040893D01*
X041583D02*
X042143D01*
X042603D02*
X042833D01*
X043113D02*
X043353D01*
X040583Y031781D02*
X040893D01*
X041573D02*
X042143D01*
X042603D02*
X042833D01*
X043113D02*
X043353D01*
X040583Y031771D02*
X040903D01*
X041563D02*
X042143D01*
X042603D02*
X042833D01*
X043113D02*
X043353D01*
X040573Y031761D02*
X040903D01*
X041553D02*
X042143D01*
X042603D02*
X042833D01*
X043113D02*
X043353D01*
X040573Y031751D02*
X040903D01*
X041543D02*
X041903D01*
X041983D02*
X042143D01*
X042603D02*
X042833D01*
X043113D02*
X043353D01*
X040573Y031741D02*
X040913D01*
X041533D02*
X041853D01*
X042033D02*
X042143D01*
X042603D02*
X042833D01*
X043113D02*
X043353D01*
X040563Y031731D02*
X040913D01*
X041523D02*
X041823D01*
X042073D02*
X042143D01*
X042603D02*
X042833D01*
X043113D02*
X043353D01*
X040563Y031721D02*
X040923D01*
X041513D02*
X041803D01*
X042093D02*
X042143D01*
X042603D02*
X042833D01*
X043113D02*
X043353D01*
X040563Y031711D02*
X040923D01*
X041513D02*
X041783D01*
X042113D02*
X042143D01*
X042603D02*
X042833D01*
X043113D02*
X043353D01*
X040553Y031701D02*
X040923D01*
X041503D02*
X041773D01*
X042133D02*
X042143D01*
X042603D02*
X042833D01*
X043113D02*
X043353D01*
X040553Y031691D02*
X040933D01*
X041493D02*
X041763D01*
X042603D02*
X042833D01*
X043113D02*
X043353D01*
X040553Y031681D02*
X040933D01*
X041483D02*
X041753D01*
X042603D02*
X042833D01*
X043113D02*
X043353D01*
X040543Y031671D02*
X040933D01*
X041483D02*
X041743D01*
X042603D02*
X042833D01*
X043113D02*
X043353D01*
X040543Y031661D02*
X040943D01*
X041473D02*
X041733D01*
X042603D02*
X042833D01*
X043113D02*
X043353D01*
X040543Y031651D02*
X040943D01*
X041473D02*
X041723D01*
X042603D02*
X042833D01*
X043113D02*
X043353D01*
X040533Y031641D02*
X040693D01*
X040703D02*
X040943D01*
X041463D02*
X041713D01*
X042603D02*
X042833D01*
X043113D02*
X043353D01*
X040533Y031631D02*
X040693D01*
X040713D02*
X040953D01*
X041463D02*
X041713D01*
X042603D02*
X042833D01*
X043113D02*
X043353D01*
X040533Y031621D02*
X040683D01*
X040713D02*
X040953D01*
X041453D02*
X041703D01*
X042603D02*
X042833D01*
X043113D02*
X043353D01*
X040523Y031611D02*
X040683D01*
X040713D02*
X040953D01*
X041453D02*
X041693D01*
X042603D02*
X042833D01*
X043113D02*
X043353D01*
X040523Y031601D02*
X040683D01*
X040723D02*
X040963D01*
X041443D02*
X041693D01*
X042603D02*
X042833D01*
X043113D02*
X043353D01*
X040523Y031591D02*
X040673D01*
X040723D02*
X040963D01*
X041443D02*
X041683D01*
X042603D02*
X042833D01*
X043113D02*
X043353D01*
X040513Y031581D02*
X040673D01*
X040733D02*
X040973D01*
X041443D02*
X041683D01*
X042603D02*
X042833D01*
X043113D02*
X043353D01*
X040513Y031571D02*
X040673D01*
X040733D02*
X040973D01*
X041433D02*
X041683D01*
X042603D02*
X042833D01*
X043113D02*
X043353D01*
X040513Y031561D02*
X040663D01*
X040733D02*
X040973D01*
X041433D02*
X041673D01*
X042603D02*
X042833D01*
X043113D02*
X043353D01*
X040503Y031551D02*
X040663D01*
X040743D02*
X040983D01*
X041433D02*
X041673D01*
X042603D02*
X042833D01*
X043113D02*
X043353D01*
X040503Y031541D02*
X040663D01*
X040743D02*
X040983D01*
X041433D02*
X041673D01*
X042603D02*
X042833D01*
X043113D02*
X043353D01*
X040503Y031531D02*
X040653D01*
X040743D02*
X040983D01*
X041433D02*
X041673D01*
X042603D02*
X042833D01*
X043113D02*
X043353D01*
X040493Y031521D02*
X040653D01*
X040753D02*
X040993D01*
X041423D02*
X041663D01*
X042603D02*
X042833D01*
X043113D02*
X043353D01*
X040493Y031511D02*
X040653D01*
X040753D02*
X040993D01*
X041423D02*
X041663D01*
X041923D02*
X042123D01*
X042603D02*
X043353D01*
X040493Y031501D02*
X040643D01*
X040753D02*
X040993D01*
X041423D02*
X041663D01*
X041933D02*
X042153D01*
X042603D02*
X043353D01*
X040483Y031491D02*
X040643D01*
X040763D02*
X041003D01*
X041423D02*
X041663D01*
X041943D02*
X042163D01*
X042603D02*
X043353D01*
X040483Y031481D02*
X040643D01*
X040763D02*
X041003D01*
X041423D02*
X041663D01*
X041943D02*
X042173D01*
X042603D02*
X043353D01*
X040483Y031471D02*
X040633D01*
X040763D02*
X041003D01*
X041423D02*
X041663D01*
X041953D02*
X042183D01*
X042603D02*
X043353D01*
X040473Y031461D02*
X040633D01*
X040773D02*
X041013D01*
X041423D02*
X041663D01*
X041953D02*
X042183D01*
X042603D02*
X043353D01*
X040473Y031451D02*
X040633D01*
X040773D02*
X041013D01*
X041413D02*
X041663D01*
X041963D02*
X042193D01*
X042603D02*
X043353D01*
X040473Y031441D02*
X040623D01*
X040773D02*
X041013D01*
X041413D02*
X041663D01*
X041963D02*
X042193D01*
X042603D02*
X043353D01*
X040463Y031431D02*
X040623D01*
X040783D02*
X041023D01*
X041413D02*
X041663D01*
X041963D02*
X042193D01*
X042603D02*
X043353D01*
X040463Y031421D02*
X040623D01*
X040783D02*
X041023D01*
X041413D02*
X041663D01*
X041963D02*
X042193D01*
X042603D02*
X043353D01*
X040463Y031411D02*
X040613D01*
X040783D02*
X041033D01*
X041413D02*
X041663D01*
X041963D02*
X042193D01*
X042603D02*
X043353D01*
X040453Y031401D02*
X040613D01*
X040793D02*
X041033D01*
X041413D02*
X041663D01*
X041963D02*
X042193D01*
X042603D02*
X043353D01*
X040453Y031391D02*
X040613D01*
X040793D02*
X041033D01*
X041423D02*
X041663D01*
X041963D02*
X042193D01*
X042603D02*
X043353D01*
X040453Y031381D02*
X040603D01*
X040793D02*
X041043D01*
X041423D02*
X041663D01*
X041963D02*
X042193D01*
X042603D02*
X043353D01*
X040443Y031371D02*
X040603D01*
X040803D02*
X041043D01*
X041423D02*
X041663D01*
X041963D02*
X042193D01*
X042603D02*
X043353D01*
X040443Y031361D02*
X040603D01*
X040803D02*
X041043D01*
X041423D02*
X041663D01*
X041963D02*
X042193D01*
X042603D02*
X042833D01*
X043113D02*
X043353D01*
X040443Y031351D02*
X040603D01*
X040803D02*
X041053D01*
X041423D02*
X041673D01*
X041963D02*
X042193D01*
X042603D02*
X042833D01*
X043113D02*
X043353D01*
X040433Y031341D02*
X041053D01*
X041423D02*
X041673D01*
X041963D02*
X042193D01*
X042603D02*
X042833D01*
X043113D02*
X043353D01*
X040433Y031331D02*
X041053D01*
X041423D02*
X041673D01*
X041963D02*
X042193D01*
X042603D02*
X042833D01*
X043113D02*
X043353D01*
X040433Y031321D02*
X041063D01*
X041433D02*
X041673D01*
X041963D02*
X042193D01*
X042603D02*
X042833D01*
X043113D02*
X043353D01*
X040423Y031311D02*
X041063D01*
X041433D02*
X041673D01*
X041963D02*
X042193D01*
X042603D02*
X042833D01*
X043113D02*
X043353D01*
X040423Y031301D02*
X041063D01*
X041433D02*
X041683D01*
X041963D02*
X042193D01*
X042603D02*
X042833D01*
X043113D02*
X043353D01*
X040423Y031291D02*
X041073D01*
X041433D02*
X041683D01*
X041963D02*
X042193D01*
X042603D02*
X042833D01*
X043113D02*
X043353D01*
X040413Y031281D02*
X041073D01*
X041443D02*
X041683D01*
X041963D02*
X042193D01*
X042603D02*
X042833D01*
X043113D02*
X043353D01*
X040413Y031271D02*
X041083D01*
X041443D02*
X041693D01*
X041963D02*
X042193D01*
X042603D02*
X042833D01*
X043113D02*
X043353D01*
X040413Y031261D02*
X041083D01*
X041443D02*
X041693D01*
X041963D02*
X042193D01*
X042603D02*
X042833D01*
X043113D02*
X043353D01*
X040403Y031251D02*
X041083D01*
X041453D02*
X041693D01*
X041963D02*
X042193D01*
X042603D02*
X042833D01*
X043113D02*
X043353D01*
X040403Y031241D02*
X041093D01*
X041453D02*
X041703D01*
X041963D02*
X042193D01*
X042603D02*
X042833D01*
X043113D02*
X043353D01*
X040403Y031231D02*
X041093D01*
X041453D02*
X041703D01*
X041963D02*
X042193D01*
X042603D02*
X042833D01*
X043113D02*
X043353D01*
X040393Y031221D02*
X041093D01*
X041463D02*
X041713D01*
X041963D02*
X042193D01*
X042603D02*
X042833D01*
X043113D02*
X043353D01*
X040393Y031211D02*
X040553D01*
X040853D02*
X041103D01*
X041463D02*
X041713D01*
X041963D02*
X042193D01*
X042603D02*
X042833D01*
X043113D02*
X043353D01*
X040383Y031201D02*
X040543D01*
X040853D02*
X041103D01*
X041473D02*
X041723D01*
X041963D02*
X042193D01*
X042603D02*
X042833D01*
X043113D02*
X043353D01*
X040383Y031191D02*
X040543D01*
X040863D02*
X041103D01*
X041483D02*
X041733D01*
X041963D02*
X042193D01*
X042603D02*
X042833D01*
X043113D02*
X043353D01*
X040383Y031181D02*
X040543D01*
X040863D02*
X041113D01*
X041483D02*
X041743D01*
X041963D02*
X042193D01*
X042603D02*
X042833D01*
X043113D02*
X043353D01*
X040373Y031171D02*
X040533D01*
X040863D02*
X041113D01*
X041493D02*
X041753D01*
X041963D02*
X042193D01*
X042603D02*
X042833D01*
X043113D02*
X043353D01*
X040373Y031161D02*
X040533D01*
X040873D02*
X041113D01*
X041493D02*
X041763D01*
X041963D02*
X042193D01*
X042603D02*
X042833D01*
X043113D02*
X043353D01*
X040373Y031151D02*
X040533D01*
X040873D02*
X041123D01*
X041503D02*
X041773D01*
X041963D02*
X042193D01*
X042603D02*
X042833D01*
X043113D02*
X043353D01*
X040363Y031141D02*
X040523D01*
X040873D02*
X041123D01*
X041513D02*
X041783D01*
X041963D02*
X042193D01*
X042603D02*
X042833D01*
X043113D02*
X043353D01*
X040363Y031131D02*
X040523D01*
X040883D02*
X041133D01*
X041523D02*
X041803D01*
X041963D02*
X042193D01*
X042603D02*
X042833D01*
X043113D02*
X043353D01*
X040363Y031121D02*
X040523D01*
X040883D02*
X041133D01*
X041533D02*
X041823D01*
X041963D02*
X042193D01*
X042603D02*
X042833D01*
X043113D02*
X043353D01*
X040353Y031111D02*
X040523D01*
X040883D02*
X041133D01*
X041543D02*
X041853D01*
X041953D02*
X042193D01*
X042603D02*
X042833D01*
X043113D02*
X043353D01*
X040353Y031101D02*
X040513D01*
X040893D02*
X041143D01*
X041553D02*
X042193D01*
X042603D02*
X042833D01*
X043113D02*
X043353D01*
X040353Y031091D02*
X040513D01*
X040893D02*
X041143D01*
X041563D02*
X042193D01*
X042603D02*
X042833D01*
X043113D02*
X043353D01*
X040343Y031081D02*
X040513D01*
X040893D02*
X041143D01*
X041573D02*
X042193D01*
X042603D02*
X042833D01*
X043113D02*
X043353D01*
X040343Y031071D02*
X040503D01*
X040903D02*
X041153D01*
X041583D02*
X042193D01*
X042603D02*
X042833D01*
X043113D02*
X043353D01*
X040343Y031061D02*
X040503D01*
X040903D02*
X041153D01*
X041603D02*
X042193D01*
X042603D02*
X042833D01*
X043113D02*
X043353D01*
X040333Y031051D02*
X040503D01*
X040903D02*
X041153D01*
X041613D02*
X042193D01*
X042603D02*
X042833D01*
X043113D02*
X043353D01*
X040333Y031041D02*
X040493D01*
X040913D02*
X041163D01*
X041633D02*
X042193D01*
X042603D02*
X042833D01*
X043113D02*
X043353D01*
X040333Y031031D02*
X040493D01*
X040913D02*
X041163D01*
X041653D02*
X042193D01*
X042603D02*
X042833D01*
X043113D02*
X043353D01*
X040323Y031021D02*
X040493D01*
X040913D02*
X041163D01*
X041673D02*
X042193D01*
X042603D02*
X042833D01*
X043113D02*
X043353D01*
X040323Y031011D02*
X040483D01*
X040923D02*
X041173D01*
X041693D02*
X042193D01*
X042603D02*
X042833D01*
X043113D02*
X043353D01*
X040323Y031001D02*
X040483D01*
X040923D02*
X041173D01*
X041723D02*
X042173D01*
X042603D02*
X042833D01*
X043113D02*
X043353D01*
X040313Y030991D02*
X040483D01*
X040923D02*
X041173D01*
X041753D02*
X042133D01*
X042603D02*
X042833D01*
X043113D02*
X043353D01*
X041803Y030981D02*
X042073D01*
X041873Y030971D02*
X041993D01*
M02*
