%FSAX24Y24*%
%MOIN*%
G70*
G01*
G75*
G04 Layer_Color=8388736*
%ADD10C,0.0080*%
%ADD11C,0.0079*%
%ADD12R,0.0591X0.0551*%
%ADD13R,0.0551X0.0591*%
%ADD14O,0.0236X0.0866*%
%ADD15R,0.0394X0.1575*%
%ADD16R,0.1575X0.0394*%
%ADD17R,0.1299X0.0984*%
G04:AMPARAMS|DCode=18|XSize=8.7mil|YSize=74.8mil|CornerRadius=2.2mil|HoleSize=0mil|Usage=FLASHONLY|Rotation=90.000|XOffset=0mil|YOffset=0mil|HoleType=Round|Shape=RoundedRectangle|*
%AMROUNDEDRECTD18*
21,1,0.0087,0.0705,0,0,90.0*
21,1,0.0043,0.0748,0,0,90.0*
1,1,0.0043,0.0352,0.0022*
1,1,0.0043,0.0352,-0.0022*
1,1,0.0043,-0.0352,-0.0022*
1,1,0.0043,-0.0352,0.0022*
%
%ADD18ROUNDEDRECTD18*%
G04:AMPARAMS|DCode=19|XSize=8.7mil|YSize=74.8mil|CornerRadius=2.2mil|HoleSize=0mil|Usage=FLASHONLY|Rotation=180.000|XOffset=0mil|YOffset=0mil|HoleType=Round|Shape=RoundedRectangle|*
%AMROUNDEDRECTD19*
21,1,0.0087,0.0705,0,0,180.0*
21,1,0.0043,0.0748,0,0,180.0*
1,1,0.0043,-0.0022,0.0352*
1,1,0.0043,0.0022,0.0352*
1,1,0.0043,0.0022,-0.0352*
1,1,0.0043,-0.0022,-0.0352*
%
%ADD19ROUNDEDRECTD19*%
G04:AMPARAMS|DCode=20|XSize=133.9mil|YSize=135.8mil|CornerRadius=0mil|HoleSize=0mil|Usage=FLASHONLY|Rotation=135.000|XOffset=0mil|YOffset=0mil|HoleType=Round|Shape=Rectangle|*
%AMROTATEDRECTD20*
4,1,4,0.0953,0.0007,-0.0007,-0.0953,-0.0953,-0.0007,0.0007,0.0953,0.0953,0.0007,0.0*
%
%ADD20ROTATEDRECTD20*%

%ADD21R,0.1339X0.1358*%
%ADD22R,0.2047X0.0827*%
%ADD23R,0.2047X0.1969*%
G04:AMPARAMS|DCode=24|XSize=11.8mil|YSize=65mil|CornerRadius=3mil|HoleSize=0mil|Usage=FLASHONLY|Rotation=90.000|XOffset=0mil|YOffset=0mil|HoleType=Round|Shape=RoundedRectangle|*
%AMROUNDEDRECTD24*
21,1,0.0118,0.0591,0,0,90.0*
21,1,0.0059,0.0650,0,0,90.0*
1,1,0.0059,0.0295,0.0030*
1,1,0.0059,0.0295,-0.0030*
1,1,0.0059,-0.0295,-0.0030*
1,1,0.0059,-0.0295,0.0030*
%
%ADD24ROUNDEDRECTD24*%
G04:AMPARAMS|DCode=25|XSize=11.8mil|YSize=65mil|CornerRadius=3mil|HoleSize=0mil|Usage=FLASHONLY|Rotation=0.000|XOffset=0mil|YOffset=0mil|HoleType=Round|Shape=RoundedRectangle|*
%AMROUNDEDRECTD25*
21,1,0.0118,0.0591,0,0,0.0*
21,1,0.0059,0.0650,0,0,0.0*
1,1,0.0059,0.0030,-0.0295*
1,1,0.0059,-0.0030,-0.0295*
1,1,0.0059,-0.0030,0.0295*
1,1,0.0059,0.0030,0.0295*
%
%ADD25ROUNDEDRECTD25*%
%ADD26O,0.0827X0.0177*%
%ADD27R,0.1240X0.2028*%
%ADD28O,0.0118X0.0551*%
%ADD29O,0.0551X0.0118*%
G04:AMPARAMS|DCode=30|XSize=65mil|YSize=143.7mil|CornerRadius=0mil|HoleSize=0mil|Usage=FLASHONLY|Rotation=315.000|XOffset=0mil|YOffset=0mil|HoleType=Round|Shape=Rectangle|*
%AMROTATEDRECTD30*
4,1,4,-0.0738,-0.0278,0.0278,0.0738,0.0738,0.0278,-0.0278,-0.0738,-0.0738,-0.0278,0.0*
%
%ADD30ROTATEDRECTD30*%

G04:AMPARAMS|DCode=31|XSize=11.8mil|YSize=55.1mil|CornerRadius=0mil|HoleSize=0mil|Usage=FLASHONLY|Rotation=315.000|XOffset=0mil|YOffset=0mil|HoleType=Round|Shape=Round|*
%AMOVALD31*
21,1,0.0433,0.0118,0.0000,0.0000,45.0*
1,1,0.0118,-0.0153,-0.0153*
1,1,0.0118,0.0153,0.0153*
%
%ADD31OVALD31*%

G04:AMPARAMS|DCode=32|XSize=11.8mil|YSize=55.1mil|CornerRadius=0mil|HoleSize=0mil|Usage=FLASHONLY|Rotation=45.000|XOffset=0mil|YOffset=0mil|HoleType=Round|Shape=Round|*
%AMOVALD32*
21,1,0.0433,0.0118,0.0000,0.0000,135.0*
1,1,0.0118,0.0153,-0.0153*
1,1,0.0118,-0.0153,0.0153*
%
%ADD32OVALD32*%

%ADD33R,0.0650X0.1437*%
%ADD34R,0.0197X0.0236*%
%ADD35R,0.0236X0.0197*%
%ADD36R,0.0354X0.0276*%
%ADD37R,0.0276X0.0354*%
%ADD38R,0.0354X0.0315*%
%ADD39R,0.0315X0.0354*%
G04:AMPARAMS|DCode=40|XSize=35.4mil|YSize=31.5mil|CornerRadius=0mil|HoleSize=0mil|Usage=FLASHONLY|Rotation=225.000|XOffset=0mil|YOffset=0mil|HoleType=Round|Shape=Rectangle|*
%AMROTATEDRECTD40*
4,1,4,0.0014,0.0237,0.0237,0.0014,-0.0014,-0.0237,-0.0237,-0.0014,0.0014,0.0237,0.0*
%
%ADD40ROTATEDRECTD40*%

%ADD41R,0.0551X0.0472*%
G04:AMPARAMS|DCode=42|XSize=35.4mil|YSize=27.6mil|CornerRadius=0mil|HoleSize=0mil|Usage=FLASHONLY|Rotation=45.000|XOffset=0mil|YOffset=0mil|HoleType=Round|Shape=Rectangle|*
%AMROTATEDRECTD42*
4,1,4,-0.0028,-0.0223,-0.0223,-0.0028,0.0028,0.0223,0.0223,0.0028,-0.0028,-0.0223,0.0*
%
%ADD42ROTATEDRECTD42*%

%ADD43P,0.2840X4X270.0*%
G04:AMPARAMS|DCode=44|XSize=11.8mil|YSize=39.4mil|CornerRadius=0mil|HoleSize=0mil|Usage=FLASHONLY|Rotation=225.000|XOffset=0mil|YOffset=0mil|HoleType=Round|Shape=Rectangle|*
%AMROTATEDRECTD44*
4,1,4,-0.0097,0.0181,0.0181,-0.0097,0.0097,-0.0181,-0.0181,0.0097,-0.0097,0.0181,0.0*
%
%ADD44ROTATEDRECTD44*%

G04:AMPARAMS|DCode=45|XSize=11.8mil|YSize=39.4mil|CornerRadius=0mil|HoleSize=0mil|Usage=FLASHONLY|Rotation=315.000|XOffset=0mil|YOffset=0mil|HoleType=Round|Shape=Rectangle|*
%AMROTATEDRECTD45*
4,1,4,-0.0181,-0.0097,0.0097,0.0181,0.0181,0.0097,-0.0097,-0.0181,-0.0181,-0.0097,0.0*
%
%ADD45ROTATEDRECTD45*%

%ADD46R,0.0236X0.0453*%
%ADD47C,0.0118*%
%ADD48C,0.0197*%
%ADD49C,0.0110*%
%ADD50C,0.0315*%
%ADD51C,0.0236*%
%ADD52C,0.0551*%
%ADD53C,0.0157*%
%ADD54C,0.0276*%
%ADD55C,0.0100*%
%ADD56C,0.0709*%
%ADD57C,0.0787*%
%ADD58C,0.0472*%
%ADD59C,0.0512*%
%ADD60C,0.0827*%
%ADD61C,0.0120*%
%ADD62R,0.3858X0.3858*%
%ADD63O,0.2362X0.2756*%
%ADD64C,0.0551*%
%ADD65O,0.2756X0.2362*%
%ADD66O,0.1181X0.1024*%
%ADD67R,0.0827X0.0827*%
%ADD68C,0.0827*%
%ADD69C,0.0709*%
%ADD70C,0.1575*%
%ADD71C,0.1181*%
%ADD72O,0.2362X0.1969*%
%ADD73O,0.2362X0.1575*%
%ADD74O,0.1181X0.2362*%
%ADD75C,0.0748*%
%ADD76R,0.0748X0.0748*%
%ADD77R,0.0748X0.0748*%
%ADD78R,0.0787X0.0787*%
%ADD79C,0.0787*%
%ADD80C,0.2362*%
%ADD81C,0.1654*%
%ADD82C,0.0630*%
%ADD83R,0.0630X0.0630*%
%ADD84C,0.0280*%
%ADD85C,0.0472*%
%ADD86C,0.0079*%
G04:AMPARAMS|DCode=87|XSize=16.5mil|YSize=65mil|CornerRadius=4.1mil|HoleSize=0mil|Usage=FLASHONLY|Rotation=45.000|XOffset=0mil|YOffset=0mil|HoleType=Round|Shape=RoundedRectangle|*
%AMROUNDEDRECTD87*
21,1,0.0165,0.0567,0,0,45.0*
21,1,0.0083,0.0650,0,0,45.0*
1,1,0.0083,0.0230,-0.0171*
1,1,0.0083,0.0171,-0.0230*
1,1,0.0083,-0.0230,0.0171*
1,1,0.0083,-0.0171,0.0230*
%
%ADD87ROUNDEDRECTD87*%
G04:AMPARAMS|DCode=88|XSize=16.5mil|YSize=65mil|CornerRadius=4.1mil|HoleSize=0mil|Usage=FLASHONLY|Rotation=315.000|XOffset=0mil|YOffset=0mil|HoleType=Round|Shape=RoundedRectangle|*
%AMROUNDEDRECTD88*
21,1,0.0165,0.0567,0,0,315.0*
21,1,0.0083,0.0650,0,0,315.0*
1,1,0.0083,-0.0171,-0.0230*
1,1,0.0083,-0.0230,-0.0171*
1,1,0.0083,0.0171,0.0230*
1,1,0.0083,0.0230,0.0171*
%
%ADD88ROUNDEDRECTD88*%
G04:AMPARAMS|DCode=89|XSize=19.7mil|YSize=23.6mil|CornerRadius=0mil|HoleSize=0mil|Usage=FLASHONLY|Rotation=315.000|XOffset=0mil|YOffset=0mil|HoleType=Round|Shape=Rectangle|*
%AMROTATEDRECTD89*
4,1,4,-0.0153,-0.0014,0.0014,0.0153,0.0153,0.0014,-0.0014,-0.0153,-0.0153,-0.0014,0.0*
%
%ADD89ROTATEDRECTD89*%

%ADD90R,0.0433X0.0669*%
G04:AMPARAMS|DCode=91|XSize=66.9mil|YSize=43.3mil|CornerRadius=0mil|HoleSize=0mil|Usage=FLASHONLY|Rotation=225.000|XOffset=0mil|YOffset=0mil|HoleType=Round|Shape=Rectangle|*
%AMROTATEDRECTD91*
4,1,4,0.0084,0.0390,0.0390,0.0084,-0.0084,-0.0390,-0.0390,-0.0084,0.0084,0.0390,0.0*
%
%ADD91ROTATEDRECTD91*%

%ADD92R,0.0669X0.0433*%
G04:AMPARAMS|DCode=93|XSize=66.9mil|YSize=43.3mil|CornerRadius=0mil|HoleSize=0mil|Usage=FLASHONLY|Rotation=135.000|XOffset=0mil|YOffset=0mil|HoleType=Round|Shape=Rectangle|*
%AMROTATEDRECTD93*
4,1,4,0.0390,-0.0084,0.0084,-0.0390,-0.0390,0.0084,-0.0084,0.0390,0.0390,-0.0084,0.0*
%
%ADD93ROTATEDRECTD93*%

%ADD94O,0.0984X0.0295*%
%ADD95R,0.0630X0.0512*%
G04:AMPARAMS|DCode=96|XSize=49.2mil|YSize=33.5mil|CornerRadius=0mil|HoleSize=0mil|Usage=FLASHONLY|Rotation=135.000|XOffset=0mil|YOffset=0mil|HoleType=Round|Shape=Rectangle|*
%AMROTATEDRECTD96*
4,1,4,0.0292,-0.0056,0.0056,-0.0292,-0.0292,0.0056,-0.0056,0.0292,0.0292,-0.0056,0.0*
%
%ADD96ROTATEDRECTD96*%

G04:AMPARAMS|DCode=97|XSize=19.7mil|YSize=23.6mil|CornerRadius=0mil|HoleSize=0mil|Usage=FLASHONLY|Rotation=225.000|XOffset=0mil|YOffset=0mil|HoleType=Round|Shape=Rectangle|*
%AMROTATEDRECTD97*
4,1,4,-0.0014,0.0153,0.0153,-0.0014,0.0014,-0.0153,-0.0153,0.0014,-0.0014,0.0153,0.0*
%
%ADD97ROTATEDRECTD97*%

%ADD98R,0.0433X0.0551*%
%ADD99R,0.0551X0.0433*%
%ADD100R,0.0453X0.0236*%
%ADD101C,0.0394*%
%ADD102C,0.0433*%
%ADD103C,0.0630*%
%ADD104C,0.0984*%
%ADD105C,0.1575*%
%ADD106C,0.1181*%
%ADD107C,0.0098*%
%ADD108C,0.0010*%
%ADD109R,0.0671X0.0631*%
%ADD110R,0.0631X0.0671*%
%ADD111O,0.0316X0.0946*%
%ADD112R,0.0474X0.1655*%
%ADD113R,0.1655X0.0474*%
%ADD114R,0.1379X0.1064*%
G04:AMPARAMS|DCode=115|XSize=16.7mil|YSize=82.8mil|CornerRadius=6.2mil|HoleSize=0mil|Usage=FLASHONLY|Rotation=90.000|XOffset=0mil|YOffset=0mil|HoleType=Round|Shape=RoundedRectangle|*
%AMROUNDEDRECTD115*
21,1,0.0167,0.0705,0,0,90.0*
21,1,0.0043,0.0828,0,0,90.0*
1,1,0.0123,0.0352,0.0022*
1,1,0.0123,0.0352,-0.0022*
1,1,0.0123,-0.0352,-0.0022*
1,1,0.0123,-0.0352,0.0022*
%
%ADD115ROUNDEDRECTD115*%
G04:AMPARAMS|DCode=116|XSize=16.7mil|YSize=82.8mil|CornerRadius=6.2mil|HoleSize=0mil|Usage=FLASHONLY|Rotation=180.000|XOffset=0mil|YOffset=0mil|HoleType=Round|Shape=RoundedRectangle|*
%AMROUNDEDRECTD116*
21,1,0.0167,0.0705,0,0,180.0*
21,1,0.0043,0.0828,0,0,180.0*
1,1,0.0123,-0.0022,0.0352*
1,1,0.0123,0.0022,0.0352*
1,1,0.0123,0.0022,-0.0352*
1,1,0.0123,-0.0022,-0.0352*
%
%ADD116ROUNDEDRECTD116*%
G04:AMPARAMS|DCode=117|XSize=141.9mil|YSize=143.8mil|CornerRadius=0mil|HoleSize=0mil|Usage=FLASHONLY|Rotation=135.000|XOffset=0mil|YOffset=0mil|HoleType=Round|Shape=Rectangle|*
%AMROTATEDRECTD117*
4,1,4,0.1010,0.0007,-0.0007,-0.1010,-0.1010,-0.0007,0.0007,0.1010,0.1010,0.0007,0.0*
%
%ADD117ROTATEDRECTD117*%

%ADD118R,0.1419X0.1438*%
%ADD119R,0.2127X0.0907*%
%ADD120R,0.2127X0.2049*%
G04:AMPARAMS|DCode=121|XSize=19.8mil|YSize=73mil|CornerRadius=7mil|HoleSize=0mil|Usage=FLASHONLY|Rotation=90.000|XOffset=0mil|YOffset=0mil|HoleType=Round|Shape=RoundedRectangle|*
%AMROUNDEDRECTD121*
21,1,0.0198,0.0591,0,0,90.0*
21,1,0.0059,0.0730,0,0,90.0*
1,1,0.0139,0.0295,0.0030*
1,1,0.0139,0.0295,-0.0030*
1,1,0.0139,-0.0295,-0.0030*
1,1,0.0139,-0.0295,0.0030*
%
%ADD121ROUNDEDRECTD121*%
G04:AMPARAMS|DCode=122|XSize=19.8mil|YSize=73mil|CornerRadius=7mil|HoleSize=0mil|Usage=FLASHONLY|Rotation=0.000|XOffset=0mil|YOffset=0mil|HoleType=Round|Shape=RoundedRectangle|*
%AMROUNDEDRECTD122*
21,1,0.0198,0.0591,0,0,0.0*
21,1,0.0059,0.0730,0,0,0.0*
1,1,0.0139,0.0030,-0.0295*
1,1,0.0139,-0.0030,-0.0295*
1,1,0.0139,-0.0030,0.0295*
1,1,0.0139,0.0030,0.0295*
%
%ADD122ROUNDEDRECTD122*%
%ADD123O,0.0907X0.0257*%
%ADD124R,0.1320X0.2108*%
%ADD125O,0.0198X0.0631*%
%ADD126O,0.0631X0.0198*%
G04:AMPARAMS|DCode=127|XSize=73mil|YSize=151.7mil|CornerRadius=0mil|HoleSize=0mil|Usage=FLASHONLY|Rotation=315.000|XOffset=0mil|YOffset=0mil|HoleType=Round|Shape=Rectangle|*
%AMROTATEDRECTD127*
4,1,4,-0.0794,-0.0278,0.0278,0.0794,0.0794,0.0278,-0.0278,-0.0794,-0.0794,-0.0278,0.0*
%
%ADD127ROTATEDRECTD127*%

G04:AMPARAMS|DCode=128|XSize=19.8mil|YSize=63.1mil|CornerRadius=0mil|HoleSize=0mil|Usage=FLASHONLY|Rotation=315.000|XOffset=0mil|YOffset=0mil|HoleType=Round|Shape=Round|*
%AMOVALD128*
21,1,0.0433,0.0198,0.0000,0.0000,45.0*
1,1,0.0198,-0.0153,-0.0153*
1,1,0.0198,0.0153,0.0153*
%
%ADD128OVALD128*%

G04:AMPARAMS|DCode=129|XSize=19.8mil|YSize=63.1mil|CornerRadius=0mil|HoleSize=0mil|Usage=FLASHONLY|Rotation=45.000|XOffset=0mil|YOffset=0mil|HoleType=Round|Shape=Round|*
%AMOVALD129*
21,1,0.0433,0.0198,0.0000,0.0000,135.0*
1,1,0.0198,0.0153,-0.0153*
1,1,0.0198,-0.0153,0.0153*
%
%ADD129OVALD129*%

%ADD130R,0.0730X0.1517*%
%ADD131R,0.0277X0.0316*%
%ADD132R,0.0316X0.0277*%
%ADD133R,0.0434X0.0356*%
%ADD134R,0.0356X0.0434*%
%ADD135R,0.0434X0.0395*%
%ADD136R,0.0395X0.0434*%
G04:AMPARAMS|DCode=137|XSize=43.4mil|YSize=39.5mil|CornerRadius=0mil|HoleSize=0mil|Usage=FLASHONLY|Rotation=225.000|XOffset=0mil|YOffset=0mil|HoleType=Round|Shape=Rectangle|*
%AMROTATEDRECTD137*
4,1,4,0.0014,0.0293,0.0293,0.0014,-0.0014,-0.0293,-0.0293,-0.0014,0.0014,0.0293,0.0*
%
%ADD137ROTATEDRECTD137*%

%ADD138R,0.0631X0.0552*%
G04:AMPARAMS|DCode=139|XSize=43.4mil|YSize=35.6mil|CornerRadius=0mil|HoleSize=0mil|Usage=FLASHONLY|Rotation=45.000|XOffset=0mil|YOffset=0mil|HoleType=Round|Shape=Rectangle|*
%AMROTATEDRECTD139*
4,1,4,-0.0028,-0.0279,-0.0279,-0.0028,0.0028,0.0279,0.0279,0.0028,-0.0028,-0.0279,0.0*
%
%ADD139ROTATEDRECTD139*%

%ADD140P,0.2953X4X270.0*%
G04:AMPARAMS|DCode=141|XSize=19.8mil|YSize=47.4mil|CornerRadius=0mil|HoleSize=0mil|Usage=FLASHONLY|Rotation=225.000|XOffset=0mil|YOffset=0mil|HoleType=Round|Shape=Rectangle|*
%AMROTATEDRECTD141*
4,1,4,-0.0097,0.0238,0.0238,-0.0097,0.0097,-0.0238,-0.0238,0.0097,-0.0097,0.0238,0.0*
%
%ADD141ROTATEDRECTD141*%

G04:AMPARAMS|DCode=142|XSize=19.8mil|YSize=47.4mil|CornerRadius=0mil|HoleSize=0mil|Usage=FLASHONLY|Rotation=315.000|XOffset=0mil|YOffset=0mil|HoleType=Round|Shape=Rectangle|*
%AMROTATEDRECTD142*
4,1,4,-0.0238,-0.0097,0.0097,0.0238,0.0238,0.0097,-0.0097,-0.0238,-0.0238,-0.0097,0.0*
%
%ADD142ROTATEDRECTD142*%

%ADD143R,0.0316X0.0533*%
%ADD144O,0.2442X0.2836*%
%ADD145C,0.0631*%
%ADD146O,0.2836X0.2442*%
%ADD147O,0.1261X0.1104*%
%ADD148R,0.0907X0.0907*%
%ADD149C,0.0907*%
%ADD150C,0.0789*%
%ADD151C,0.1655*%
%ADD152C,0.1261*%
%ADD153O,0.2442X0.2049*%
%ADD154O,0.2442X0.1655*%
%ADD155O,0.1261X0.2442*%
%ADD156C,0.0828*%
%ADD157R,0.0828X0.0828*%
%ADD158R,0.0828X0.0828*%
%ADD159R,0.0867X0.0867*%
%ADD160C,0.0867*%
%ADD161C,0.2442*%
%ADD162C,0.1734*%
%ADD163C,0.0710*%
%ADD164R,0.0710X0.0710*%
%ADD165C,0.0360*%
%ADD166C,0.0552*%
D109*
X052520Y011299D02*
D03*
Y012087D02*
D03*
X018701Y024606D02*
D03*
Y023819D02*
D03*
Y027953D02*
D03*
Y027165D02*
D03*
Y031496D02*
D03*
Y030709D02*
D03*
D110*
X021063Y015157D02*
D03*
X020276D02*
D03*
X018406D02*
D03*
X017618D02*
D03*
D111*
X052098Y024537D02*
D03*
X051598D02*
D03*
X051098D02*
D03*
X050598D02*
D03*
X052098Y022648D02*
D03*
X051598D02*
D03*
X051098D02*
D03*
X050598D02*
D03*
D112*
X036122Y011951D02*
D03*
Y014195D02*
D03*
X042126Y011870D02*
D03*
Y014114D02*
D03*
X039075Y011870D02*
D03*
Y014114D02*
D03*
X033169Y011951D02*
D03*
Y014195D02*
D03*
X045177Y011870D02*
D03*
Y014114D02*
D03*
D113*
X046319Y017913D02*
D03*
X048563D02*
D03*
D114*
X025569Y015311D02*
D03*
Y017634D02*
D03*
D115*
X045535Y034312D02*
D03*
Y034470D02*
D03*
Y034627D02*
D03*
Y034785D02*
D03*
Y034942D02*
D03*
Y035100D02*
D03*
Y035257D02*
D03*
Y035415D02*
D03*
Y035572D02*
D03*
Y035730D02*
D03*
Y035887D02*
D03*
Y036045D02*
D03*
Y036202D02*
D03*
Y036360D02*
D03*
Y036517D02*
D03*
Y036675D02*
D03*
Y036832D02*
D03*
Y036990D02*
D03*
Y037147D02*
D03*
Y037304D02*
D03*
Y037462D02*
D03*
Y037619D02*
D03*
Y037777D02*
D03*
Y037934D02*
D03*
Y038092D02*
D03*
Y038249D02*
D03*
Y038407D02*
D03*
Y038564D02*
D03*
Y038722D02*
D03*
Y038879D02*
D03*
Y039037D02*
D03*
Y039194D02*
D03*
X051402D02*
D03*
Y039037D02*
D03*
Y038879D02*
D03*
Y038722D02*
D03*
Y038564D02*
D03*
Y038407D02*
D03*
Y038249D02*
D03*
Y038092D02*
D03*
Y037934D02*
D03*
Y037777D02*
D03*
Y037619D02*
D03*
Y037462D02*
D03*
Y037304D02*
D03*
Y037147D02*
D03*
Y036990D02*
D03*
Y036832D02*
D03*
Y036675D02*
D03*
Y036517D02*
D03*
Y036360D02*
D03*
Y036202D02*
D03*
Y036045D02*
D03*
Y035887D02*
D03*
Y035730D02*
D03*
Y035572D02*
D03*
Y035415D02*
D03*
Y035257D02*
D03*
Y035100D02*
D03*
Y034942D02*
D03*
Y034785D02*
D03*
Y034627D02*
D03*
Y034470D02*
D03*
Y034312D02*
D03*
D116*
X046028Y039686D02*
D03*
X046185D02*
D03*
X046343D02*
D03*
X046500D02*
D03*
X046657D02*
D03*
X046815D02*
D03*
X046972D02*
D03*
X047130D02*
D03*
X047287D02*
D03*
X047445D02*
D03*
X047602D02*
D03*
X047760D02*
D03*
X047917D02*
D03*
X048075D02*
D03*
X048232D02*
D03*
X048390D02*
D03*
X048547D02*
D03*
X048705D02*
D03*
X048862D02*
D03*
X049020D02*
D03*
X049177D02*
D03*
X049335D02*
D03*
X049492D02*
D03*
X049650D02*
D03*
X049807D02*
D03*
X049965D02*
D03*
X050122D02*
D03*
X050280D02*
D03*
X050437D02*
D03*
X050594D02*
D03*
X050752D02*
D03*
X050909D02*
D03*
Y033820D02*
D03*
X050752D02*
D03*
X050594D02*
D03*
X050437D02*
D03*
X050280D02*
D03*
X050122D02*
D03*
X049965D02*
D03*
X049807D02*
D03*
X049650D02*
D03*
X049492D02*
D03*
X049335D02*
D03*
X049177D02*
D03*
X049020D02*
D03*
X048862D02*
D03*
X048705D02*
D03*
X048547D02*
D03*
X048390D02*
D03*
X048232D02*
D03*
X048075D02*
D03*
X047917D02*
D03*
X047760D02*
D03*
X047602D02*
D03*
X047445D02*
D03*
X047287D02*
D03*
X047130D02*
D03*
X046972D02*
D03*
X046815D02*
D03*
X046657D02*
D03*
X046500D02*
D03*
X046343D02*
D03*
X046185D02*
D03*
X046028D02*
D03*
D117*
X042517Y023386D02*
D03*
X041125Y021995D02*
D03*
D118*
X036388Y018209D02*
D03*
Y016240D02*
D03*
D119*
X051083Y016181D02*
D03*
D120*
Y017913D02*
D03*
D121*
X022795Y035256D02*
D03*
Y035059D02*
D03*
Y034862D02*
D03*
Y034665D02*
D03*
Y034469D02*
D03*
Y034272D02*
D03*
Y034075D02*
D03*
Y033878D02*
D03*
Y033681D02*
D03*
Y033484D02*
D03*
Y033287D02*
D03*
Y033091D02*
D03*
Y032894D02*
D03*
Y032697D02*
D03*
Y032500D02*
D03*
Y032303D02*
D03*
Y032106D02*
D03*
Y031909D02*
D03*
Y031713D02*
D03*
Y031516D02*
D03*
Y031319D02*
D03*
Y031122D02*
D03*
Y030925D02*
D03*
Y030728D02*
D03*
Y030531D02*
D03*
Y030335D02*
D03*
Y030138D02*
D03*
Y029941D02*
D03*
Y029744D02*
D03*
Y029547D02*
D03*
Y029350D02*
D03*
Y029154D02*
D03*
Y028957D02*
D03*
Y028760D02*
D03*
Y028563D02*
D03*
Y028366D02*
D03*
Y028169D02*
D03*
Y027972D02*
D03*
Y027776D02*
D03*
Y027579D02*
D03*
Y027382D02*
D03*
Y027185D02*
D03*
Y026988D02*
D03*
Y026791D02*
D03*
Y026594D02*
D03*
Y026398D02*
D03*
Y026201D02*
D03*
Y026004D02*
D03*
Y025807D02*
D03*
Y025610D02*
D03*
Y025413D02*
D03*
Y025217D02*
D03*
Y025020D02*
D03*
Y024823D02*
D03*
Y024626D02*
D03*
Y024429D02*
D03*
Y024232D02*
D03*
Y024035D02*
D03*
Y023839D02*
D03*
Y023642D02*
D03*
X036102D02*
D03*
Y023839D02*
D03*
Y024035D02*
D03*
Y024232D02*
D03*
Y024429D02*
D03*
Y024626D02*
D03*
Y024823D02*
D03*
Y025020D02*
D03*
Y025217D02*
D03*
Y025413D02*
D03*
Y025610D02*
D03*
Y025807D02*
D03*
Y026004D02*
D03*
Y026201D02*
D03*
Y026398D02*
D03*
Y026594D02*
D03*
Y026791D02*
D03*
Y026988D02*
D03*
Y027185D02*
D03*
Y027382D02*
D03*
Y027579D02*
D03*
Y027776D02*
D03*
Y027972D02*
D03*
Y028169D02*
D03*
Y028366D02*
D03*
Y028563D02*
D03*
Y028760D02*
D03*
Y028957D02*
D03*
Y029154D02*
D03*
Y029350D02*
D03*
Y029547D02*
D03*
Y029744D02*
D03*
Y029941D02*
D03*
Y030138D02*
D03*
Y030335D02*
D03*
Y030531D02*
D03*
Y030728D02*
D03*
Y030925D02*
D03*
Y031122D02*
D03*
Y031319D02*
D03*
Y031516D02*
D03*
Y031713D02*
D03*
Y031909D02*
D03*
Y032106D02*
D03*
Y032303D02*
D03*
Y032500D02*
D03*
Y032697D02*
D03*
Y032894D02*
D03*
Y033091D02*
D03*
Y033287D02*
D03*
Y033484D02*
D03*
Y033681D02*
D03*
Y033878D02*
D03*
Y034075D02*
D03*
Y034272D02*
D03*
Y034469D02*
D03*
Y034665D02*
D03*
Y034862D02*
D03*
Y035059D02*
D03*
Y035256D02*
D03*
D122*
X023642Y022795D02*
D03*
X023839D02*
D03*
X024035D02*
D03*
X024232D02*
D03*
X024429D02*
D03*
X024626D02*
D03*
X024823D02*
D03*
X025020D02*
D03*
X025217D02*
D03*
X025413D02*
D03*
X025610D02*
D03*
X025807D02*
D03*
X026004D02*
D03*
X026201D02*
D03*
X026398D02*
D03*
X026595D02*
D03*
X026791D02*
D03*
X026988D02*
D03*
X027185D02*
D03*
X027382D02*
D03*
X027579D02*
D03*
X027776D02*
D03*
X027972D02*
D03*
X028169D02*
D03*
X028366D02*
D03*
X028563D02*
D03*
X028760D02*
D03*
X028957D02*
D03*
X029154D02*
D03*
X029350D02*
D03*
X029547D02*
D03*
X029744D02*
D03*
X029941D02*
D03*
X030138D02*
D03*
X030335D02*
D03*
X030532D02*
D03*
X030728D02*
D03*
X030925D02*
D03*
X031122D02*
D03*
X031319D02*
D03*
X031516D02*
D03*
X031713D02*
D03*
X031909D02*
D03*
X032106D02*
D03*
X032303D02*
D03*
X032500D02*
D03*
X032697D02*
D03*
X032894D02*
D03*
X033091D02*
D03*
X033287D02*
D03*
X033484D02*
D03*
X033681D02*
D03*
X033878D02*
D03*
X034075D02*
D03*
X034272D02*
D03*
X034469D02*
D03*
X034665D02*
D03*
X034862D02*
D03*
X035059D02*
D03*
X035256D02*
D03*
Y036102D02*
D03*
X035059D02*
D03*
X034862D02*
D03*
X034665D02*
D03*
X034469D02*
D03*
X034272D02*
D03*
X034075D02*
D03*
X033878D02*
D03*
X033681D02*
D03*
X033484D02*
D03*
X033287D02*
D03*
X033091D02*
D03*
X032894D02*
D03*
X032697D02*
D03*
X032500D02*
D03*
X032303D02*
D03*
X032106D02*
D03*
X031909D02*
D03*
X031713D02*
D03*
X031516D02*
D03*
X031319D02*
D03*
X031122D02*
D03*
X030925D02*
D03*
X030728D02*
D03*
X030532D02*
D03*
X030335D02*
D03*
X030138D02*
D03*
X029941D02*
D03*
X029744D02*
D03*
X029547D02*
D03*
X029350D02*
D03*
X029154D02*
D03*
X028957D02*
D03*
X028760D02*
D03*
X028563D02*
D03*
X028366D02*
D03*
X028169D02*
D03*
X027972D02*
D03*
X027776D02*
D03*
X027579D02*
D03*
X027382D02*
D03*
X027185D02*
D03*
X026988D02*
D03*
X026791D02*
D03*
X026595D02*
D03*
X026398D02*
D03*
X026201D02*
D03*
X026004D02*
D03*
X025807D02*
D03*
X025610D02*
D03*
X025413D02*
D03*
X025217D02*
D03*
X025020D02*
D03*
X024823D02*
D03*
X024626D02*
D03*
X024429D02*
D03*
X024232D02*
D03*
X024035D02*
D03*
X023839D02*
D03*
X023642D02*
D03*
D123*
X019016Y020354D02*
D03*
Y020098D02*
D03*
Y019843D02*
D03*
Y019587D02*
D03*
Y019331D02*
D03*
Y019075D02*
D03*
Y018819D02*
D03*
Y018563D02*
D03*
Y018307D02*
D03*
Y018051D02*
D03*
Y017795D02*
D03*
Y017539D02*
D03*
Y017283D02*
D03*
Y017028D02*
D03*
X021732Y020354D02*
D03*
Y020098D02*
D03*
Y019843D02*
D03*
Y019587D02*
D03*
Y019331D02*
D03*
Y019075D02*
D03*
Y018819D02*
D03*
Y018563D02*
D03*
Y018307D02*
D03*
Y018051D02*
D03*
Y017795D02*
D03*
Y017539D02*
D03*
Y017283D02*
D03*
Y017028D02*
D03*
D124*
X030422Y016394D02*
D03*
D125*
X029831Y017890D02*
D03*
X030028D02*
D03*
X030225D02*
D03*
X030422D02*
D03*
X030618D02*
D03*
X030815D02*
D03*
X031012D02*
D03*
Y014898D02*
D03*
X030815D02*
D03*
X030618D02*
D03*
X030422D02*
D03*
X030225D02*
D03*
X030028D02*
D03*
X029831D02*
D03*
X040344Y018130D02*
D03*
X040541D02*
D03*
X040738D02*
D03*
X040935D02*
D03*
Y015925D02*
D03*
X040738D02*
D03*
X040541D02*
D03*
X040344D02*
D03*
D126*
X031524Y017477D02*
D03*
Y017280D02*
D03*
Y017083D02*
D03*
Y016886D02*
D03*
Y016689D02*
D03*
Y016492D02*
D03*
Y016296D02*
D03*
Y016099D02*
D03*
Y015902D02*
D03*
Y015705D02*
D03*
Y015508D02*
D03*
Y015311D02*
D03*
X029319D02*
D03*
Y015508D02*
D03*
Y015705D02*
D03*
Y015902D02*
D03*
Y016099D02*
D03*
Y016296D02*
D03*
Y016492D02*
D03*
Y016689D02*
D03*
Y016886D02*
D03*
Y017083D02*
D03*
Y017280D02*
D03*
Y017477D02*
D03*
X041348Y017717D02*
D03*
Y017520D02*
D03*
Y017323D02*
D03*
Y017126D02*
D03*
Y016929D02*
D03*
Y016732D02*
D03*
Y016535D02*
D03*
Y016339D02*
D03*
X039931D02*
D03*
Y016535D02*
D03*
Y016732D02*
D03*
Y016929D02*
D03*
Y017126D02*
D03*
Y017323D02*
D03*
Y017520D02*
D03*
Y017717D02*
D03*
D127*
X043972Y018889D02*
D03*
D128*
X044543Y019877D02*
D03*
X044682Y019738D02*
D03*
X044821Y019598D02*
D03*
X044961Y019459D02*
D03*
X043402Y017900D02*
D03*
X043262Y018039D02*
D03*
X043123Y018179D02*
D03*
X042984Y018318D02*
D03*
D129*
X044961Y018875D02*
D03*
X044821Y018735D02*
D03*
X044682Y018596D02*
D03*
X044543Y018457D02*
D03*
X044404Y018318D02*
D03*
X044265Y018179D02*
D03*
X044125Y018039D02*
D03*
X043986Y017900D02*
D03*
X042984Y018902D02*
D03*
X043123Y019042D02*
D03*
X043262Y019181D02*
D03*
X043402Y019320D02*
D03*
X043541Y019459D02*
D03*
X043680Y019598D02*
D03*
X043819Y019738D02*
D03*
X043958Y019877D02*
D03*
D130*
X040640Y017028D02*
D03*
D131*
X026063Y038150D02*
D03*
Y038543D02*
D03*
X037165Y022726D02*
D03*
Y023120D02*
D03*
X052835Y025108D02*
D03*
X052835Y025502D02*
D03*
X017667Y039114D02*
D03*
X017667Y038720D02*
D03*
X021270Y040295D02*
D03*
Y040689D02*
D03*
X037165Y024006D02*
D03*
X037165Y023612D02*
D03*
X037835Y035748D02*
D03*
Y036142D02*
D03*
D132*
X021181Y028858D02*
D03*
X020787D02*
D03*
X048868Y032707D02*
D03*
X048474D02*
D03*
X021102Y023661D02*
D03*
X020709D02*
D03*
X021063Y035236D02*
D03*
X020669D02*
D03*
D133*
X024508Y020866D02*
D03*
Y020276D02*
D03*
X028346Y020846D02*
D03*
Y020256D02*
D03*
X027677D02*
D03*
Y020846D02*
D03*
X033504Y021083D02*
D03*
Y021673D02*
D03*
X049252Y023927D02*
D03*
X049252Y024518D02*
D03*
X033051Y018366D02*
D03*
X033051Y017776D02*
D03*
X033642Y017776D02*
D03*
X033642Y018366D02*
D03*
D134*
X033681Y037717D02*
D03*
X033091D02*
D03*
X033023Y019157D02*
D03*
X032433D02*
D03*
X039744Y019852D02*
D03*
X039154Y019852D02*
D03*
X039154Y020610D02*
D03*
X039744Y020610D02*
D03*
X021624Y032175D02*
D03*
X021033D02*
D03*
X037608Y030433D02*
D03*
X037018D02*
D03*
X021260Y030709D02*
D03*
X020669D02*
D03*
D135*
X032461Y017795D02*
D03*
Y018346D02*
D03*
D136*
X033004Y019748D02*
D03*
X032453D02*
D03*
X039173Y019124D02*
D03*
X039724D02*
D03*
D137*
X046053Y021586D02*
D03*
X046442Y021196D02*
D03*
D138*
X017717Y030748D02*
D03*
Y031457D02*
D03*
Y027205D02*
D03*
Y027913D02*
D03*
X017717Y024567D02*
D03*
Y023858D02*
D03*
X016831Y017972D02*
D03*
Y017264D02*
D03*
X017815Y017972D02*
D03*
Y017264D02*
D03*
X052520Y013228D02*
D03*
Y013937D02*
D03*
D139*
X045845Y020587D02*
D03*
X045428Y021004D02*
D03*
X046563Y022138D02*
D03*
X046980Y021720D02*
D03*
D140*
X049518Y027470D02*
D03*
D141*
X051306Y027213D02*
D03*
X051167Y027074D02*
D03*
X051028Y026935D02*
D03*
X050889Y026795D02*
D03*
X050750Y026656D02*
D03*
X050610Y026517D02*
D03*
X050471Y026378D02*
D03*
X050332Y026239D02*
D03*
X050193Y026099D02*
D03*
X050054Y025960D02*
D03*
X049914Y025821D02*
D03*
X049775Y025682D02*
D03*
X047729Y027728D02*
D03*
X047868Y027867D02*
D03*
X048007Y028006D02*
D03*
X048147Y028146D02*
D03*
X048286Y028285D02*
D03*
X048425Y028424D02*
D03*
X048564Y028563D02*
D03*
X048703Y028702D02*
D03*
X048843Y028842D02*
D03*
X048982Y028981D02*
D03*
X049121Y029120D02*
D03*
X049260Y029259D02*
D03*
D142*
Y025682D02*
D03*
X049121Y025821D02*
D03*
X048982Y025960D02*
D03*
X048843Y026099D02*
D03*
X048703Y026239D02*
D03*
X048564Y026378D02*
D03*
X048425Y026517D02*
D03*
X048286Y026656D02*
D03*
X048147Y026795D02*
D03*
X048007Y026935D02*
D03*
X047868Y027074D02*
D03*
X047729Y027213D02*
D03*
X049775Y029259D02*
D03*
X049914Y029120D02*
D03*
X051167Y027867D02*
D03*
X051306Y027728D02*
D03*
X051028Y028006D02*
D03*
X050471Y028563D02*
D03*
X050332Y028702D02*
D03*
X050193Y028842D02*
D03*
X050054Y028981D02*
D03*
X050610Y028424D02*
D03*
X050750Y028285D02*
D03*
X050889Y028146D02*
D03*
D143*
X043268Y045285D02*
D03*
X043642Y044400D02*
D03*
X042894D02*
D03*
X024606Y040030D02*
D03*
X024232Y040915D02*
D03*
X024980D02*
D03*
X026555D02*
D03*
X025807D02*
D03*
X026181Y040030D02*
D03*
X044724Y045285D02*
D03*
X045098Y044400D02*
D03*
X044350D02*
D03*
X046181Y045285D02*
D03*
X046555Y044400D02*
D03*
X045807D02*
D03*
X047638Y045285D02*
D03*
X048012Y044400D02*
D03*
X047264D02*
D03*
X049094Y045285D02*
D03*
X049468Y044400D02*
D03*
X048720D02*
D03*
X050551Y045285D02*
D03*
X050925Y044400D02*
D03*
X050177D02*
D03*
D144*
X024860Y011795D02*
D03*
X015022D02*
D03*
D145*
X017912Y012575D02*
D03*
X018814D02*
D03*
X019716D02*
D03*
X020617D02*
D03*
X021519D02*
D03*
X021969Y011795D02*
D03*
X021068D02*
D03*
X020166D02*
D03*
X019265D02*
D03*
X018363D02*
D03*
X017912Y011016D02*
D03*
X018814D02*
D03*
X019716D02*
D03*
X020617D02*
D03*
X021519D02*
D03*
X054384Y018070D02*
D03*
Y018971D02*
D03*
Y019873D02*
D03*
Y020775D02*
D03*
Y021676D02*
D03*
X055163Y022127D02*
D03*
Y021225D02*
D03*
Y020324D02*
D03*
Y019422D02*
D03*
Y018521D02*
D03*
X055943Y018070D02*
D03*
Y018971D02*
D03*
Y019873D02*
D03*
Y020775D02*
D03*
Y021676D02*
D03*
X033661Y014195D02*
D03*
X034154D02*
D03*
X034646D02*
D03*
X035138D02*
D03*
X037992Y014213D02*
D03*
X037530D02*
D03*
X041417D02*
D03*
X041824D02*
D03*
X042231D02*
D03*
X035236Y035276D02*
D03*
X038484Y014213D02*
D03*
X035404Y018209D02*
D03*
X033169Y014195D02*
D03*
X024240Y017615D02*
D03*
X025067D02*
D03*
X026721Y017615D02*
D03*
X026307Y017615D02*
D03*
X025481D02*
D03*
X037372Y018209D02*
D03*
X036388D02*
D03*
X041828Y024131D02*
D03*
X042524Y023435D02*
D03*
X043220Y022739D02*
D03*
X042872Y023087D02*
D03*
X042638Y014213D02*
D03*
X042176Y023783D02*
D03*
X024654Y017615D02*
D03*
X025894D02*
D03*
X045787Y017913D02*
D03*
X046181D02*
D03*
X046575D02*
D03*
X047008D02*
D03*
D146*
X055163Y025018D02*
D03*
Y015179D02*
D03*
D147*
X014882Y028187D02*
D03*
X012913D02*
D03*
Y023266D02*
D03*
X014882D02*
D03*
X014882Y034802D02*
D03*
X012913D02*
D03*
Y029880D02*
D03*
X014882D02*
D03*
D148*
X012787Y038906D02*
D03*
Y042906D02*
D03*
D149*
Y039906D02*
D03*
Y040906D02*
D03*
Y041906D02*
D03*
X013787Y038906D02*
D03*
Y039906D02*
D03*
Y040906D02*
D03*
Y041906D02*
D03*
Y042906D02*
D03*
D150*
X026929Y043307D02*
D03*
X026102Y044291D02*
D03*
X024252D02*
D03*
Y043307D02*
D03*
X025079Y044291D02*
D03*
X026929D02*
D03*
D151*
X025591Y045768D02*
D03*
X022933Y045472D02*
D03*
X028248D02*
D03*
D152*
X049616Y010728D02*
D03*
D153*
Y012500D02*
D03*
D154*
Y015039D02*
D03*
D155*
X051545Y013701D02*
D03*
D156*
X031453Y043980D02*
D03*
X032453D02*
D03*
X033453D02*
D03*
X034453D02*
D03*
X035453D02*
D03*
X036453D02*
D03*
X037453D02*
D03*
X038453D02*
D03*
X039453D02*
D03*
X040453D02*
D03*
X031453Y044980D02*
D03*
X032453D02*
D03*
X033453D02*
D03*
X034453D02*
D03*
X035453D02*
D03*
X036453D02*
D03*
X037453D02*
D03*
X038453D02*
D03*
X039453D02*
D03*
X055079Y042866D02*
D03*
Y041866D02*
D03*
D157*
X040453Y044980D02*
D03*
D158*
X055079Y040866D02*
D03*
D159*
X030276Y012323D02*
D03*
D160*
X029276D02*
D03*
X028276D02*
D03*
X030276Y011323D02*
D03*
X029276D02*
D03*
X028276D02*
D03*
X030433Y030148D02*
D03*
Y031457D02*
D03*
X048429Y037226D02*
D03*
Y036340D02*
D03*
D161*
X055118Y045276D02*
D03*
Y011811D02*
D03*
X011811D02*
D03*
X019291Y045276D02*
D03*
D162*
X013268Y014657D02*
D03*
Y019398D02*
D03*
D163*
X014173Y017520D02*
D03*
Y016535D02*
D03*
X014961Y017520D02*
D03*
D164*
Y016535D02*
D03*
D165*
X049656Y043937D02*
D03*
X047343Y043898D02*
D03*
X045079D02*
D03*
X045947Y030907D02*
D03*
X044813Y033819D02*
D03*
X044213Y034724D02*
D03*
X044124Y033858D02*
D03*
X044461Y033496D02*
D03*
X044401Y032885D02*
D03*
X044418Y032292D02*
D03*
X048077Y040547D02*
D03*
X047992Y040906D02*
D03*
X044205Y025577D02*
D03*
X044530Y025395D02*
D03*
X029685Y019803D02*
D03*
X025502Y041978D02*
D03*
X039449Y017126D02*
D03*
Y017520D02*
D03*
X051293Y039510D02*
D03*
X049547Y023927D02*
D03*
X049124Y023494D02*
D03*
X050537Y025198D02*
D03*
X048042Y026289D02*
D03*
X046152Y024390D02*
D03*
X041378Y017215D02*
D03*
X031395Y016775D02*
D03*
X031409Y015787D02*
D03*
X032461Y017795D02*
D03*
X030423Y018327D02*
D03*
X030422Y014480D02*
D03*
X032018Y032943D02*
D03*
X033400Y032625D02*
D03*
X052119Y036427D02*
D03*
X052067Y035226D02*
D03*
X050779Y035797D02*
D03*
X051225Y033820D02*
D03*
X052119Y035681D02*
D03*
X051734Y031951D02*
D03*
X052047Y032185D02*
D03*
X050111Y029726D02*
D03*
X025394Y043307D02*
D03*
X038348Y027314D02*
D03*
X023366Y023839D02*
D03*
X023839Y023366D02*
D03*
X022569Y035541D02*
D03*
X022234Y035157D02*
D03*
X022421Y036220D02*
D03*
X022175Y033199D02*
D03*
X022175Y033878D02*
D03*
X022205Y031417D02*
D03*
X031713Y035624D02*
D03*
X027295Y036665D02*
D03*
X025719Y036703D02*
D03*
X023896Y036646D02*
D03*
X024683D02*
D03*
X028638Y036705D02*
D03*
X030026Y036711D02*
D03*
X030778Y035551D02*
D03*
X033376Y035571D02*
D03*
X035610Y032293D02*
D03*
X035620Y034272D02*
D03*
X036152Y030837D02*
D03*
Y030423D02*
D03*
X035848Y030425D02*
D03*
Y030838D02*
D03*
X035622Y028958D02*
D03*
X035354Y028425D02*
D03*
X037648Y027343D02*
D03*
X036634Y026909D02*
D03*
X036703Y025738D02*
D03*
X037266Y025109D02*
D03*
X034332Y023348D02*
D03*
X032008Y022234D02*
D03*
X027186Y022206D02*
D03*
X026398Y023278D02*
D03*
X032077Y024386D02*
D03*
X025335Y024390D02*
D03*
X025807Y023278D02*
D03*
X024055Y023661D02*
D03*
X023366Y024587D02*
D03*
X022275Y029506D02*
D03*
X026301Y036646D02*
D03*
X026004Y037313D02*
D03*
X023465Y034744D02*
D03*
X023642Y034547D02*
D03*
X023829Y034360D02*
D03*
X023467Y033953D02*
D03*
X023622Y033110D02*
D03*
X021585Y034665D02*
D03*
Y033484D02*
D03*
X020912Y034954D02*
D03*
X022244Y025881D02*
D03*
X019291Y029134D02*
D03*
X022244Y028150D02*
D03*
X023563Y026201D02*
D03*
X030332Y035309D02*
D03*
X033150Y035039D02*
D03*
X035197Y032756D02*
D03*
X035433Y030433D02*
D03*
X034409Y033189D02*
D03*
X030512Y033740D02*
D03*
X026644Y026900D02*
D03*
X028110Y033031D02*
D03*
X025738Y033091D02*
D03*
X026102Y033957D02*
D03*
X026890Y024449D02*
D03*
X026339Y030512D02*
D03*
X025630Y030748D02*
D03*
X025945Y029961D02*
D03*
X026614Y030236D02*
D03*
X027717Y032677D02*
D03*
X029606Y026850D02*
D03*
X029134Y026457D02*
D03*
X032165Y027362D02*
D03*
X032362Y025354D02*
D03*
X031220Y026732D02*
D03*
X030748Y026811D02*
D03*
X031882Y026776D02*
D03*
X026250Y031132D02*
D03*
X026841Y031486D02*
D03*
X024528Y023661D02*
D03*
X026811Y023622D02*
D03*
X030512Y023583D02*
D03*
X032037Y023604D02*
D03*
X033063Y024872D02*
D03*
X037205Y026762D02*
D03*
X037561Y023751D02*
D03*
X035640Y022845D02*
D03*
X034272Y021594D02*
D03*
X035059D02*
D03*
X034299Y024872D02*
D03*
X032697Y027726D02*
D03*
X032667Y028435D02*
D03*
X025699Y027982D02*
D03*
X025310Y028397D02*
D03*
X024906Y028308D02*
D03*
X032244Y029646D02*
D03*
X029173Y026097D02*
D03*
X030335Y026526D02*
D03*
X025004Y031576D02*
D03*
X029217Y032639D02*
D03*
X030989Y033850D02*
D03*
X031211Y033553D02*
D03*
X032101Y033378D02*
D03*
X033597Y034224D02*
D03*
X034227Y025907D02*
D03*
Y026399D02*
D03*
X033990Y024563D02*
D03*
X033372D02*
D03*
X033681Y024872D02*
D03*
X032178Y024748D02*
D03*
X025388Y029903D02*
D03*
X025315Y027776D02*
D03*
X026270Y026673D02*
D03*
X028194Y025838D02*
D03*
X029862Y026260D02*
D03*
X024640Y031183D02*
D03*
X027185Y034065D02*
D03*
X026201Y032982D02*
D03*
X027638Y034350D02*
D03*
X026939Y034370D02*
D03*
X028465Y034380D02*
D03*
X028465Y032884D02*
D03*
X028327Y033406D02*
D03*
X029591Y034332D02*
D03*
X033081Y028799D02*
D03*
X032628Y029213D02*
D03*
X033724Y030725D02*
D03*
X034119Y030710D02*
D03*
X032731Y031478D02*
D03*
X022313Y027185D02*
D03*
X035354Y024252D02*
D03*
X015768Y028691D02*
D03*
X017984Y038629D02*
D03*
X037992Y026378D02*
D03*
X038494Y029813D02*
D03*
X037965Y030362D02*
D03*
X036388Y020443D02*
D03*
X044784Y018642D02*
D03*
X044636Y018495D02*
D03*
X041388Y017431D02*
D03*
X037874Y035276D02*
D03*
X020905Y024016D02*
D03*
X027677Y019803D02*
D03*
X024114Y019783D02*
D03*
X038184Y036979D02*
D03*
X037854Y037283D02*
D03*
Y037825D02*
D03*
Y038366D02*
D03*
X037333Y035266D02*
D03*
X031329Y039370D02*
D03*
X032244Y039252D02*
D03*
X032717D02*
D03*
X025886Y020374D02*
D03*
X025098Y020669D02*
D03*
X025197Y020079D02*
D03*
X018799Y015551D02*
D03*
X019390Y016142D02*
D03*
X020374Y019193D02*
D03*
X018110Y019488D02*
D03*
X017323Y017972D02*
D03*
X016211Y038179D02*
D03*
X019291Y034646D02*
D03*
X019882Y033661D02*
D03*
X021585Y031713D02*
D03*
X030728Y022317D02*
D03*
X031416Y016017D02*
D03*
X031395Y016998D02*
D03*
X029437Y015804D02*
D03*
X029437Y016985D02*
D03*
X037224Y034183D02*
D03*
X031516Y021594D02*
D03*
X024803Y022244D02*
D03*
X023642Y021594D02*
D03*
X039961Y039272D02*
D03*
X037333Y032697D02*
D03*
Y031909D02*
D03*
X030661Y037315D02*
D03*
X031909Y037313D02*
D03*
X036575Y036102D02*
D03*
X039242Y039528D02*
D03*
X050789Y036180D02*
D03*
Y036781D02*
D03*
X046143Y038297D02*
D03*
X047169Y034431D02*
D03*
X047659Y034428D02*
D03*
X026201Y021594D02*
D03*
X025610D02*
D03*
X024232D02*
D03*
X027579Y037313D02*
D03*
X024232D02*
D03*
X033484D02*
D03*
X021585Y027579D02*
D03*
Y025020D02*
D03*
Y023642D02*
D03*
X032894Y021594D02*
D03*
X025020Y037313D02*
D03*
X048338Y039074D02*
D03*
X049156Y034430D02*
D03*
X049706Y034428D02*
D03*
X046753Y039084D02*
D03*
X046133Y039015D02*
D03*
X046143Y037568D02*
D03*
X037333Y028760D02*
D03*
X046143Y035550D02*
D03*
Y036151D02*
D03*
X046123Y036968D02*
D03*
X046185Y035139D02*
D03*
X047737Y039074D02*
D03*
X050759Y037568D02*
D03*
X044213Y034291D02*
D03*
X044173Y032026D02*
D03*
X044134Y033150D02*
D03*
X044178Y032559D02*
D03*
X038184Y038087D02*
D03*
Y037533D02*
D03*
Y038642D02*
D03*
X017667Y038112D02*
D03*
X021270Y041362D02*
D03*
X040443Y018012D02*
D03*
X040817Y017579D02*
D03*
X040463D02*
D03*
Y017303D02*
D03*
X040817Y017303D02*
D03*
X040463Y017028D02*
D03*
X040817D02*
D03*
X040817Y016752D02*
D03*
X040817Y016476D02*
D03*
X040640Y016043D02*
D03*
X040463Y016752D02*
D03*
Y016476D02*
D03*
X044292Y018958D02*
D03*
X044042Y019209D02*
D03*
X044237Y019404D02*
D03*
X044487Y019153D02*
D03*
X043141Y019995D02*
D03*
X044529Y019724D02*
D03*
X043512Y020035D02*
D03*
X043457Y018624D02*
D03*
X043652Y018819D02*
D03*
X043708Y018374D02*
D03*
X043903Y018568D02*
D03*
X044098Y018763D02*
D03*
X043847Y019014D02*
D03*
X043276Y018193D02*
D03*
X019762Y027876D02*
D03*
X020039Y027598D02*
D03*
X020923Y029508D02*
D03*
X021069Y021974D02*
D03*
X021506D02*
D03*
X015787Y032323D02*
D03*
X017717Y030748D02*
D03*
X020039Y031220D02*
D03*
X019803Y031811D02*
D03*
X028543Y021614D02*
D03*
X022148Y032165D02*
D03*
X048426Y034418D02*
D03*
X021069Y021537D02*
D03*
X028711Y022224D02*
D03*
X045347Y024331D02*
D03*
X044980D02*
D03*
X030433Y017215D02*
D03*
X030079Y015561D02*
D03*
Y015837D02*
D03*
Y016112D02*
D03*
X030787Y015561D02*
D03*
X030433D02*
D03*
X030787Y015837D02*
D03*
X030433Y015837D02*
D03*
X030079Y016388D02*
D03*
Y016663D02*
D03*
Y016939D02*
D03*
Y017215D02*
D03*
X030433Y016112D02*
D03*
Y016388D02*
D03*
X030787Y016112D02*
D03*
X030787Y016388D02*
D03*
X030787Y016663D02*
D03*
X030433D02*
D03*
X030787Y016939D02*
D03*
X030433Y016939D02*
D03*
X030787Y017215D02*
D03*
X022559Y019331D02*
D03*
X023661Y020512D02*
D03*
X020374Y018543D02*
D03*
X023159Y020502D02*
D03*
X018386Y031969D02*
D03*
X027953Y042795D02*
D03*
X032894Y036594D02*
D03*
X050781Y038132D02*
D03*
X050808Y034576D02*
D03*
X050789Y035235D02*
D03*
X050287Y034428D02*
D03*
X049834Y039074D02*
D03*
X052119Y036990D02*
D03*
X049234Y039074D02*
D03*
X053482Y026455D02*
D03*
Y026892D02*
D03*
X045712Y033563D02*
D03*
X046476Y033051D02*
D03*
X053045Y026892D02*
D03*
X049679Y042126D02*
D03*
X049727Y041075D02*
D03*
X049419Y040809D02*
D03*
X047244Y041191D02*
D03*
X049382Y041862D02*
D03*
X049678Y041606D02*
D03*
X049412Y041341D02*
D03*
X050652Y039094D02*
D03*
X053045Y027329D02*
D03*
X050467Y029882D02*
D03*
X049646Y029567D02*
D03*
X052266Y027413D02*
D03*
X048189Y029124D02*
D03*
X047825Y029055D02*
D03*
X049272Y032726D02*
D03*
X047815Y032717D02*
D03*
X052119Y036055D02*
D03*
X049803Y025000D02*
D03*
X051929Y026890D02*
D03*
X047362Y027598D02*
D03*
X028205Y015882D02*
D03*
X028194Y015193D02*
D03*
X024724Y041063D02*
D03*
X026791Y039419D02*
D03*
X024016Y039488D02*
D03*
D166*
X043760Y025305D02*
D03*
M02*
